<?xml version="1.0" encoding="utf-8"?>
<svg xmlns="http://www.w3.org/2000/svg" viewBox="185.305 158.168 139.932 139.931" role="img" aria-label="Wedding ornament 03">
<g>
		<g>
			<g>
				<g>
					<g>
						<path style="fill:#FFFFFF;stroke:#3C3C3B;stroke-linecap:round;stroke-linejoin:round;stroke-miterlimit:10;" d="
							M248.491,288.61c-0.303,1.984-1.714,4.426-3.862,5.472c-0.648,0.306-1.386,0.547-2.19,0.552
							c-0.807,0.022-1.669-0.3-2.145-0.842c-0.882-1.014-0.086-2.268,0.855-3.05c1.385-1.117,3.153-2.01,5.021-2.427L248.491,288.61
							z"/>
					</g>
					<g>
						<path style="fill:#FFFFFF;stroke:#3C3C3B;stroke-linecap:round;stroke-linejoin:round;stroke-miterlimit:10;" d="
							M248.491,288.61c0.123-2.027-0.633-4.679-1.982-6.259c-0.414-0.495-0.891-0.953-1.48-1.207
							c-0.593-0.238-1.305-0.317-1.859-0.006c-1.031,0.573-1.011,2.015-0.563,3.118c0.64,1.642,1.905,3.034,3.564,4.06
							L248.491,288.61z"/>
					</g>
				</g>
				<g>
					<g>
						<path style="fill:#FFFFFF;stroke:#3C3C3B;stroke-linecap:round;stroke-linejoin:round;stroke-miterlimit:10;" d="
							M240.053,287.077c-0.582,1.931-2.312,4.108-4.596,4.868c-0.685,0.212-1.448,0.338-2.243,0.225
							c-0.798-0.104-1.62-0.509-2.007-1.131c-0.727-1.135,0.237-2.261,1.278-2.897c0.763-0.454,1.618-0.846,2.518-1.139
							c0.903-0.303,1.829-0.441,2.8-0.565L240.053,287.077z"/>
					</g>
					<g>
						<path style="fill:#FFFFFF;stroke:#3C3C3B;stroke-linecap:round;stroke-linejoin:round;stroke-miterlimit:10;" d="
							M240.053,287.077c0.405-1.981,0.043-4.753-1.076-6.479c-0.339-0.548-0.744-1.077-1.29-1.416
							c-0.549-0.331-1.255-0.473-1.841-0.262c-1.099,0.415-1.285,1.848-0.999,3.008c0.202,0.86,0.566,1.671,1.068,2.428
							c0.505,0.748,1.126,1.509,1.889,2.083L240.053,287.077z"/>
					</g>
				</g>
				<g>
					<g>
						<path style="fill:#FFFFFF;stroke:#3C3C3B;stroke-linecap:round;stroke-linejoin:round;stroke-miterlimit:10;" d="
							M231.924,284.348c-0.859,1.85-2.875,3.749-5.239,4.17c-0.721,0.139-1.482,0.132-2.254-0.088
							c-0.767-0.231-1.536-0.724-1.828-1.399c-0.557-1.23,0.556-2.207,1.674-2.687c0.816-0.337,1.732-0.628,2.656-0.776
							c0.928-0.155,1.878-0.188,2.853-0.166C230.499,283.715,231.199,284.06,231.924,284.348z"/>
					</g>
					<g>
						<path style="fill:#FFFFFF;stroke:#3C3C3B;stroke-linecap:round;stroke-linejoin:round;stroke-miterlimit:10;" d="
							M231.924,284.348c0.673-1.883,0.712-4.689-0.149-6.566c-0.271-0.564-0.586-1.169-1.08-1.578
							c-0.489-0.421-1.181-0.638-1.789-0.517c-1.145,0.251-1.532,1.645-1.415,2.837c0.076,0.884,0.335,1.715,0.717,2.551
							c0.386,0.828,0.906,1.642,1.577,2.326C230.499,283.715,231.199,284.06,231.924,284.348z"/>
					</g>
				</g>
				<g>
					<g>
						<path style="fill:#FFFFFF;stroke:#3C3C3B;stroke-linecap:round;stroke-linejoin:round;stroke-miterlimit:10;" d="
							M224.261,280.5c-1.109,1.707-3.385,3.323-5.774,3.391c-0.733,0.036-1.493-0.065-2.221-0.4
							c-0.723-0.342-1.417-0.933-1.614-1.639c-0.376-1.298,0.861-2.108,2.035-2.425c0.866-0.234,1.804-0.381,2.74-0.398
							c0.934-0.012,1.89,0.071,2.849,0.236C222.938,279.676,223.576,280.127,224.261,280.5z"/>
					</g>
					<g>
						<path style="fill:#FFFFFF;stroke:#3C3C3B;stroke-linecap:round;stroke-linejoin:round;stroke-miterlimit:10;" d="
							M224.261,280.5c0.933-1.772,1.356-4.525,0.777-6.521c-0.189-0.598-0.425-1.227-0.851-1.712c-0.422-0.491-1.08-0.8-1.701-0.761
							c-1.167,0.085-1.747,1.413-1.799,2.611c-0.039,0.872,0.092,1.743,0.354,2.624c0.258,0.885,0.671,1.746,1.235,2.524
							C222.938,279.676,223.576,280.127,224.261,280.5z"/>
					</g>
				</g>
				<g>
					<g>
						<path style="fill:#FFFFFF;stroke:#3C3C3B;stroke-linecap:round;stroke-linejoin:round;stroke-miterlimit:10;" d="
							M217.215,275.614c-0.667,0.758-1.619,1.468-2.713,1.958c-1.078,0.473-2.294,0.718-3.479,0.59
							c-0.728-0.07-1.478-0.263-2.145-0.704c-0.669-0.438-1.263-1.132-1.37-1.847c-0.189-1.34,1.149-1.968,2.354-2.117
							c1.821-0.259,3.707,0.025,5.56,0.618C216.012,274.623,216.591,275.145,217.215,275.614z"/>
					</g>
					<g>
						<path style="fill:#FFFFFF;stroke:#3C3C3B;stroke-linecap:round;stroke-linejoin:round;stroke-miterlimit:10;" d="
							M217.215,275.614c0.595-0.816,1.082-1.889,1.384-3.004c0.315-1.134,0.452-2.314,0.299-3.344
							c-0.101-0.621-0.258-1.265-0.606-1.812c-0.35-0.544-0.949-0.953-1.58-0.991c-1.166-0.081-1.926,1.153-2.147,2.334
							c-0.283,1.673-0.046,3.618,0.856,5.316C216.012,274.623,216.591,275.145,217.215,275.614z"/>
					</g>
				</g>
				<g>
					<g>
						<path style="fill:#FFFFFF;stroke:#3C3C3B;stroke-linecap:round;stroke-linejoin:round;stroke-miterlimit:10;" d="
							M210.921,269.791c-1.532,1.326-4.189,2.269-6.486,1.659c-0.705-0.176-1.434-0.461-2.028-0.995
							c-0.602-0.526-1.082-1.305-1.101-2.019c0.005-1.357,1.408-1.785,2.632-1.771c1.834,0.003,3.67,0.541,5.417,1.391
							C209.86,268.649,210.373,269.237,210.921,269.791z"/>
					</g>
					<g>
						<path style="fill:#FFFFFF;stroke:#3C3C3B;stroke-linecap:round;stroke-linejoin:round;stroke-miterlimit:10;" d="
							M210.921,269.791c1.396-1.451,2.541-3.957,2.554-6.051c-0.008-0.634-0.086-1.283-0.349-1.876
							c-0.272-0.587-0.795-1.084-1.428-1.2c-1.138-0.246-2.072,0.876-2.447,2.007c-0.52,1.622-0.548,3.573,0.103,5.386
							C209.86,268.649,210.373,269.237,210.921,269.791z"/>
					</g>
				</g>
				<g>
					<g>
						<path style="fill:#FFFFFF;stroke:#3C3C3B;stroke-linecap:round;stroke-linejoin:round;stroke-miterlimit:10;" d="
							M205.503,263.146c-1.695,1.093-4.472,1.665-6.655,0.734c-0.665-0.278-1.363-0.654-1.872-1.268
							c-0.521-0.607-0.884-1.448-0.802-2.158c0.184-1.337,1.632-1.563,2.854-1.384c1.805,0.267,3.561,1.049,5.164,2.14
							C204.603,261.873,205.042,262.517,205.503,263.146z"/>
					</g>
					<g>
						<path style="fill:#FFFFFF;stroke:#3C3C3B;stroke-linecap:round;stroke-linejoin:round;stroke-miterlimit:10;" d="
							M205.503,263.146c1.592-1.246,3.063-3.559,3.376-5.633c0.09-0.634,0.088-1.278-0.085-1.904
							c-0.185-0.62-0.63-1.187-1.239-1.391c-1.103-0.397-2.188,0.583-2.704,1.643c-0.753,1.539-1.043,3.459-0.658,5.349
							C204.603,261.873,205.042,262.517,205.503,263.146z"/>
					</g>
				</g>
				<g>
					<g>
						<path style="fill:#FFFFFF;stroke:#3C3C3B;stroke-linecap:round;stroke-linejoin:round;stroke-miterlimit:10;" d="
							M201.07,255.807c-1.822,0.84-4.671,1.023-6.692-0.211c-0.613-0.372-1.257-0.84-1.679-1.519
							c-0.427-0.676-0.665-1.561-0.481-2.254c0.345-1.289,1.837-1.317,3.02-0.966c1.734,0.526,3.38,1.54,4.805,2.85
							C200.35,254.424,200.714,255.114,201.07,255.807z"/>
					</g>
					<g>
						<path style="fill:#FFFFFF;stroke:#3C3C3B;stroke-linecap:round;stroke-linejoin:round;stroke-miterlimit:10;" d="
							M201.07,255.807c1.761-1.014,3.524-3.089,4.136-5.101c0.185-0.618,0.268-1.252,0.18-1.894
							c-0.092-0.641-0.45-1.265-1.021-1.554c-1.062-0.539-2.247,0.268-2.91,1.245c-0.978,1.423-1.518,3.275-1.412,5.204
							C200.35,254.424,200.714,255.114,201.07,255.807z"/>
					</g>
				</g>
				<g>
					<g>
						<path style="fill:#FFFFFF;stroke:#3C3C3B;stroke-linecap:round;stroke-linejoin:round;stroke-miterlimit:10;" d="
							M197.716,247.917c-0.969,0.285-2.148,0.375-3.328,0.202c-1.189-0.168-2.361-0.608-3.267-1.358
							c-0.559-0.454-1.101-1.017-1.455-1.74c-0.322-0.731-0.427-1.642-0.143-2.303c0.529-1.228,2.007-1.044,3.126-0.529
							c0.82,0.382,1.603,0.884,2.317,1.48c0.748,0.588,1.435,1.267,2.028,2.023C197.189,246.449,197.478,247.175,197.716,247.917z"
							/>
					</g>
					<g>
						<path style="fill:#FFFFFF;stroke:#3C3C3B;stroke-linecap:round;stroke-linejoin:round;stroke-miterlimit:10;" d="
							M197.716,247.917c1.9-0.759,3.914-2.556,4.816-4.464c0.266-0.584,0.466-1.208,0.439-1.848
							c0.004-0.648-0.256-1.319-0.777-1.686c-0.97-0.685-2.261-0.053-3.058,0.821c-0.585,0.637-1.077,1.391-1.459,2.234
							c-0.349,0.834-0.579,1.753-0.684,2.72C197.189,246.449,197.478,247.175,197.716,247.917z"/>
					</g>
				</g>
				<g>
					<g>
						<path style="fill:#FFFFFF;stroke:#3C3C3B;stroke-linecap:round;stroke-linejoin:round;stroke-miterlimit:10;" d="
							M195.509,239.633c-1.98,0.295-4.751-0.33-6.367-2.077c-0.485-0.529-0.935-1.162-1.18-1.928
							c-0.262-0.764-0.191-1.683,0.176-2.296c0.706-1.141,2.14-0.752,3.167-0.084c1.477,0.992,2.847,2.418,3.796,4.082
							L195.509,239.633z"/>
					</g>
					<g>
						<path style="fill:#FFFFFF;stroke:#3C3C3B;stroke-linecap:round;stroke-linejoin:round;stroke-miterlimit:10;" d="
							M195.509,239.633c1.978-0.481,4.268-1.982,5.398-3.739c0.349-0.541,0.644-1.132,0.71-1.771
							c0.05-0.637-0.068-1.344-0.539-1.781c-0.855-0.817-2.225-0.371-3.145,0.383c-1.378,1.098-2.34,2.717-2.832,4.605
							L195.509,239.633z"/>
					</g>
				</g>
			</g>
			<g>
				<g>
					<g>
						<path style="fill:#FFFFFF;stroke:#3C3C3B;stroke-linecap:round;stroke-linejoin:round;stroke-miterlimit:10;" d="
							M315.747,234.914c1.984,0.303,4.425,1.714,5.472,3.862c0.306,0.648,0.547,1.386,0.552,2.19c0.022,0.807-0.3,1.669-0.842,2.145
							c-1.014,0.882-2.268,0.086-3.05-0.855c-1.117-1.385-2.01-3.153-2.426-5.021L315.747,234.914z"/>
					</g>
					<g>
						<path style="fill:#FFFFFF;stroke:#3C3C3B;stroke-linecap:round;stroke-linejoin:round;stroke-miterlimit:10;" d="
							M315.747,234.914c-2.027-0.123-4.679,0.633-6.259,1.982c-0.495,0.414-0.953,0.891-1.207,1.48
							c-0.238,0.593-0.317,1.305-0.006,1.859c0.573,1.031,2.015,1.011,3.118,0.563c1.642-0.64,3.034-1.905,4.06-3.564
							L315.747,234.914z"/>
					</g>
				</g>
				<g>
					<g>
						<path style="fill:#FFFFFF;stroke:#3C3C3B;stroke-linecap:round;stroke-linejoin:round;stroke-miterlimit:10;" d="
							M314.214,243.351c1.931,0.582,4.108,2.312,4.868,4.596c0.212,0.685,0.338,1.448,0.225,2.243
							c-0.104,0.798-0.509,1.62-1.131,2.007c-1.135,0.727-2.261-0.237-2.897-1.278c-0.454-0.763-0.846-1.618-1.139-2.518
							c-0.303-0.903-0.441-1.829-0.565-2.8L314.214,243.351z"/>
					</g>
					<g>
						<path style="fill:#FFFFFF;stroke:#3C3C3B;stroke-linecap:round;stroke-linejoin:round;stroke-miterlimit:10;" d="
							M314.214,243.351c-1.981-0.405-4.753-0.043-6.479,1.076c-0.548,0.339-1.077,0.744-1.416,1.29
							c-0.331,0.549-0.473,1.255-0.262,1.841c0.415,1.099,1.848,1.285,3.008,0.999c0.86-0.202,1.671-0.566,2.428-1.068
							c0.748-0.505,1.509-1.126,2.083-1.889L314.214,243.351z"/>
					</g>
				</g>
				<g>
					<g>
						<path style="fill:#FFFFFF;stroke:#3C3C3B;stroke-linecap:round;stroke-linejoin:round;stroke-miterlimit:10;" d="
							M311.484,251.481c1.85,0.859,3.75,2.875,4.17,5.239c0.139,0.721,0.132,1.482-0.088,2.254
							c-0.231,0.767-0.724,1.536-1.399,1.828c-1.23,0.557-2.207-0.556-2.687-1.674c-0.337-0.816-0.628-1.732-0.776-2.656
							c-0.155-0.929-0.188-1.878-0.166-2.853C310.851,252.905,311.197,252.205,311.484,251.481z"/>
					</g>
					<g>
						<path style="fill:#FFFFFF;stroke:#3C3C3B;stroke-linecap:round;stroke-linejoin:round;stroke-miterlimit:10;" d="
							M311.484,251.481c-1.883-0.673-4.689-0.712-6.566,0.149c-0.564,0.271-1.169,0.586-1.578,1.08
							c-0.421,0.489-0.638,1.181-0.517,1.789c0.251,1.145,1.645,1.532,2.837,1.414c0.884-0.076,1.715-0.335,2.551-0.717
							c0.828-0.386,1.642-0.906,2.326-1.577C310.851,252.905,311.197,252.205,311.484,251.481z"/>
					</g>
				</g>
				<g>
					<g>
						<path style="fill:#FFFFFF;stroke:#3C3C3B;stroke-linecap:round;stroke-linejoin:round;stroke-miterlimit:10;" d="
							M307.637,259.144c1.707,1.109,3.323,3.385,3.391,5.774c0.036,0.733-0.065,1.493-0.4,2.221
							c-0.342,0.722-0.933,1.417-1.639,1.614c-1.298,0.376-2.108-0.861-2.425-2.035c-0.234-0.866-0.381-1.804-0.398-2.74
							c-0.012-0.934,0.071-1.89,0.236-2.849C306.812,260.467,307.264,259.829,307.637,259.144z"/>
					</g>
					<g>
						<path style="fill:#FFFFFF;stroke:#3C3C3B;stroke-linecap:round;stroke-linejoin:round;stroke-miterlimit:10;" d="
							M307.637,259.144c-1.772-0.933-4.525-1.356-6.521-0.777c-0.598,0.189-1.227,0.425-1.712,0.851
							c-0.491,0.422-0.8,1.08-0.761,1.701c0.085,1.168,1.413,1.747,2.611,1.799c0.872,0.039,1.743-0.092,2.624-0.354
							c0.885-0.258,1.746-0.671,2.524-1.235C306.812,260.467,307.264,259.829,307.637,259.144z"/>
					</g>
				</g>
				<g>
					<g>
						<path style="fill:#FFFFFF;stroke:#3C3C3B;stroke-linecap:round;stroke-linejoin:round;stroke-miterlimit:10;" d="
							M302.751,266.19c0.758,0.667,1.468,1.619,1.958,2.713c0.473,1.078,0.718,2.294,0.59,3.478
							c-0.07,0.728-0.263,1.478-0.704,2.145c-0.438,0.669-1.132,1.263-1.847,1.37c-1.34,0.189-1.968-1.149-2.117-2.353
							c-0.259-1.821,0.025-3.708,0.618-5.56C301.76,267.393,302.282,266.813,302.751,266.19z"/>
					</g>
					<g>
						<path style="fill:#FFFFFF;stroke:#3C3C3B;stroke-linecap:round;stroke-linejoin:round;stroke-miterlimit:10;" d="
							M302.751,266.19c-0.816-0.595-1.889-1.082-3.004-1.384c-1.134-0.315-2.314-0.452-3.344-0.299
							c-0.621,0.101-1.265,0.258-1.812,0.606c-0.544,0.35-0.953,0.948-0.991,1.58c-0.081,1.166,1.153,1.926,2.334,2.147
							c1.673,0.283,3.618,0.046,5.316-0.857C301.76,267.393,302.282,266.813,302.751,266.19z"/>
					</g>
				</g>
				<g>
					<g>
						<path style="fill:#FFFFFF;stroke:#3C3C3B;stroke-linecap:round;stroke-linejoin:round;stroke-miterlimit:10;" d="
							M296.928,272.483c1.325,1.532,2.269,4.189,1.659,6.487c-0.176,0.705-0.461,1.434-0.995,2.028
							c-0.526,0.602-1.305,1.082-2.019,1.101c-1.357-0.005-1.785-1.408-1.771-2.632c0.003-1.834,0.541-3.67,1.391-5.417
							C295.786,273.544,296.373,273.032,296.928,272.483z"/>
					</g>
					<g>
						<path style="fill:#FFFFFF;stroke:#3C3C3B;stroke-linecap:round;stroke-linejoin:round;stroke-miterlimit:10;" d="
							M296.928,272.483c-1.451-1.396-3.958-2.541-6.051-2.554c-0.634,0.008-1.283,0.086-1.877,0.349
							c-0.587,0.272-1.084,0.795-1.2,1.428c-0.246,1.138,0.876,2.072,2.007,2.446c1.622,0.52,3.573,0.548,5.386-0.103
							C295.786,273.544,296.373,273.032,296.928,272.483z"/>
					</g>
				</g>
				<g>
					<g>
						<path style="fill:#FFFFFF;stroke:#3C3C3B;stroke-linecap:round;stroke-linejoin:round;stroke-miterlimit:10;" d="
							M290.283,277.901c1.093,1.695,1.665,4.472,0.734,6.655c-0.278,0.665-0.654,1.363-1.268,1.872
							c-0.607,0.521-1.448,0.884-2.158,0.802c-1.337-0.184-1.563-1.632-1.384-2.854c0.267-1.805,1.049-3.56,2.14-5.164
							C289.01,278.802,289.654,278.362,290.283,277.901z"/>
					</g>
					<g>
						<path style="fill:#FFFFFF;stroke:#3C3C3B;stroke-linecap:round;stroke-linejoin:round;stroke-miterlimit:10;" d="
							M290.283,277.901c-1.246-1.592-3.559-3.063-5.633-3.376c-0.634-0.09-1.278-0.088-1.904,0.085
							c-0.62,0.185-1.186,0.63-1.391,1.239c-0.397,1.103,0.583,2.188,1.644,2.704c1.539,0.753,3.459,1.043,5.349,0.658
							C289.01,278.802,289.654,278.362,290.283,277.901z"/>
					</g>
				</g>
				<g>
					<g>
						<path style="fill:#FFFFFF;stroke:#3C3C3B;stroke-linecap:round;stroke-linejoin:round;stroke-miterlimit:10;" d="
							M282.944,282.334c0.84,1.822,1.023,4.671-0.211,6.692c-0.372,0.613-0.84,1.257-1.519,1.679
							c-0.676,0.427-1.561,0.665-2.254,0.481c-1.289-0.345-1.317-1.837-0.966-3.02c0.526-1.734,1.54-3.38,2.85-4.805
							C281.561,283.054,282.251,282.69,282.944,282.334z"/>
					</g>
					<g>
						<path style="fill:#FFFFFF;stroke:#3C3C3B;stroke-linecap:round;stroke-linejoin:round;stroke-miterlimit:10;" d="
							M282.944,282.334c-1.014-1.761-3.089-3.524-5.101-4.136c-0.618-0.185-1.252-0.268-1.894-0.18
							c-0.641,0.092-1.265,0.45-1.554,1.021c-0.539,1.062,0.268,2.247,1.245,2.91c1.423,0.978,3.275,1.518,5.204,1.412
							C281.561,283.054,282.251,282.69,282.944,282.334z"/>
					</g>
				</g>
				<g>
					<g>
						<path style="fill:#FFFFFF;stroke:#3C3C3B;stroke-linecap:round;stroke-linejoin:round;stroke-miterlimit:10;" d="
							M275.054,285.689c0.284,0.969,0.374,2.148,0.202,3.328c-0.168,1.189-0.608,2.361-1.358,3.267
							c-0.454,0.559-1.017,1.101-1.74,1.455c-0.731,0.322-1.642,0.427-2.303,0.143c-1.228-0.529-1.044-2.007-0.529-3.125
							c0.382-0.82,0.884-1.603,1.48-2.317c0.588-0.748,1.267-1.435,2.023-2.028C273.585,286.215,274.312,285.927,275.054,285.689z"
							/>
					</g>
					<g>
						<path style="fill:#FFFFFF;stroke:#3C3C3B;stroke-linecap:round;stroke-linejoin:round;stroke-miterlimit:10;" d="
							M275.054,285.689c-0.76-1.9-2.556-3.914-4.464-4.816c-0.584-0.266-1.208-0.467-1.848-0.439
							c-0.648-0.004-1.319,0.256-1.686,0.777c-0.685,0.97-0.053,2.26,0.821,3.058c0.637,0.585,1.391,1.077,2.234,1.459
							c0.834,0.349,1.754,0.579,2.72,0.684C273.585,286.215,274.312,285.927,275.054,285.689z"/>
					</g>
				</g>
				<g>
					<g>
						<path style="fill:#FFFFFF;stroke:#3C3C3B;stroke-linecap:round;stroke-linejoin:round;stroke-miterlimit:10;" d="
							M266.769,287.896c0.295,1.98-0.33,4.751-2.076,6.366c-0.529,0.485-1.163,0.935-1.928,1.18
							c-0.764,0.262-1.683,0.191-2.296-0.176c-1.141-0.706-0.752-2.14-0.084-3.167c0.992-1.477,2.418-2.847,4.082-3.796
							L266.769,287.896z"/>
					</g>
					<g>
						<path style="fill:#FFFFFF;stroke:#3C3C3B;stroke-linecap:round;stroke-linejoin:round;stroke-miterlimit:10;" d="
							M266.769,287.896c-0.481-1.979-1.981-4.268-3.739-5.398c-0.541-0.349-1.132-0.644-1.771-0.71
							c-0.637-0.05-1.344,0.068-1.781,0.539c-0.817,0.855-0.371,2.225,0.383,3.145c1.098,1.378,2.717,2.34,4.605,2.832
							L266.769,287.896z"/>
					</g>
				</g>
			</g>
			<g>
				<g>
					<g>
						<path style="fill:#FFFFFF;stroke:#3C3C3B;stroke-linecap:round;stroke-linejoin:round;stroke-miterlimit:10;" d="
							M262.051,167.658c0.303-1.985,1.714-4.425,3.861-5.472c0.648-0.306,1.386-0.547,2.19-0.552c0.807-0.022,1.669,0.3,2.145,0.842
							c0.882,1.014,0.086,2.268-0.855,3.05c-1.385,1.117-3.153,2.01-5.021,2.426L262.051,167.658z"/>
					</g>
					<g>
						<path style="fill:#FFFFFF;stroke:#3C3C3B;stroke-linecap:round;stroke-linejoin:round;stroke-miterlimit:10;" d="
							M262.051,167.658c-0.123,2.027,0.633,4.679,1.982,6.259c0.414,0.495,0.891,0.953,1.48,1.207
							c0.593,0.238,1.305,0.317,1.859,0.006c1.031-0.573,1.011-2.015,0.563-3.118c-0.64-1.642-1.905-3.034-3.564-4.06
							L262.051,167.658z"/>
					</g>
				</g>
				<g>
					<g>
						<path style="fill:#FFFFFF;stroke:#3C3C3B;stroke-linecap:round;stroke-linejoin:round;stroke-miterlimit:10;" d="
							M270.488,169.191c0.582-1.931,2.312-4.108,4.596-4.868c0.685-0.212,1.448-0.338,2.243-0.225
							c0.798,0.104,1.62,0.509,2.007,1.131c0.727,1.135-0.237,2.261-1.278,2.898c-0.763,0.454-1.618,0.846-2.518,1.139
							c-0.903,0.303-1.829,0.441-2.8,0.565L270.488,169.191z"/>
					</g>
					<g>
						<path style="fill:#FFFFFF;stroke:#3C3C3B;stroke-linecap:round;stroke-linejoin:round;stroke-miterlimit:10;" d="
							M270.488,169.191c-0.405,1.981-0.043,4.753,1.076,6.479c0.339,0.549,0.744,1.077,1.29,1.416
							c0.549,0.331,1.255,0.473,1.841,0.262c1.099-0.415,1.285-1.848,0.999-3.008c-0.202-0.859-0.566-1.671-1.068-2.428
							c-0.505-0.748-1.126-1.509-1.889-2.083L270.488,169.191z"/>
					</g>
				</g>
				<g>
					<g>
						<path style="fill:#FFFFFF;stroke:#3C3C3B;stroke-linecap:round;stroke-linejoin:round;stroke-miterlimit:10;" d="
							M278.617,171.92c0.859-1.85,2.875-3.75,5.239-4.17c0.721-0.139,1.482-0.133,2.254,0.088c0.767,0.231,1.536,0.724,1.828,1.399
							c0.557,1.23-0.556,2.207-1.674,2.687c-0.816,0.338-1.732,0.628-2.656,0.776c-0.928,0.155-1.878,0.188-2.853,0.166
							C280.042,172.553,279.342,172.208,278.617,171.92z"/>
					</g>
					<g>
						<path style="fill:#FFFFFF;stroke:#3C3C3B;stroke-linecap:round;stroke-linejoin:round;stroke-miterlimit:10;" d="
							M278.617,171.92c-0.673,1.883-0.712,4.689,0.149,6.566c0.271,0.564,0.586,1.168,1.08,1.578
							c0.489,0.421,1.181,0.638,1.789,0.517c1.145-0.251,1.532-1.645,1.414-2.837c-0.076-0.884-0.335-1.715-0.717-2.551
							c-0.386-0.829-0.906-1.642-1.577-2.326C280.042,172.553,279.342,172.208,278.617,171.92z"/>
					</g>
				</g>
				<g>
					<g>
						<path style="fill:#FFFFFF;stroke:#3C3C3B;stroke-linecap:round;stroke-linejoin:round;stroke-miterlimit:10;" d="
							M286.28,175.768c1.109-1.707,3.385-3.323,5.774-3.391c0.733-0.036,1.493,0.065,2.221,0.4c0.722,0.341,1.417,0.933,1.614,1.639
							c0.376,1.298-0.861,2.108-2.035,2.425c-0.866,0.233-1.804,0.38-2.74,0.398c-0.934,0.012-1.89-0.071-2.849-0.236
							C287.603,176.592,286.966,176.141,286.28,175.768z"/>
					</g>
					<g>
						<path style="fill:#FFFFFF;stroke:#3C3C3B;stroke-linecap:round;stroke-linejoin:round;stroke-miterlimit:10;" d="
							M286.28,175.768c-0.933,1.772-1.356,4.525-0.777,6.521c0.189,0.598,0.425,1.227,0.851,1.712c0.422,0.491,1.08,0.8,1.701,0.761
							c1.167-0.085,1.747-1.413,1.799-2.611c0.039-0.872-0.093-1.743-0.354-2.624c-0.258-0.885-0.671-1.746-1.235-2.524
							C287.603,176.592,286.966,176.141,286.28,175.768z"/>
					</g>
				</g>
				<g>
					<g>
						<path style="fill:#FFFFFF;stroke:#3C3C3B;stroke-linecap:round;stroke-linejoin:round;stroke-miterlimit:10;" d="
							M293.327,180.654c0.667-0.758,1.619-1.468,2.713-1.958c1.078-0.473,2.294-0.718,3.478-0.59
							c0.728,0.07,1.478,0.263,2.145,0.704c0.669,0.438,1.263,1.132,1.37,1.847c0.189,1.34-1.149,1.968-2.353,2.117
							c-1.821,0.259-3.708-0.025-5.56-0.618C294.529,181.645,293.95,181.123,293.327,180.654z"/>
					</g>
					<g>
						<path style="fill:#FFFFFF;stroke:#3C3C3B;stroke-linecap:round;stroke-linejoin:round;stroke-miterlimit:10;" d="
							M293.327,180.654c-0.595,0.816-1.082,1.889-1.384,3.004c-0.315,1.134-0.452,2.314-0.299,3.344
							c0.101,0.621,0.258,1.265,0.606,1.812c0.35,0.544,0.948,0.953,1.58,0.991c1.166,0.081,1.926-1.153,2.147-2.334
							c0.283-1.673,0.046-3.618-0.857-5.316C294.529,181.645,293.95,181.123,293.327,180.654z"/>
					</g>
				</g>
				<g>
					<g>
						<path style="fill:#FFFFFF;stroke:#3C3C3B;stroke-linecap:round;stroke-linejoin:round;stroke-miterlimit:10;" d="
							M299.62,186.477c1.532-1.325,4.189-2.269,6.487-1.659c0.705,0.175,1.434,0.461,2.028,0.995
							c0.602,0.526,1.082,1.305,1.101,2.019c-0.005,1.357-1.408,1.785-2.632,1.771c-1.834-0.003-3.67-0.541-5.417-1.391
							C300.681,187.618,300.168,187.031,299.62,186.477z"/>
					</g>
					<g>
						<path style="fill:#FFFFFF;stroke:#3C3C3B;stroke-linecap:round;stroke-linejoin:round;stroke-miterlimit:10;" d="
							M299.62,186.477c-1.396,1.451-2.541,3.958-2.554,6.051c0.008,0.634,0.086,1.283,0.349,1.877
							c0.272,0.587,0.795,1.084,1.428,1.2c1.138,0.247,2.072-0.876,2.446-2.007c0.52-1.622,0.548-3.574-0.103-5.386
							C300.681,187.618,300.168,187.031,299.62,186.477z"/>
					</g>
				</g>
				<g>
					<g>
						<path style="fill:#FFFFFF;stroke:#3C3C3B;stroke-linecap:round;stroke-linejoin:round;stroke-miterlimit:10;" d="
							M305.038,193.122c1.695-1.093,4.472-1.665,6.655-0.734c0.665,0.278,1.363,0.654,1.872,1.268
							c0.521,0.607,0.884,1.447,0.802,2.158c-0.184,1.337-1.632,1.563-2.854,1.383c-1.805-0.267-3.56-1.049-5.164-2.14
							C305.938,194.395,305.499,193.751,305.038,193.122z"/>
					</g>
					<g>
						<path style="fill:#FFFFFF;stroke:#3C3C3B;stroke-linecap:round;stroke-linejoin:round;stroke-miterlimit:10;" d="
							M305.038,193.122c-1.592,1.246-3.063,3.559-3.376,5.633c-0.09,0.634-0.088,1.278,0.085,1.904
							c0.185,0.62,0.63,1.186,1.239,1.391c1.103,0.397,2.188-0.583,2.704-1.643c0.753-1.539,1.043-3.459,0.658-5.349
							C305.938,194.395,305.499,193.751,305.038,193.122z"/>
					</g>
				</g>
				<g>
					<g>
						<path style="fill:#FFFFFF;stroke:#3C3C3B;stroke-linecap:round;stroke-linejoin:round;stroke-miterlimit:10;" d="
							M309.471,200.46c1.822-0.84,4.671-1.023,6.692,0.211c0.613,0.372,1.257,0.84,1.679,1.519c0.427,0.676,0.665,1.561,0.481,2.254
							c-0.345,1.289-1.837,1.317-3.02,0.966c-1.734-0.526-3.38-1.54-4.805-2.85C310.191,201.844,309.827,201.154,309.471,200.46z"/>
					</g>
					<g>
						<path style="fill:#FFFFFF;stroke:#3C3C3B;stroke-linecap:round;stroke-linejoin:round;stroke-miterlimit:10;" d="
							M309.471,200.46c-1.761,1.014-3.524,3.089-4.136,5.101c-0.185,0.617-0.268,1.252-0.18,1.894
							c0.092,0.641,0.45,1.265,1.021,1.554c1.062,0.539,2.247-0.268,2.91-1.245c0.978-1.423,1.518-3.275,1.412-5.204
							C310.191,201.844,309.827,201.154,309.471,200.46z"/>
					</g>
				</g>
				<g>
					<g>
						<path style="fill:#FFFFFF;stroke:#3C3C3B;stroke-linecap:round;stroke-linejoin:round;stroke-miterlimit:10;" d="
							M312.826,208.35c0.969-0.285,2.148-0.374,3.328-0.202c1.189,0.168,2.361,0.608,3.267,1.358
							c0.559,0.454,1.101,1.017,1.455,1.74c0.322,0.731,0.427,1.642,0.143,2.303c-0.529,1.228-2.007,1.044-3.125,0.529
							c-0.82-0.382-1.603-0.884-2.317-1.48c-0.748-0.588-1.435-1.267-2.028-2.023C313.352,209.819,313.064,209.092,312.826,208.35z"
							/>
					</g>
					<g>
						<path style="fill:#FFFFFF;stroke:#3C3C3B;stroke-linecap:round;stroke-linejoin:round;stroke-miterlimit:10;" d="
							M312.826,208.35c-1.9,0.759-3.914,2.556-4.816,4.464c-0.266,0.584-0.467,1.208-0.439,1.848
							c-0.004,0.648,0.256,1.318,0.777,1.686c0.97,0.685,2.26,0.053,3.058-0.821c0.585-0.637,1.077-1.391,1.459-2.234
							c0.349-0.834,0.579-1.753,0.684-2.72C313.352,209.819,313.064,209.092,312.826,208.35z"/>
					</g>
				</g>
				<g>
					<g>
						<path style="fill:#FFFFFF;stroke:#3C3C3B;stroke-linecap:round;stroke-linejoin:round;stroke-miterlimit:10;" d="
							M315.033,216.635c1.98-0.295,4.751,0.33,6.367,2.077c0.485,0.529,0.935,1.163,1.18,1.928c0.262,0.764,0.191,1.683-0.176,2.296
							c-0.706,1.141-2.14,0.752-3.167,0.084c-1.477-0.992-2.847-2.418-3.796-4.082L315.033,216.635z"/>
					</g>
					<g>
						<path style="fill:#FFFFFF;stroke:#3C3C3B;stroke-linecap:round;stroke-linejoin:round;stroke-miterlimit:10;" d="
							M315.033,216.635c-1.978,0.481-4.268,1.982-5.398,3.739c-0.349,0.541-0.644,1.132-0.71,1.771
							c-0.05,0.637,0.068,1.343,0.539,1.781c0.855,0.817,2.225,0.371,3.145-0.383c1.378-1.098,2.34-2.717,2.832-4.605
							L315.033,216.635z"/>
					</g>
				</g>
			</g>
			<g>
				<g>
					<g>
						<g>
							<path style="fill:#FFFFFF;stroke:#3C3C3B;stroke-linecap:round;stroke-linejoin:round;stroke-miterlimit:10;" d="
								M194.794,221.354c-1.985-0.303-4.426-1.714-5.472-3.862c-0.306-0.648-0.547-1.386-0.552-2.19
								c-0.022-0.807,0.3-1.669,0.842-2.145c1.014-0.882,2.268-0.086,3.05,0.855c1.117,1.385,2.01,3.153,2.426,5.021
								L194.794,221.354z"/>
						</g>
						<g>
							<path style="fill:#FFFFFF;stroke:#3C3C3B;stroke-linecap:round;stroke-linejoin:round;stroke-miterlimit:10;" d="
								M194.794,221.354c2.027,0.123,4.679-0.633,6.259-1.982c0.495-0.414,0.953-0.891,1.207-1.48
								c0.238-0.593,0.317-1.305,0.006-1.859c-0.573-1.031-2.015-1.011-3.118-0.563c-1.642,0.64-3.034,1.905-4.06,3.564
								L194.794,221.354z"/>
						</g>
					</g>
					<g>
						<g>
							<path style="fill:#FFFFFF;stroke:#3C3C3B;stroke-linecap:round;stroke-linejoin:round;stroke-miterlimit:10;" d="
								M196.327,212.917c-1.931-0.582-4.108-2.312-4.868-4.596c-0.212-0.685-0.338-1.448-0.225-2.243
								c0.104-0.798,0.509-1.62,1.131-2.007c1.135-0.727,2.261,0.237,2.898,1.278c0.454,0.763,0.846,1.618,1.139,2.518
								c0.303,0.903,0.44,1.829,0.565,2.8L196.327,212.917z"/>
						</g>
						<g>
							<path style="fill:#FFFFFF;stroke:#3C3C3B;stroke-linecap:round;stroke-linejoin:round;stroke-miterlimit:10;" d="
								M196.327,212.917c1.981,0.405,4.753,0.043,6.479-1.076c0.549-0.339,1.077-0.744,1.416-1.29
								c0.331-0.549,0.473-1.255,0.262-1.841c-0.415-1.099-1.848-1.285-3.008-0.999c-0.859,0.202-1.671,0.566-2.428,1.068
								c-0.748,0.505-1.509,1.126-2.083,1.889L196.327,212.917z"/>
						</g>
					</g>
					<g>
						<g>
							<path style="fill:#FFFFFF;stroke:#3C3C3B;stroke-linecap:round;stroke-linejoin:round;stroke-miterlimit:10;" d="
								M199.057,204.787c-1.85-0.859-3.75-2.875-4.17-5.239c-0.139-0.721-0.132-1.482,0.088-2.254
								c0.231-0.767,0.724-1.536,1.399-1.828c1.23-0.557,2.207,0.556,2.687,1.674c0.337,0.816,0.628,1.732,0.776,2.656
								c0.155,0.928,0.188,1.877,0.166,2.853C199.69,203.362,199.345,204.063,199.057,204.787z"/>
						</g>
						<g>
							<path style="fill:#FFFFFF;stroke:#3C3C3B;stroke-linecap:round;stroke-linejoin:round;stroke-miterlimit:10;" d="
								M199.057,204.787c1.883,0.673,4.689,0.712,6.566-0.149c0.564-0.271,1.169-0.586,1.578-1.08
								c0.421-0.489,0.638-1.181,0.517-1.789c-0.251-1.145-1.645-1.532-2.837-1.415c-0.884,0.076-1.715,0.335-2.551,0.717
								c-0.829,0.386-1.642,0.906-2.326,1.577C199.69,203.362,199.345,204.063,199.057,204.787z"/>
						</g>
					</g>
					<g>
						<g>
							<path style="fill:#FFFFFF;stroke:#3C3C3B;stroke-linecap:round;stroke-linejoin:round;stroke-miterlimit:10;" d="
								M202.905,197.124c-1.707-1.11-3.323-3.385-3.391-5.774c-0.036-0.733,0.065-1.493,0.4-2.221
								c0.342-0.723,0.933-1.417,1.639-1.614c1.298-0.376,2.108,0.861,2.425,2.035c0.233,0.866,0.381,1.804,0.398,2.74
								c0.013,0.934-0.07,1.89-0.236,2.849C203.729,195.801,203.278,196.439,202.905,197.124z"/>
						</g>
						<g>
							<path style="fill:#FFFFFF;stroke:#3C3C3B;stroke-linecap:round;stroke-linejoin:round;stroke-miterlimit:10;" d="
								M202.905,197.124c1.772,0.933,4.525,1.356,6.521,0.777c0.598-0.189,1.227-0.425,1.712-0.851
								c0.491-0.422,0.8-1.08,0.761-1.701c-0.085-1.167-1.412-1.747-2.611-1.799c-0.872-0.039-1.743,0.092-2.624,0.354
								c-0.885,0.258-1.746,0.671-2.524,1.235C203.729,195.801,203.278,196.439,202.905,197.124z"/>
						</g>
					</g>
					<g>
						<g>
							<path style="fill:#FFFFFF;stroke:#3C3C3B;stroke-linecap:round;stroke-linejoin:round;stroke-miterlimit:10;" d="
								M207.79,190.078c-0.758-0.667-1.468-1.619-1.959-2.713c-0.473-1.078-0.718-2.294-0.59-3.479
								c0.07-0.728,0.263-1.478,0.704-2.145c0.438-0.669,1.132-1.263,1.847-1.37c1.34-0.189,1.968,1.149,2.117,2.354
								c0.259,1.821-0.025,3.707-0.618,5.56C208.782,188.875,208.26,189.455,207.79,190.078z"/>
						</g>
						<g>
							<path style="fill:#FFFFFF;stroke:#3C3C3B;stroke-linecap:round;stroke-linejoin:round;stroke-miterlimit:10;" d="
								M207.79,190.078c0.816,0.595,1.889,1.082,3.004,1.384c1.134,0.315,2.314,0.452,3.344,0.299
								c0.621-0.101,1.265-0.258,1.812-0.606c0.544-0.35,0.953-0.949,0.991-1.58c0.081-1.166-1.153-1.926-2.334-2.147
								c-1.673-0.283-3.618-0.046-5.316,0.856C208.782,188.875,208.26,189.455,207.79,190.078z"/>
						</g>
					</g>
					<g>
						<g>
							<path style="fill:#FFFFFF;stroke:#3C3C3B;stroke-linecap:round;stroke-linejoin:round;stroke-miterlimit:10;" d="
								M213.613,183.785c-1.325-1.532-2.269-4.189-1.659-6.487c0.175-0.705,0.461-1.434,0.995-2.028
								c0.526-0.602,1.305-1.082,2.019-1.101c1.357,0.005,1.785,1.408,1.771,2.632c-0.003,1.834-0.541,3.67-1.391,5.417
								C214.755,182.723,214.168,183.236,213.613,183.785z"/>
						</g>
						<g>
							<path style="fill:#FFFFFF;stroke:#3C3C3B;stroke-linecap:round;stroke-linejoin:round;stroke-miterlimit:10;" d="
								M213.613,183.785c1.451,1.396,3.957,2.541,6.051,2.554c0.634-0.008,1.283-0.086,1.877-0.349
								c0.587-0.272,1.084-0.795,1.2-1.428c0.247-1.138-0.876-2.073-2.007-2.447c-1.622-0.52-3.574-0.548-5.386,0.103
								C214.755,182.723,214.168,183.236,213.613,183.785z"/>
						</g>
					</g>
					<g>
						<g>
							<path style="fill:#FFFFFF;stroke:#3C3C3B;stroke-linecap:round;stroke-linejoin:round;stroke-miterlimit:10;" d="
								M220.258,178.367c-1.093-1.695-1.665-4.472-0.734-6.655c0.278-0.665,0.654-1.363,1.268-1.872
								c0.607-0.521,1.447-0.884,2.158-0.802c1.337,0.184,1.563,1.632,1.383,2.854c-0.267,1.805-1.049,3.56-2.14,5.164
								C221.531,177.466,220.888,177.906,220.258,178.367z"/>
						</g>
						<g>
							<path style="fill:#FFFFFF;stroke:#3C3C3B;stroke-linecap:round;stroke-linejoin:round;stroke-miterlimit:10;" d="
								M220.258,178.367c1.246,1.592,3.559,3.063,5.633,3.376c0.634,0.09,1.278,0.088,1.904-0.085
								c0.62-0.185,1.186-0.63,1.391-1.239c0.397-1.103-0.583-2.188-1.643-2.704c-1.539-0.754-3.459-1.043-5.349-0.658
								C221.531,177.466,220.888,177.906,220.258,178.367z"/>
						</g>
					</g>
					<g>
						<g>
							<path style="fill:#FFFFFF;stroke:#3C3C3B;stroke-linecap:round;stroke-linejoin:round;stroke-miterlimit:10;" d="
								M227.597,173.934c-0.84-1.822-1.023-4.671,0.211-6.692c0.372-0.613,0.84-1.257,1.519-1.679
								c0.676-0.427,1.561-0.665,2.254-0.481c1.289,0.345,1.317,1.837,0.966,3.02c-0.526,1.734-1.54,3.38-2.85,4.805
								C228.98,173.214,228.291,173.578,227.597,173.934z"/>
						</g>
						<g>
							<path style="fill:#FFFFFF;stroke:#3C3C3B;stroke-linecap:round;stroke-linejoin:round;stroke-miterlimit:10;" d="
								M227.597,173.934c1.014,1.761,3.089,3.524,5.101,4.136c0.617,0.185,1.252,0.268,1.894,0.18
								c0.641-0.092,1.265-0.45,1.554-1.021c0.539-1.062-0.268-2.247-1.245-2.91c-1.423-0.978-3.275-1.518-5.204-1.412
								C228.98,173.214,228.291,173.578,227.597,173.934z"/>
						</g>
					</g>
					<g>
						<g>
							<path style="fill:#FFFFFF;stroke:#3C3C3B;stroke-linecap:round;stroke-linejoin:round;stroke-miterlimit:10;" d="
								M235.487,170.579c-0.285-0.969-0.374-2.148-0.202-3.328c0.168-1.189,0.608-2.361,1.358-3.267
								c0.454-0.559,1.017-1.101,1.74-1.455c0.731-0.322,1.642-0.427,2.303-0.143c1.228,0.529,1.044,2.007,0.529,3.126
								c-0.382,0.82-0.884,1.603-1.48,2.317c-0.588,0.748-1.267,1.435-2.023,2.028C236.956,170.053,236.229,170.341,235.487,170.579
								z"/>
						</g>
						<g>
							<path style="fill:#FFFFFF;stroke:#3C3C3B;stroke-linecap:round;stroke-linejoin:round;stroke-miterlimit:10;" d="
								M235.487,170.579c0.76,1.9,2.556,3.914,4.464,4.816c0.584,0.266,1.208,0.466,1.848,0.439
								c0.648,0.004,1.318-0.256,1.686-0.777c0.685-0.97,0.053-2.261-0.821-3.058c-0.637-0.585-1.391-1.077-2.234-1.459
								c-0.834-0.349-1.753-0.579-2.72-0.684C236.956,170.053,236.229,170.341,235.487,170.579z"/>
						</g>
					</g>
					<g>
						<g>
							<path style="fill:#FFFFFF;stroke:#3C3C3B;stroke-linecap:round;stroke-linejoin:round;stroke-miterlimit:10;" d="
								M243.772,168.372c-0.295-1.981,0.33-4.751,2.076-6.367c0.529-0.485,1.163-0.935,1.928-1.18
								c0.764-0.262,1.683-0.191,2.296,0.176c1.141,0.706,0.752,2.14,0.084,3.167c-0.992,1.477-2.418,2.847-4.082,3.796
								L243.772,168.372z"/>
						</g>
						<g>
							<path style="fill:#FFFFFF;stroke:#3C3C3B;stroke-linecap:round;stroke-linejoin:round;stroke-miterlimit:10;" d="
								M243.772,168.372c0.481,1.978,1.981,4.268,3.739,5.398c0.541,0.349,1.132,0.644,1.771,0.71
								c0.637,0.049,1.344-0.068,1.781-0.539c0.817-0.855,0.371-2.225-0.383-3.145c-1.098-1.378-2.717-2.34-4.605-2.832
								L243.772,168.372z"/>
						</g>
					</g>
				</g>
				<path style="fill:#3C3C3B;" d="M316.585,227.835c-0.018-12.538-4.056-25.06-11.37-35.26
					c-7.297-10.273-17.808-18.189-29.597-22.291c-5.079-1.771-10.22-2.863-15.273-3.246c-1.533-0.148-3.094-0.182-4.603-0.215
					c0,0-0.65-0.004-0.77-0.004h-0.001c-12.537,0.018-25.059,4.057-35.259,11.371c-10.274,7.297-18.191,17.808-22.291,29.597
					c-1.771,5.081-2.863,10.221-3.246,15.272c-0.147,1.523-0.181,3.072-0.214,4.57l-0.005,0.247
					c-0.003,0.102-0.002,0.423,0.001,0.556c0.018,12.537,4.056,25.059,11.37,35.26c7.297,10.273,17.808,18.189,29.596,22.291
					c5.08,1.771,10.22,2.863,15.273,3.246c1.533,0.148,3.094,0.182,4.602,0.215l0.227,0.005c0.099,0,0.417-0.001,0.532-0.001h0.012
					c12.536-0.018,25.059-4.057,35.259-11.371c10.274-7.298,18.191-17.809,22.291-29.597c1.771-5.082,2.864-10.222,3.247-15.273
					c0.147-1.533,0.181-3.093,0.214-4.602l0.005-0.216C316.588,228.291,316.587,227.969,316.585,227.835z M315.666,228.379
					l-0.005,0.247c-0.032,1.479-0.066,3.008-0.211,4.505c-0.902,11.318-5.2,22.524-12.102,31.555
					c-6.896,9.081-16.543,16.229-27.163,20.127c-6.635,2.427-13.572,3.677-20.624,3.715c-0.117,0.003-0.438,0.004-0.537,0.001
					l-0.25-0.005c-1.477-0.032-3.005-0.066-4.501-0.21c-11.319-0.903-22.525-5.202-31.555-12.103
					c-9.082-6.895-16.229-16.542-20.127-27.163c-2.427-6.636-3.677-13.572-3.715-20.623c-0.003-0.116-0.003-0.438-0.001-0.536
					l0.006-0.265c0.032-1.473,0.066-2.996,0.21-4.487c0.903-11.318,5.201-22.525,12.102-31.555
					c6.895-9.081,16.542-16.229,27.164-20.127c6.634-2.427,13.571-3.677,20.623-3.715c0.117-0.003,0.786,0.004,0.786,0.004
					c1.478,0.032,3.005,0.066,4.503,0.21c11.319,0.904,22.525,5.202,31.554,12.103c9.082,6.896,16.23,16.542,20.128,27.163
					c2.426,6.634,3.676,13.571,3.715,20.623C315.667,227.959,315.668,228.28,315.666,228.379z"/>
			</g>
		</g>
		<g>
			<g>
				<path style="fill:#FFFFFF;stroke:#3C3C3B;stroke-linecap:round;stroke-linejoin:round;stroke-miterlimit:10;" d="M256.68,189.96
					c-0.774-0.787-2.043-0.787-2.818,0l-27.475,27.926c-0.704,0.716-1.099,1.679-1.099,2.683v33.725c0,1.2,0.973,2.173,2.173,2.173
					h55.621c1.2,0,2.173-0.973,2.173-2.173v-33.725c0-1.004-0.395-1.968-1.099-2.683L256.68,189.96z"/>
				<path style="fill:#FFFFFF;stroke:#3C3C3B;stroke-linecap:round;stroke-linejoin:round;stroke-miterlimit:10;" d="
					M227.46,254.831c-0.296,0-0.537-0.241-0.537-0.537v-33.725c0-0.579,0.224-1.124,0.629-1.536l27.475-27.926
					c0.083-0.084,0.178-0.102,0.244-0.102c0.065,0,0.16,0.018,0.243,0.102l27.475,27.926c0.406,0.412,0.629,0.958,0.629,1.536
					v33.725c0,0.296-0.241,0.537-0.537,0.537H227.46z"/>
				<path style="fill:#FFFFFF;stroke:#3C3C3B;stroke-linecap:round;stroke-linejoin:round;stroke-miterlimit:10;" d="
					M226.944,220.35c-0.007,0.073-0.021,0.144-0.021,0.218v33.725c0,0.296,0.24,0.537,0.537,0.537h55.621
					c0.296,0,0.537-0.241,0.537-0.537v-33.725c0-0.074-0.014-0.146-0.021-0.218H226.944z"/>
			</g>
			<g>
				
					<rect x="234.521" y="196.331" style="fill:#FFFFFF;stroke:#3C3C3B;stroke-linecap:round;stroke-linejoin:round;stroke-miterlimit:10;" width="41.499" height="55.111"/>
				<g>
					<g>
						
							<rect x="240.416" y="211.826" style="fill:#3C3C3B;stroke:#FFFFFF;stroke-linecap:round;stroke-linejoin:round;stroke-miterlimit:10;" width="30.937" height="0.16"/>
					</g>
					<g>
						
							<rect x="240.416" y="213.537" style="fill:#3C3C3B;stroke:#FFFFFF;stroke-linecap:round;stroke-linejoin:round;stroke-miterlimit:10;" width="30.937" height="0.16"/>
					</g>
					<g>
						
							<rect x="240.416" y="215.249" style="fill:#3C3C3B;stroke:#FFFFFF;stroke-linecap:round;stroke-linejoin:round;stroke-miterlimit:10;" width="30.937" height="0.16"/>
					</g>
					<g>
						
							<rect x="240.416" y="216.96" style="fill:#3C3C3B;stroke:#FFFFFF;stroke-linecap:round;stroke-linejoin:round;stroke-miterlimit:10;" width="30.937" height="0.16"/>
					</g>
					<g>
						
							<rect x="240.416" y="218.672" style="fill:#3C3C3B;stroke:#FFFFFF;stroke-linecap:round;stroke-linejoin:round;stroke-miterlimit:10;" width="30.937" height="0.16"/>
					</g>
					<g>
						
							<rect x="240.416" y="220.383" style="fill:#3C3C3B;stroke:#FFFFFF;stroke-linecap:round;stroke-linejoin:round;stroke-miterlimit:10;" width="30.937" height="0.16"/>
					</g>
					<g>
						
							<rect x="240.416" y="222.095" style="fill:#3C3C3B;stroke:#FFFFFF;stroke-linecap:round;stroke-linejoin:round;stroke-miterlimit:10;" width="30.937" height="0.16"/>
					</g>
					<g>
						
							<rect x="240.416" y="223.806" style="fill:#3C3C3B;stroke:#FFFFFF;stroke-linecap:round;stroke-linejoin:round;stroke-miterlimit:10;" width="30.937" height="0.16"/>
					</g>
					<g>
						
							<rect x="240.416" y="225.518" style="fill:#3C3C3B;stroke:#FFFFFF;stroke-linecap:round;stroke-linejoin:round;stroke-miterlimit:10;" width="30.937" height="0.16"/>
					</g>
					<g>
						
							<rect x="240.416" y="227.229" style="fill:#3C3C3B;stroke:#FFFFFF;stroke-linecap:round;stroke-linejoin:round;stroke-miterlimit:10;" width="30.937" height="0.16"/>
					</g>
					<g>
						
							<rect x="240.416" y="228.941" style="fill:#3C3C3B;stroke:#FFFFFF;stroke-linecap:round;stroke-linejoin:round;stroke-miterlimit:10;" width="30.937" height="0.16"/>
					</g>
					<g>
						
							<rect x="240.416" y="230.652" style="fill:#3C3C3B;stroke:#FFFFFF;stroke-linecap:round;stroke-linejoin:round;stroke-miterlimit:10;" width="30.937" height="0.16"/>
					</g>
					<g>
						
							<rect x="240.416" y="232.363" style="fill:#3C3C3B;stroke:#FFFFFF;stroke-linecap:round;stroke-linejoin:round;stroke-miterlimit:10;" width="30.937" height="0.16"/>
					</g>
					<g>
						
							<rect x="240.416" y="234.075" style="fill:#3C3C3B;stroke:#FFFFFF;stroke-linecap:round;stroke-linejoin:round;stroke-miterlimit:10;" width="30.937" height="0.16"/>
					</g>
					<g>
						
							<rect x="240.416" y="235.786" style="fill:#3C3C3B;stroke:#FFFFFF;stroke-linecap:round;stroke-linejoin:round;stroke-miterlimit:10;" width="30.937" height="0.16"/>
					</g>
				</g>
				<g>
					
						<path style="fill:#FFFFFF;stroke:#3C3C3B;stroke-width:0.7361;stroke-linecap:round;stroke-linejoin:round;stroke-miterlimit:10;" d="
						M257.789,201.447c-0.704,0-1.307,0.429-1.564,1.039c-0.257-0.61-0.86-1.039-1.564-1.039c-0.936,0-1.696,0.759-1.696,1.696
						c0,2.29,3.259,3.854,3.259,3.854s3.259-1.652,3.259-3.854C259.484,202.206,258.725,201.447,257.789,201.447z"/>
					
						<path style="fill:#FFFFFF;stroke:#3C3C3B;stroke-width:0.7361;stroke-linecap:round;stroke-linejoin:round;stroke-miterlimit:10;" d="
						M254.908,203.162c-0.562,0-1.044,0.342-1.249,0.829c-0.205-0.487-0.687-0.829-1.249-0.829c-0.748,0-1.354,0.606-1.354,1.354
						c0,1.829,2.603,3.077,2.603,3.077s2.603-1.319,2.603-3.077C256.262,203.768,255.656,203.162,254.908,203.162z"/>
				</g>
			</g>
			<g>
				<path style="fill:#FFFFFF;stroke:#3C3C3B;stroke-linecap:round;stroke-linejoin:round;stroke-miterlimit:10;" d="
					M225.288,220.759v33.534c0,1.2,0.973,2.173,2.173,2.173h55.621c1.2,0,2.173-0.973,2.173-2.173v-33.534l-29.983,17.854
					L225.288,220.759z"/>
				<path style="fill:#FFFFFF;stroke:#3C3C3B;stroke-linecap:round;stroke-linejoin:round;stroke-miterlimit:10;" d="
					M225.288,254.294c0,1.2,0.973,2.173,2.173,2.173h55.621c1.2,0,2.173-0.973,2.173-2.173l-29.983-15.681L225.288,254.294z"/>
			</g>
		</g>
	</g>
</svg>
