<?xml version="1.0" encoding="utf-8"?>
<svg xmlns="http://www.w3.org/2000/svg" viewBox="283.883 392.881 164.68 47.209" role="img" aria-label="Wedding ornament 01">
<g>
		<g>
			<g>
				<g>
					<path style="fill:#FFFFFF;stroke:#3C3C3B;stroke-linecap:round;stroke-linejoin:round;stroke-miterlimit:10;" d="
						M362.53,401.669c0.456,2.188,0.156,5.186-1.084,7.045c-0.378,0.567-0.84,1.099-1.442,1.418s-1.366,0.391-1.957,0.054
						c-1.101-0.626-1.097-2.225-0.711-3.432c0.566-1.769,1.646-3.37,3.074-4.557L362.53,401.669z"/>
					<path style="fill:#FFFFFF;stroke:#3C3C3B;stroke-linecap:round;stroke-linejoin:round;stroke-miterlimit:10;" d="
						M362.53,401.669c-0.623-2.146-2.295-4.653-4.263-5.713c-0.6-0.323-1.257-0.577-1.939-0.575
						c-0.681,0.001-1.389,0.295-1.754,0.871c-0.679,1.07,0.076,2.479,0.983,3.364c1.329,1.297,3.034,2.204,4.852,2.582
						L362.53,401.669z"/>
				</g>
				<g>
					<path style="fill:#FFFFFF;stroke:#3C3C3B;stroke-linecap:round;stroke-linejoin:round;stroke-miterlimit:10;" d="
						M353.867,402.35c0.645,2.14,0.607,5.153-0.467,7.113c-0.327,0.597-0.741,1.168-1.313,1.538
						c-0.572,0.37-1.326,0.508-1.945,0.224c-1.152-0.528-1.286-2.121-1.007-3.357c0.409-1.811,1.346-3.5,2.665-4.807L353.867,402.35
						z"/>
					<path style="fill:#FFFFFF;stroke:#3C3C3B;stroke-linecap:round;stroke-linejoin:round;stroke-miterlimit:10;" d="
						M353.867,402.35c-0.808-2.083-2.691-4.436-4.744-5.32c-0.626-0.27-1.303-0.465-1.981-0.404
						c-0.678,0.061-1.358,0.415-1.672,1.02c-0.583,1.125,0.291,2.463,1.272,3.266c1.437,1.176,3.215,1.931,5.059,2.15
						L353.867,402.35z"/>
				</g>
				<g>
					<path style="fill:#FFFFFF;stroke:#3C3C3B;stroke-linecap:round;stroke-linejoin:round;stroke-miterlimit:10;" d="
						M345.995,404.8c0.908,2.042,1.249,5.036,0.429,7.115c-0.25,0.634-0.589,1.252-1.11,1.69c-0.521,0.439-1.252,0.671-1.902,0.467
						c-1.209-0.379-1.542-1.943-1.42-3.204c0.179-1.848,0.896-3.641,2.042-5.103L345.995,404.8z"/>
					<path style="fill:#FFFFFF;stroke:#3C3C3B;stroke-linecap:round;stroke-linejoin:round;stroke-miterlimit:10;" d="
						M345.995,404.8c-1.063-1.966-3.227-4.063-5.374-4.683c-0.654-0.189-1.351-0.298-2.016-0.153
						c-0.665,0.145-1.296,0.582-1.531,1.221c-0.437,1.189,0.598,2.408,1.671,3.081c1.573,0.986,3.431,1.513,5.288,1.498
						L345.995,404.8z"/>
				</g>
				<g>
					<path style="fill:#FFFFFF;stroke:#3C3C3B;stroke-linecap:round;stroke-linejoin:round;stroke-miterlimit:10;" d="
						M338.867,408.847c0.945,2.025,1.34,5.012,0.559,7.106c-0.238,0.638-0.566,1.262-1.079,1.71
						c-0.513,0.448-1.24,0.693-1.893,0.501c-1.216-0.357-1.577-1.915-1.478-3.178c0.145-1.851,0.83-3.657,1.948-5.14
						L338.867,408.847z"/>
					<path style="fill:#FFFFFF;stroke:#3C3C3B;stroke-linecap:round;stroke-linejoin:round;stroke-miterlimit:10;" d="
						M338.867,408.847c-1.099-1.946-3.3-4.004-5.458-4.584c-0.658-0.177-1.356-0.273-2.019-0.116
						c-0.663,0.157-1.285,0.606-1.508,1.249c-0.416,1.197,0.642,2.396,1.727,3.05c1.591,0.958,3.458,1.45,5.315,1.401
						L338.867,408.847z"/>
				</g>
				<g>
					<path style="fill:#FFFFFF;stroke:#3C3C3B;stroke-linecap:round;stroke-linejoin:round;stroke-miterlimit:10;" d="
						M332.159,413.68c0.873,2.057,1.162,5.057,0.307,7.121c-0.261,0.629-0.61,1.242-1.139,1.671
						c-0.529,0.429-1.263,0.649-1.91,0.434c-1.202-0.4-1.508-1.969-1.365-3.228c0.211-1.845,0.959-3.625,2.129-5.067L332.159,413.68
						z"/>
					<path style="fill:#FFFFFF;stroke:#3C3C3B;stroke-linecap:round;stroke-linejoin:round;stroke-miterlimit:10;" d="
						M332.159,413.68c-1.029-1.984-3.156-4.118-5.292-4.775c-0.651-0.2-1.345-0.321-2.013-0.187
						c-0.668,0.134-1.305,0.56-1.551,1.195c-0.458,1.181,0.556,2.417,1.618,3.109c1.556,1.014,3.405,1.572,5.262,1.589
						L332.159,413.68z"/>
				</g>
				<g>
					<path style="fill:#FFFFFF;stroke:#3C3C3B;stroke-linecap:round;stroke-linejoin:round;stroke-miterlimit:10;" d="
						M325.506,418.477c0.817,2.08,1.025,5.086,0.115,7.127c-0.278,0.622-0.643,1.225-1.183,1.64c-0.54,0.415-1.28,0.615-1.921,0.382
						c-1.191-0.432-1.455-2.009-1.277-3.264c0.26-1.839,1.056-3.598,2.265-5.008L325.506,418.477z"/>
					<path style="fill:#FFFFFF;stroke:#3C3C3B;stroke-linecap:round;stroke-linejoin:round;stroke-miterlimit:10;" d="
						M325.506,418.477c-0.975-2.011-3.044-4.202-5.162-4.915c-0.645-0.218-1.336-0.357-2.008-0.242
						c-0.671,0.116-1.32,0.525-1.583,1.153c-0.49,1.169,0.491,2.431,1.534,3.151c1.528,1.055,3.361,1.663,5.217,1.73
						L325.506,418.477z"/>
				</g>
				<g>
					<path style="fill:#FFFFFF;stroke:#3C3C3B;stroke-linecap:round;stroke-linejoin:round;stroke-miterlimit:10;" d="
						M318.72,422.811c0.645,2.14,0.607,5.153-0.467,7.113c-0.327,0.597-0.741,1.168-1.313,1.538
						c-0.572,0.37-1.326,0.508-1.945,0.224c-1.152-0.528-1.286-2.121-1.007-3.357c0.409-1.811,1.346-3.5,2.665-4.807L318.72,422.811
						z"/>
					<path style="fill:#FFFFFF;stroke:#3C3C3B;stroke-linecap:round;stroke-linejoin:round;stroke-miterlimit:10;" d="
						M318.72,422.811c-0.808-2.083-2.691-4.436-4.744-5.32c-0.625-0.27-1.303-0.465-1.981-0.404
						c-0.678,0.061-1.358,0.415-1.672,1.02c-0.583,1.125,0.291,2.463,1.272,3.266c1.437,1.176,3.215,1.931,5.059,2.15
						L318.72,422.811z"/>
				</g>
				<g>
					<path style="fill:#FFFFFF;stroke:#3C3C3B;stroke-linecap:round;stroke-linejoin:round;stroke-miterlimit:10;" d="
						M311.441,425.393c0.593,2.155,0.482,5.166-0.639,7.099c-0.342,0.589-0.769,1.15-1.35,1.505
						c-0.581,0.356-1.338,0.476-1.95,0.177c-1.139-0.556-1.234-2.152-0.925-3.38c0.453-1.801,1.43-3.467,2.781-4.741
						L311.441,425.393z"/>
					<path style="fill:#FFFFFF;stroke:#3C3C3B;stroke-linecap:round;stroke-linejoin:round;stroke-miterlimit:10;" d="
						M311.441,425.393c-0.757-2.103-2.583-4.5-4.613-5.434c-0.619-0.285-1.291-0.496-1.971-0.452
						c-0.68,0.044-1.368,0.382-1.696,0.979c-0.61,1.11,0.231,2.47,1.192,3.296c1.408,1.211,3.167,2.009,5.005,2.272L311.441,425.393
						z"/>
				</g>
				<g>
					<path style="fill:#FFFFFF;stroke:#3C3C3B;stroke-linecap:round;stroke-linejoin:round;stroke-miterlimit:10;" d="
						M303.726,427.202c0.44,2.191,0.117,5.187-1.137,7.037c-0.382,0.564-0.848,1.093-1.453,1.407
						c-0.604,0.314-1.368,0.381-1.958,0.04c-1.097-0.635-1.08-2.233-0.685-3.437c0.579-1.765,1.671-3.357,3.108-4.533
						L303.726,427.202z"/>
					<path style="fill:#FFFFFF;stroke:#3C3C3B;stroke-linecap:round;stroke-linejoin:round;stroke-miterlimit:10;" d="
						M303.726,427.202c-0.607-2.15-2.26-4.67-4.22-5.745c-0.597-0.327-1.253-0.586-1.934-0.59c-0.681-0.004-1.392,0.285-1.761,0.857
						c-0.687,1.065,0.057,2.48,0.957,3.372c1.319,1.307,3.017,2.227,4.833,2.618L303.726,427.202z"/>
				</g>
				<g>
					<path style="fill:#FFFFFF;stroke:#3C3C3B;stroke-linecap:round;stroke-linejoin:round;stroke-miterlimit:10;" d="
						M295.573,428.991c0.375,2.203-0.037,5.188-1.346,7c-0.399,0.552-0.88,1.067-1.494,1.363c-0.614,0.296-1.379,0.34-1.958-0.019
						c-1.077-0.667-1.013-2.264-0.582-3.456c0.631-1.747,1.77-3.306,3.241-4.439L295.573,428.991z"/>
					<path style="fill:#FFFFFF;stroke:#3C3C3B;stroke-linecap:round;stroke-linejoin:round;stroke-miterlimit:10;" d="
						M295.573,428.991c-0.543-2.168-2.12-4.736-4.047-5.868c-0.587-0.345-1.235-0.623-1.916-0.647
						c-0.681-0.024-1.399,0.243-1.785,0.805c-0.718,1.044-0.017,2.48,0.857,3.398c1.28,1.345,2.95,2.315,4.753,2.761
						L295.573,428.991z"/>
				</g>
			</g>
			<path style="fill:none;stroke:#3C3C3B;stroke-linecap:round;stroke-linejoin:round;stroke-miterlimit:10;" d="M286.383,430.272
				c9.295-1.425,18.697-2.869,27.533-6.216c9.109-3.451,16.363-9.51,24.342-14.895c9.323-6.293,20.111-8.154,32.623-6.973"/>
		</g>
		<g>
			<g>
				<g>
					<path style="fill:#FFFFFF;stroke:#3C3C3B;stroke-linecap:round;stroke-linejoin:round;stroke-miterlimit:10;" d="
						M369.916,401.669c-0.456,2.188-0.156,5.186,1.084,7.045c0.378,0.567,0.84,1.099,1.442,1.418s1.366,0.391,1.958,0.054
						c1.101-0.626,1.096-2.225,0.711-3.432c-0.566-1.769-1.646-3.37-3.074-4.557L369.916,401.669z"/>
					<path style="fill:#FFFFFF;stroke:#3C3C3B;stroke-linecap:round;stroke-linejoin:round;stroke-miterlimit:10;" d="
						M369.916,401.669c0.623-2.146,2.295-4.653,4.263-5.713c0.6-0.323,1.257-0.577,1.938-0.575c0.681,0.001,1.389,0.295,1.754,0.871
						c0.679,1.07-0.076,2.479-0.983,3.364c-1.329,1.297-3.034,2.204-4.852,2.582L369.916,401.669z"/>
				</g>
				<g>
					<path style="fill:#FFFFFF;stroke:#3C3C3B;stroke-linecap:round;stroke-linejoin:round;stroke-miterlimit:10;" d="
						M378.578,402.35c-0.645,2.14-0.607,5.153,0.466,7.113c0.327,0.597,0.741,1.168,1.313,1.538c0.572,0.37,1.326,0.508,1.945,0.224
						c1.152-0.528,1.286-2.121,1.007-3.357c-0.409-1.811-1.346-3.5-2.665-4.807L378.578,402.35z"/>
					<path style="fill:#FFFFFF;stroke:#3C3C3B;stroke-linecap:round;stroke-linejoin:round;stroke-miterlimit:10;" d="
						M378.578,402.35c0.808-2.083,2.691-4.436,4.744-5.32c0.626-0.27,1.303-0.465,1.981-0.404c0.678,0.061,1.358,0.415,1.672,1.02
						c0.583,1.125-0.291,2.463-1.272,3.266c-1.437,1.176-3.215,1.931-5.059,2.15L378.578,402.35z"/>
				</g>
				<g>
					<path style="fill:#FFFFFF;stroke:#3C3C3B;stroke-linecap:round;stroke-linejoin:round;stroke-miterlimit:10;" d="
						M386.451,404.8c-0.908,2.042-1.249,5.036-0.429,7.115c0.25,0.634,0.589,1.252,1.11,1.69c0.521,0.439,1.252,0.671,1.902,0.467
						c1.209-0.379,1.542-1.943,1.42-3.204c-0.179-1.848-0.896-3.641-2.042-5.103L386.451,404.8z"/>
					<path style="fill:#FFFFFF;stroke:#3C3C3B;stroke-linecap:round;stroke-linejoin:round;stroke-miterlimit:10;" d="
						M386.451,404.8c1.063-1.966,3.227-4.063,5.374-4.683c0.654-0.189,1.351-0.298,2.016-0.153c0.665,0.145,1.296,0.582,1.531,1.221
						c0.437,1.189-0.598,2.408-1.671,3.081c-1.573,0.986-3.431,1.513-5.288,1.498L386.451,404.8z"/>
				</g>
				<g>
					<path style="fill:#FFFFFF;stroke:#3C3C3B;stroke-linecap:round;stroke-linejoin:round;stroke-miterlimit:10;" d="
						M393.579,408.847c-0.945,2.025-1.34,5.012-0.559,7.106c0.238,0.638,0.566,1.262,1.079,1.71c0.513,0.448,1.24,0.693,1.893,0.501
						c1.215-0.357,1.577-1.915,1.478-3.178c-0.145-1.851-0.83-3.657-1.948-5.14L393.579,408.847z"/>
					<path style="fill:#FFFFFF;stroke:#3C3C3B;stroke-linecap:round;stroke-linejoin:round;stroke-miterlimit:10;" d="
						M393.579,408.847c1.099-1.946,3.3-4.004,5.458-4.584c0.658-0.177,1.356-0.273,2.019-0.116c0.663,0.157,1.285,0.606,1.508,1.249
						c0.416,1.197-0.641,2.396-1.727,3.05c-1.591,0.958-3.458,1.45-5.315,1.401L393.579,408.847z"/>
				</g>
				<g>
					<path style="fill:#FFFFFF;stroke:#3C3C3B;stroke-linecap:round;stroke-linejoin:round;stroke-miterlimit:10;" d="
						M400.286,413.68c-0.873,2.057-1.162,5.057-0.306,7.121c0.261,0.629,0.61,1.242,1.139,1.671c0.529,0.429,1.263,0.649,1.91,0.434
						c1.202-0.4,1.508-1.969,1.364-3.228c-0.211-1.845-0.959-3.625-2.129-5.067L400.286,413.68z"/>
					<path style="fill:#FFFFFF;stroke:#3C3C3B;stroke-linecap:round;stroke-linejoin:round;stroke-miterlimit:10;" d="
						M400.286,413.68c1.029-1.984,3.156-4.118,5.292-4.775c0.651-0.2,1.346-0.321,2.013-0.187c0.668,0.134,1.305,0.56,1.551,1.195
						c0.458,1.181-0.556,2.417-1.618,3.109c-1.556,1.014-3.405,1.572-5.262,1.589L400.286,413.68z"/>
				</g>
				<g>
					<path style="fill:#FFFFFF;stroke:#3C3C3B;stroke-linecap:round;stroke-linejoin:round;stroke-miterlimit:10;" d="
						M406.94,418.477c-0.817,2.08-1.025,5.086-0.115,7.127c0.278,0.622,0.643,1.225,1.184,1.64c0.54,0.415,1.28,0.615,1.92,0.382
						c1.191-0.432,1.455-2.009,1.277-3.264c-0.26-1.839-1.056-3.598-2.265-5.008L406.94,418.477z"/>
					<path style="fill:#FFFFFF;stroke:#3C3C3B;stroke-linecap:round;stroke-linejoin:round;stroke-miterlimit:10;" d="
						M406.94,418.477c0.975-2.011,3.044-4.202,5.162-4.915c0.646-0.218,1.336-0.357,2.008-0.242c0.671,0.116,1.32,0.525,1.583,1.153
						c0.49,1.169-0.491,2.431-1.534,3.151c-1.528,1.055-3.361,1.663-5.217,1.73L406.94,418.477z"/>
				</g>
				<g>
					<path style="fill:#FFFFFF;stroke:#3C3C3B;stroke-linecap:round;stroke-linejoin:round;stroke-miterlimit:10;" d="
						M413.726,422.811c-0.645,2.14-0.607,5.153,0.467,7.113c0.327,0.597,0.741,1.168,1.313,1.538
						c0.572,0.37,1.326,0.508,1.945,0.224c1.152-0.528,1.286-2.121,1.007-3.357c-0.409-1.811-1.346-3.5-2.665-4.807L413.726,422.811
						z"/>
					<path style="fill:#FFFFFF;stroke:#3C3C3B;stroke-linecap:round;stroke-linejoin:round;stroke-miterlimit:10;" d="
						M413.726,422.811c0.808-2.083,2.692-4.436,4.744-5.32c0.626-0.27,1.303-0.465,1.981-0.404c0.678,0.061,1.358,0.415,1.672,1.02
						c0.583,1.125-0.291,2.463-1.272,3.266c-1.437,1.176-3.214,1.931-5.059,2.15L413.726,422.811z"/>
				</g>
				<g>
					<path style="fill:#FFFFFF;stroke:#3C3C3B;stroke-linecap:round;stroke-linejoin:round;stroke-miterlimit:10;" d="
						M421.005,425.393c-0.593,2.155-0.482,5.166,0.639,7.099c0.342,0.589,0.769,1.15,1.35,1.505c0.581,0.356,1.338,0.476,1.95,0.177
						c1.139-0.556,1.234-2.152,0.925-3.38c-0.453-1.801-1.431-3.467-2.781-4.741L421.005,425.393z"/>
					<path style="fill:#FFFFFF;stroke:#3C3C3B;stroke-linecap:round;stroke-linejoin:round;stroke-miterlimit:10;" d="
						M421.005,425.393c0.757-2.103,2.583-4.5,4.613-5.434c0.619-0.285,1.291-0.496,1.971-0.452c0.68,0.044,1.368,0.382,1.696,0.979
						c0.61,1.11-0.231,2.47-1.192,3.296c-1.408,1.211-3.167,2.009-5.005,2.272L421.005,425.393z"/>
				</g>
				<g>
					<path style="fill:#FFFFFF;stroke:#3C3C3B;stroke-linecap:round;stroke-linejoin:round;stroke-miterlimit:10;" d="
						M428.719,427.202c-0.44,2.191-0.117,5.187,1.137,7.037c0.382,0.564,0.848,1.093,1.453,1.407
						c0.604,0.314,1.368,0.381,1.958,0.04c1.097-0.635,1.08-2.233,0.685-3.437c-0.579-1.765-1.671-3.357-3.108-4.533
						L428.719,427.202z"/>
					<path style="fill:#FFFFFF;stroke:#3C3C3B;stroke-linecap:round;stroke-linejoin:round;stroke-miterlimit:10;" d="
						M428.719,427.202c0.607-2.15,2.26-4.67,4.22-5.745c0.597-0.327,1.253-0.586,1.934-0.59c0.681-0.004,1.391,0.285,1.761,0.857
						c0.687,1.065-0.057,2.48-0.957,3.372c-1.32,1.307-3.018,2.227-4.833,2.618L428.719,427.202z"/>
				</g>
				<g>
					<path style="fill:#FFFFFF;stroke:#3C3C3B;stroke-linecap:round;stroke-linejoin:round;stroke-miterlimit:10;" d="
						M436.873,428.991c-0.375,2.203,0.037,5.188,1.346,7c0.399,0.552,0.88,1.067,1.494,1.363c0.613,0.296,1.379,0.34,1.958-0.019
						c1.077-0.667,1.013-2.264,0.582-3.456c-0.631-1.747-1.77-3.306-3.241-4.439L436.873,428.991z"/>
					<path style="fill:#FFFFFF;stroke:#3C3C3B;stroke-linecap:round;stroke-linejoin:round;stroke-miterlimit:10;" d="
						M436.873,428.991c0.543-2.168,2.12-4.736,4.047-5.868c0.587-0.345,1.235-0.623,1.916-0.647
						c0.681-0.024,1.399,0.243,1.785,0.805c0.718,1.044,0.017,2.48-0.857,3.398c-1.28,1.345-2.95,2.315-4.753,2.761L436.873,428.991
						z"/>
				</g>
			</g>
			<path style="fill:none;stroke:#3C3C3B;stroke-linecap:round;stroke-linejoin:round;stroke-miterlimit:10;" d="M446.063,430.272
				c-9.296-1.425-18.698-2.869-27.533-6.216c-9.109-3.451-16.363-9.51-24.342-14.895c-9.323-6.293-20.111-8.154-32.623-6.973"/>
		</g>
	</g>
</svg>
