<?xml version="1.0" encoding="utf-8"?>
<svg xmlns="http://www.w3.org/2000/svg" viewBox="349.458 163.655 125.388 124.585" role="img" aria-label="Wedding ornament 06">
<g>
		<g>
			<g>
				<g>
					<path style="fill:#FFFFFF;stroke:#3C3C3B;stroke-linecap:round;stroke-linejoin:round;stroke-miterlimit:10;" d="
						M418.985,218.12c3.085-4.815,8.399-7.622,13.291-10.583c8.287-5.014,14.164-13.033,10.892-23.088
						c-4.175-12.826-21.766-12.601-25.977,0.01c-4.21-12.611-21.802-12.836-25.977-0.01c-3.273,10.055,2.604,18.074,10.892,23.088
						c4.893,2.96,10.207,5.768,13.291,10.583l1.794,3.513L418.985,218.12z"/>
				</g>
				<path style="fill:none;stroke:#3C3C3B;stroke-linecap:round;stroke-linejoin:round;stroke-miterlimit:10;" d="M428.073,179.345
					c2.592-0.375,5.329,0.395,7.346,2.065c2.017,1.67,3.284,4.215,3.399,6.832"/>
			</g>
			<g>
				<g>
					<path style="fill:#FFFFFF;stroke:#3C3C3B;stroke-linecap:round;stroke-linejoin:round;stroke-miterlimit:10;" d="
						M399.659,219.253c2.09-3.263,5.691-5.165,9.007-7.171c5.616-3.398,9.599-8.832,7.381-15.646
						c-2.829-8.692-14.75-8.539-17.603,0.007c-2.853-8.546-14.774-8.698-17.603-0.007c-2.218,6.814,1.765,12.248,7.381,15.646
						c3.316,2.006,6.917,3.908,9.007,7.171l1.215,2.38L399.659,219.253z"/>
				</g>
				<path style="fill:none;stroke:#3C3C3B;stroke-linecap:round;stroke-linejoin:round;stroke-miterlimit:10;" d="M405.817,192.976
					c1.757-0.254,3.611,0.267,4.978,1.399c1.367,1.132,2.225,2.856,2.303,4.63"/>
			</g>
		</g>
		<g>
			<g>
				<g>
					<path style="fill:none;stroke:#3C3C3B;stroke-linecap:round;stroke-linejoin:round;stroke-miterlimit:10;" d="M365.094,168.62
						c-5.623,7.407-7.202,16.879-6.184,25.965c2.008,17.935,10.833,35.723,23.184,48.733c9.255,9.749,19.355,19.184,24.614,31.896"
						/>
					<g>
						<path style="fill:#FFFFFF;stroke:#3C3C3B;stroke-linecap:round;stroke-linejoin:round;stroke-miterlimit:10;" d="
							M358.941,166.536c0.843-0.677,2.109-0.352,2.915,0.206c1.149,0.795,1.63,2.117,1.808,3.45c0.102,0.14,0.001,0.406-0.229,0.38
							c-1.493-0.173-3.134-0.394-4.229-1.537C358.553,168.353,358.06,167.244,358.941,166.536z"/>
						<path style="fill:#FFFFFF;stroke:#3C3C3B;stroke-linecap:round;stroke-linejoin:round;stroke-miterlimit:10;" d="
							M368.928,174.13c0.447-0.984-0.181-2.131-0.92-2.773c-1.054-0.917-2.454-1.056-3.79-0.899
							c-0.161-0.064-0.394,0.099-0.311,0.316c0.537,1.404,1.157,2.939,2.535,3.718C367.264,174.955,368.461,175.159,368.928,174.13z
							"/>
						<path style="fill:#FFFFFF;stroke:#3C3C3B;stroke-linecap:round;stroke-linejoin:round;stroke-miterlimit:10;" d="
							M354.488,177.03c1.072-0.656,2.502-0.184,3.462,0.523c1.048,0.705,1.494,1.928,1.602,3.128
							c-0.218,0.339-0.65,0.809-1.245,0.749c-1.543-0.155-3.3-0.457-4.166-1.767C353.584,178.819,353.461,177.659,354.488,177.03z"
							/>
						<path style="fill:#FFFFFF;stroke:#3C3C3B;stroke-linecap:round;stroke-linejoin:round;stroke-miterlimit:10;" d="
							M366.175,181.274c-0.282-1.225-1.621-1.915-2.797-2.105c-1.237-0.254-2.423,0.284-3.355,1.047
							c-0.089,0.393-0.123,1.03,0.337,1.413c1.191,0.992,2.637,2.036,4.179,1.736C365.531,183.172,366.445,182.447,366.175,181.274z
							"/>
						<path style="fill:#FFFFFF;stroke:#3C3C3B;stroke-linecap:round;stroke-linejoin:round;stroke-miterlimit:10;" d="
							M353.131,187.386c1.309-0.629,2.895-0.016,4.009,0.84c0.946,0.614,1.358,1.739,1.397,2.805
							c-0.538,0.537-1.301,1.21-2.262,1.119c-1.591-0.151-3.452-0.545-4.102-1.997C351.716,189.132,351.968,187.945,353.131,187.386
							z"/>
						<path style="fill:#FFFFFF;stroke:#3C3C3B;stroke-linecap:round;stroke-linejoin:round;stroke-miterlimit:10;" d="
							M365.196,191.389c-0.888,1.15-2.58,1.313-3.96,1.047c-1.121-0.125-1.994-0.945-2.507-1.881c0.24-0.722,0.62-1.665,1.52-2.014
							c1.49-0.579,3.33-1.061,4.562-0.055C365.677,189.194,365.985,190.368,365.196,191.389z"/>
						<path style="fill:#FFFFFF;stroke:#3C3C3B;stroke-linecap:round;stroke-linejoin:round;stroke-miterlimit:10;" d="
							M353.967,197.432c1.551-0.595,3.287,0.151,4.556,1.157c0.845,0.524,1.222,1.55,1.191,2.483
							c-0.858,0.736-1.951,1.609-3.278,1.488c-1.639-0.15-3.586-0.647-4.038-2.227C352.052,199.126,352.673,197.929,353.967,197.432
							z"/>
						<path style="fill:#FFFFFF;stroke:#3C3C3B;stroke-linecap:round;stroke-linejoin:round;stroke-miterlimit:10;" d="
							M365.935,197.365c-1.447-0.816-3.274-0.333-4.676,0.476c-0.913,0.395-1.436,1.354-1.543,2.281
							c0.741,0.854,1.694,1.878,3.024,1.953c1.644,0.093,3.642-0.114,4.321-1.61C367.58,199.322,367.142,198.046,365.935,197.365z"
							/>
						<path style="fill:#FFFFFF;stroke:#3C3C3B;stroke-linecap:round;stroke-linejoin:round;stroke-miterlimit:10;" d="
							M356.27,207.907c1.795-0.554,3.68,0.319,5.103,1.474c0.744,0.434,1.087,1.361,0.986,2.161
							c-1.178,0.935-2.602,2.007-4.294,1.858c-1.688-0.149-3.704-0.754-3.975-2.457C353.867,209.545,354.845,208.346,356.27,207.907
							z"/>
						<path style="fill:#FFFFFF;stroke:#3C3C3B;stroke-linecap:round;stroke-linejoin:round;stroke-miterlimit:10;" d="
							M366.799,205.408c-1.873,0.145-3.305,1.651-4.202,3.248c-0.532,0.677-0.509,1.665-0.122,2.372
							c1.439,0.436,3.158,0.909,4.676,0.147c1.515-0.759,3.167-2.064,2.792-3.747C369.636,206.048,368.285,205.293,366.799,205.408z
							"/>
						<path style="fill:#FFFFFF;stroke:#3C3C3B;stroke-linecap:round;stroke-linejoin:round;stroke-miterlimit:10;" d="
							M360.399,218.622c2.04-0.507,4.073,0.487,5.65,1.792c0.643,0.344,0.95,1.172,0.78,1.838c-1.498,1.133-3.252,2.403-5.31,2.227
							c-1.736-0.148-3.81-0.859-3.911-2.687C357.52,220.206,358.846,219.008,360.399,218.622z"/>
						<path style="fill:#FFFFFF;stroke:#3C3C3B;stroke-linecap:round;stroke-linejoin:round;stroke-miterlimit:10;" d="
							M369.825,214.775c-1.91,0.878-2.876,2.924-3.293,4.928c-0.287,0.67-0.01,1.509,0.539,1.923
							c1.878-0.051,4.041-0.155,5.538-1.578c1.263-1.2,2.439-3.051,1.376-4.541C373.062,214.214,371.279,214.107,369.825,214.775z"
							/>
						<path style="fill:#FFFFFF;stroke:#3C3C3B;stroke-linecap:round;stroke-linejoin:round;stroke-miterlimit:10;" d="
							M366.716,229.388c2.285-0.456,4.466,0.655,6.197,2.109c0.541,0.254,0.815,0.983,0.575,1.516
							c-1.818,1.332-3.903,2.798-6.327,2.597c-1.784-0.148-3.908-0.96-3.847-2.917C363.369,230.921,365.033,229.724,366.716,229.388
							z"/>
						<path style="fill:#FFFFFF;stroke:#3C3C3B;stroke-linecap:round;stroke-linejoin:round;stroke-miterlimit:10;" d="
							M376.111,225.299c-1.962,1.256-2.764,3.568-3.003,5.816c-0.214,0.558,0.095,1.273,0.637,1.491
							c2.233-0.301,4.752-0.69,6.359-2.516c1.183-1.344,2.151-3.402,0.75-4.769C379.585,224.083,377.557,224.374,376.111,225.299z"
							/>
						<path style="fill:#FFFFFF;stroke:#3C3C3B;stroke-linecap:round;stroke-linejoin:round;stroke-miterlimit:10;" d="
							M374.831,240.475c2.529-0.401,4.859,0.822,6.744,2.426c0.44,0.164,0.679,0.794,0.369,1.194
							c-2.138,1.53-4.552,3.187-7.343,2.966c-1.832-0.151-4.002-1.056-3.783-3.147C371.022,241.959,373.017,240.762,374.831,240.475
							z"/>
						<path style="fill:#FFFFFF;stroke:#3C3C3B;stroke-linecap:round;stroke-linejoin:round;stroke-miterlimit:10;" d="
							M382.311,235.559c-1.506,2.071-1.474,4.702-0.902,7.11c-0.054,0.467,0.399,0.965,0.896,0.871
							c2.335-1.21,4.907-2.608,5.978-5.194c0.698-1.701,0.877-4.045-1.085-4.8C385.363,232.84,383.39,234.074,382.311,235.559z"/>
						<path style="fill:#FFFFFF;stroke:#3C3C3B;stroke-linecap:round;stroke-linejoin:round;stroke-miterlimit:10;" d="
							M380.107,255.146c0.358-2.133,2.68-3.333,4.624-3.573c2.773-0.343,5.251,0.99,7.291,2.743
							c0.339,0.073,0.543,0.605,0.164,0.871c-2.458,1.729-5.203,3.584-8.359,3.336C381.946,258.375,379.734,257.375,380.107,255.146
							z"/>
						<path style="fill:#FFFFFF;stroke:#3C3C3B;stroke-linecap:round;stroke-linejoin:round;stroke-miterlimit:10;" d="
							M398.382,243.893c-2.063-0.65-4.186,0.873-5.284,2.496c-1.565,2.314-1.503,5.128-0.868,7.741
							c-0.089,0.335,0.292,0.758,0.702,0.542c2.657-1.404,5.556-3.007,6.769-5.932C400.423,246.998,400.538,244.573,398.382,243.893
							z"/>
					</g>
				</g>
				<g>
					<path style="fill:none;stroke:#3C3C3B;stroke-linecap:round;stroke-linejoin:round;stroke-miterlimit:10;" d="M459.21,168.62
						c5.623,7.407,7.202,16.879,6.184,25.965c-2.008,17.935-10.834,35.723-23.184,48.733c-9.255,9.749-19.355,19.184-24.614,31.896"
						/>
					<g>
						<path style="fill:#FFFFFF;stroke:#3C3C3B;stroke-linecap:round;stroke-linejoin:round;stroke-miterlimit:10;" d="
							M465.363,166.536c-0.843-0.677-2.109-0.352-2.915,0.206c-1.149,0.795-1.63,2.117-1.808,3.45
							c-0.102,0.14-0.001,0.406,0.229,0.38c1.492-0.173,3.134-0.394,4.229-1.537C465.752,168.353,466.245,167.244,465.363,166.536z"
							/>
						<path style="fill:#FFFFFF;stroke:#3C3C3B;stroke-linecap:round;stroke-linejoin:round;stroke-miterlimit:10;" d="
							M455.377,174.13c-0.447-0.984,0.181-2.131,0.92-2.773c1.054-0.917,2.455-1.056,3.79-0.899
							c0.161-0.064,0.394,0.099,0.311,0.316c-0.537,1.404-1.157,2.939-2.535,3.718C457.041,174.955,455.844,175.159,455.377,174.13z
							"/>
						<path style="fill:#FFFFFF;stroke:#3C3C3B;stroke-linecap:round;stroke-linejoin:round;stroke-miterlimit:10;" d="
							M469.817,177.03c-1.072-0.656-2.502-0.184-3.462,0.523c-1.047,0.705-1.494,1.928-1.602,3.128
							c0.218,0.339,0.65,0.809,1.245,0.749c1.543-0.155,3.3-0.457,4.166-1.767C470.721,178.819,470.844,177.659,469.817,177.03z"/>
						<path style="fill:#FFFFFF;stroke:#3C3C3B;stroke-linecap:round;stroke-linejoin:round;stroke-miterlimit:10;" d="
							M458.13,181.274c0.282-1.225,1.621-1.915,2.797-2.105c1.236-0.254,2.423,0.284,3.355,1.047
							c0.089,0.393,0.123,1.03-0.337,1.413c-1.191,0.992-2.637,2.036-4.179,1.736C458.774,183.172,457.86,182.447,458.13,181.274z"
							/>
						<path style="fill:#FFFFFF;stroke:#3C3C3B;stroke-linecap:round;stroke-linejoin:round;stroke-miterlimit:10;" d="
							M471.174,187.386c-1.309-0.629-2.895-0.016-4.009,0.84c-0.946,0.614-1.358,1.739-1.397,2.805
							c0.538,0.537,1.301,1.21,2.262,1.119c1.591-0.151,3.452-0.545,4.102-1.997C472.589,189.132,472.337,187.945,471.174,187.386z"
							/>
						<path style="fill:#FFFFFF;stroke:#3C3C3B;stroke-linecap:round;stroke-linejoin:round;stroke-miterlimit:10;" d="
							M459.109,191.389c0.888,1.15,2.58,1.313,3.96,1.047c1.121-0.125,1.994-0.945,2.507-1.881c-0.24-0.722-0.62-1.665-1.52-2.014
							c-1.49-0.579-3.33-1.061-4.562-0.055C458.628,189.194,458.32,190.368,459.109,191.389z"/>
						<path style="fill:#FFFFFF;stroke:#3C3C3B;stroke-linecap:round;stroke-linejoin:round;stroke-miterlimit:10;" d="
							M470.338,197.432c-1.551-0.595-3.288,0.151-4.556,1.157c-0.845,0.524-1.222,1.55-1.191,2.483
							c0.858,0.736,1.951,1.609,3.278,1.488c1.639-0.15,3.586-0.647,4.038-2.227C472.252,199.126,471.632,197.929,470.338,197.432z"
							/>
						<path style="fill:#FFFFFF;stroke:#3C3C3B;stroke-linecap:round;stroke-linejoin:round;stroke-miterlimit:10;" d="
							M458.37,197.365c1.447-0.816,3.274-0.333,4.676,0.476c0.913,0.395,1.437,1.354,1.543,2.281
							c-0.741,0.854-1.694,1.878-3.024,1.953c-1.644,0.093-3.642-0.114-4.321-1.61C456.725,199.322,457.163,198.046,458.37,197.365z
							"/>
						<path style="fill:#FFFFFF;stroke:#3C3C3B;stroke-linecap:round;stroke-linejoin:round;stroke-miterlimit:10;" d="
							M468.035,207.907c-1.795-0.554-3.68,0.319-5.103,1.474c-0.744,0.434-1.086,1.361-0.986,2.161
							c1.178,0.935,2.602,2.007,4.294,1.858c1.688-0.149,3.704-0.754,3.975-2.457C470.437,209.545,469.459,208.346,468.035,207.907z
							"/>
						<path style="fill:#FFFFFF;stroke:#3C3C3B;stroke-linecap:round;stroke-linejoin:round;stroke-miterlimit:10;" d="
							M457.506,205.408c1.873,0.145,3.305,1.651,4.203,3.248c0.532,0.677,0.509,1.665,0.122,2.372
							c-1.439,0.436-3.158,0.909-4.676,0.147c-1.515-0.759-3.167-2.064-2.792-3.747C454.669,206.048,456.02,205.293,457.506,205.408
							z"/>
						<path style="fill:#FFFFFF;stroke:#3C3C3B;stroke-linecap:round;stroke-linejoin:round;stroke-miterlimit:10;" d="
							M463.906,218.622c-2.04-0.507-4.073,0.487-5.65,1.792c-0.643,0.344-0.951,1.172-0.78,1.838
							c1.498,1.133,3.252,2.403,5.31,2.227c1.736-0.148,3.81-0.859,3.911-2.687C466.784,220.206,465.459,219.008,463.906,218.622z"
							/>
						<path style="fill:#FFFFFF;stroke:#3C3C3B;stroke-linecap:round;stroke-linejoin:round;stroke-miterlimit:10;" d="
							M454.48,214.775c1.91,0.878,2.876,2.924,3.293,4.928c0.287,0.67,0.01,1.509-0.539,1.923c-1.878-0.051-4.041-0.155-5.538-1.578
							c-1.263-1.2-2.439-3.051-1.376-4.541C451.243,214.214,453.026,214.107,454.48,214.775z"/>
						<path style="fill:#FFFFFF;stroke:#3C3C3B;stroke-linecap:round;stroke-linejoin:round;stroke-miterlimit:10;" d="
							M457.589,229.388c-2.285-0.456-4.466,0.655-6.197,2.109c-0.541,0.254-0.815,0.983-0.575,1.516
							c1.818,1.332,3.903,2.798,6.327,2.597c1.784-0.148,3.908-0.96,3.847-2.917C460.936,230.921,459.272,229.724,457.589,229.388z"
							/>
						<path style="fill:#FFFFFF;stroke:#3C3C3B;stroke-linecap:round;stroke-linejoin:round;stroke-miterlimit:10;" d="
							M448.194,225.299c1.962,1.256,2.764,3.568,3.003,5.816c0.214,0.558-0.095,1.273-0.637,1.491
							c-2.233-0.301-4.752-0.69-6.359-2.516c-1.183-1.344-2.151-3.402-0.75-4.769C444.72,224.083,446.748,224.374,448.194,225.299z"
							/>
						<path style="fill:#FFFFFF;stroke:#3C3C3B;stroke-linecap:round;stroke-linejoin:round;stroke-miterlimit:10;" d="
							M449.474,240.475c-2.529-0.401-4.859,0.822-6.744,2.426c-0.44,0.164-0.679,0.794-0.369,1.194
							c2.138,1.53,4.553,3.187,7.343,2.966c1.832-0.151,4.002-1.056,3.783-3.147C453.283,241.959,451.287,240.762,449.474,240.475z"
							/>
						<path style="fill:#FFFFFF;stroke:#3C3C3B;stroke-linecap:round;stroke-linejoin:round;stroke-miterlimit:10;" d="
							M441.994,235.559c1.506,2.071,1.474,4.702,0.903,7.11c0.054,0.467-0.399,0.965-0.896,0.871
							c-2.335-1.21-4.907-2.608-5.978-5.194c-0.698-1.701-0.877-4.045,1.085-4.8C438.942,232.84,440.914,234.074,441.994,235.559z"
							/>
						<path style="fill:#FFFFFF;stroke:#3C3C3B;stroke-linecap:round;stroke-linejoin:round;stroke-miterlimit:10;" d="
							M444.198,255.146c-0.358-2.133-2.68-3.333-4.624-3.573c-2.772-0.343-5.251,0.99-7.291,2.743
							c-0.339,0.073-0.543,0.605-0.164,0.871c2.458,1.729,5.203,3.584,8.359,3.336C442.359,258.375,444.571,257.375,444.198,255.146
							z"/>
						<path style="fill:#FFFFFF;stroke:#3C3C3B;stroke-linecap:round;stroke-linejoin:round;stroke-miterlimit:10;" d="
							M425.923,243.893c2.063-0.65,4.186,0.873,5.284,2.496c1.565,2.314,1.503,5.128,0.868,7.741
							c0.089,0.335-0.292,0.758-0.702,0.542c-2.657-1.404-5.556-3.007-6.769-5.932C423.882,246.998,423.767,244.573,425.923,243.893
							z"/>
					</g>
				</g>
			</g>
			<g>
				<g>
					
						<path style="fill:#FFFFFF;stroke:#3C3C3B;stroke-width:0.7673;stroke-linecap:round;stroke-linejoin:round;stroke-miterlimit:10;" d="
						M413.008,284.064c1.472-2.298,4.008-3.638,6.343-5.05c3.955-2.393,6.76-6.22,5.198-11.018
						c-1.992-6.121-10.387-6.013-12.397,0.005c-2.009-6.018-10.404-6.125-12.397-0.005c-1.562,4.798,1.243,8.625,5.198,11.018
						c2.335,1.413,4.871,2.752,6.343,5.05l0.856,1.676L413.008,284.064z"/>
				</g>
				
					<path style="fill:none;stroke:#3C3C3B;stroke-width:0.7673;stroke-linecap:round;stroke-linejoin:round;stroke-miterlimit:10;" d="
					M417.345,265.56c1.237-0.179,2.543,0.188,3.506,0.985c0.963,0.797,1.567,2.012,1.622,3.26"/>
			</g>
		</g>
	</g>
</svg>
