<?xml version="1.0" encoding="utf-8"?>
<svg xmlns="http://www.w3.org/2000/svg" viewBox="267.249 103.472 214.921 25.845" role="img" aria-label="Wedding ornament 09">
<g>
		<g>
			<g>
				<g>
					<path style="fill:#FFFFFF;stroke:#3C3C3B;stroke-linecap:round;stroke-linejoin:round;stroke-miterlimit:10;" d="
						M301.701,123.679l-4.525-4.021c-0.958-0.851-2.38-0.918-3.413-0.161l-4.882,3.578l0.99-15.368l12.82,0.604L301.701,123.679z"/>
					<path style="fill:#FFFFFF;stroke:#3C3C3B;stroke-linecap:round;stroke-linejoin:round;stroke-miterlimit:10;" d="
						M321.582,124.96l-4.381-3.893c-1.041-0.925-2.588-0.998-3.711-0.175l-4.727,3.464l0.99-15.368l12.82,0.604L321.582,124.96z"/>
					<path style="fill:#FFFFFF;stroke:#3C3C3B;stroke-linecap:round;stroke-linejoin:round;stroke-miterlimit:10;" d="
						M341.464,126.242l-4.159-3.696c-1.171-1.04-2.909-1.122-4.172-0.196l-4.488,3.289l0.99-15.368l12.82,0.603L341.464,126.242z"/>
					<path style="fill:#FFFFFF;stroke:#3C3C3B;stroke-linecap:round;stroke-linejoin:round;stroke-miterlimit:10;" d="
						M361.341,126.817l-4.128-3.668c-1.189-1.057-2.954-1.14-4.237-0.2l-4.454,3.264l0.99-15.368l12.82,0.604L361.341,126.817z"/>
					<path style="fill:#FFFFFF;stroke:#3C3C3B;stroke-linecap:round;stroke-linejoin:round;stroke-miterlimit:10;" d="
						M450.213,124.767l4.516-3.911c1.003-0.869,2.477-0.919,3.537-0.121l4.773,3.592l-0.723-15.379l-12.826,0.44L450.213,124.767z"
						/>
					<path style="fill:#FFFFFF;stroke:#3C3C3B;stroke-linecap:round;stroke-linejoin:round;stroke-miterlimit:10;" d="
						M430.317,125.795l4.19-3.629c1.193-1.034,2.947-1.094,4.208-0.144l4.429,3.333l-0.723-15.379l-12.826,0.44L430.317,125.795z"/>
					<path style="fill:#FFFFFF;stroke:#3C3C3B;stroke-linecap:round;stroke-linejoin:round;stroke-miterlimit:10;" d="
						M410.434,126.118l4.588-3.974c0.961-0.832,2.373-0.881,3.389-0.116l4.85,3.649l-0.723-15.379l-12.826,0.44L410.434,126.118z"/>
					<path style="fill:#FFFFFF;stroke:#3C3C3B;stroke-linecap:round;stroke-linejoin:round;stroke-miterlimit:10;" d="
						M382.791,126.356l-4.104-3.279c-1.365-1.091-3.307-1.08-4.661,0.025l-4.069,3.322l-0.112-15.391l12.834-0.068L382.791,126.356z
						"/>
					<path style="fill:#FFFFFF;stroke:#3C3C3B;stroke-linecap:round;stroke-linejoin:round;stroke-miterlimit:10;" d="
						M402.111,126.475l-4.124-3.295c-1.354-1.082-3.28-1.071-4.622,0.025l-4.088,3.338l-0.112-15.391l12.834-0.068L402.111,126.475z
						"/>
				</g>
			</g>
			<path style="fill:#FFFFFF;stroke:#3C3C3B;stroke-linecap:round;stroke-linejoin:round;stroke-miterlimit:10;" d="
				M269.749,105.972c0,0,50.714,5.481,113.62,5.363c41.185-0.077,76.793-2.38,96.301-3.942"/>
		</g>
		<g>
			<g>
				<g>
					<path style="fill:#3C3C3B;" d="M294.251,110.974c2.758,0.138,5.516,0.275,8.274,0.413c0.643,0.032,0.642-0.968,0-1
						c-2.758-0.138-5.516-0.275-8.274-0.413C293.608,109.941,293.61,110.941,294.251,110.974L294.251,110.974z"/>
				</g>
			</g>
			<g>
				<g>
					<path style="fill:#3C3C3B;" d="M297.648,113.108c1.53,0.076,3.059,0.153,4.589,0.229c0.643,0.032,0.642-0.968,0-1
						c-1.53-0.076-3.059-0.153-4.589-0.229C297.005,112.076,297.007,113.076,297.648,113.108L297.648,113.108z"/>
				</g>
			</g>
		</g>
		<g>
			<g>
				<g>
					<path style="fill:#3C3C3B;" d="M314.299,111.837c2.758,0.138,5.516,0.275,8.274,0.413c0.643,0.032,0.642-0.968,0-1
						c-2.758-0.138-5.516-0.275-8.274-0.413C313.655,110.805,313.657,111.805,314.299,111.837L314.299,111.837z"/>
				</g>
			</g>
			<g>
				<g>
					<path style="fill:#3C3C3B;" d="M317.696,113.971c1.53,0.076,3.059,0.153,4.589,0.229c0.643,0.032,0.641-0.968,0-1
						c-1.53-0.076-3.059-0.153-4.589-0.229C317.053,112.939,317.054,113.939,317.696,113.971L317.696,113.971z"/>
				</g>
			</g>
		</g>
		<g>
			<g>
				<g>
					<path style="fill:#3C3C3B;" d="M333.892,112.588c2.758,0.138,5.516,0.275,8.274,0.413c0.643,0.032,0.642-0.968,0-1
						c-2.758-0.138-5.516-0.275-8.274-0.413C333.249,111.556,333.251,112.556,333.892,112.588L333.892,112.588z"/>
				</g>
			</g>
			<g>
				<g>
					<path style="fill:#3C3C3B;" d="M337.29,114.723c1.53,0.076,3.059,0.153,4.589,0.229c0.643,0.032,0.641-0.968,0-1
						c-1.53-0.076-3.059-0.153-4.589-0.229C336.646,113.691,336.648,114.691,337.29,114.723L337.29,114.723z"/>
				</g>
			</g>
		</g>
		<g>
			<g>
				<g>
					<path style="fill:#3C3C3B;" d="M353.654,113.245c2.758,0.138,5.516,0.275,8.274,0.413c0.643,0.032,0.641-0.968,0-1
						c-2.758-0.138-5.516-0.276-8.274-0.413C353.011,112.213,353.012,113.213,353.654,113.245L353.654,113.245z"/>
				</g>
			</g>
			<g>
				<g>
					<path style="fill:#3C3C3B;" d="M357.051,115.38c1.53,0.076,3.059,0.153,4.589,0.229c0.643,0.032,0.642-0.968,0-1
						c-1.53-0.076-3.059-0.153-4.589-0.229C356.408,114.347,356.409,115.347,357.051,115.38L357.051,115.38z"/>
				</g>
			</g>
		</g>
		<g>
			<g>
				<g>
					<path style="fill:#3C3C3B;" d="M374.009,113.49c2.761-0.025,5.523-0.049,8.284-0.074c0.643-0.006,0.645-1.006,0-1
						c-2.761,0.025-5.523,0.049-8.284,0.074C373.366,112.496,373.364,113.496,374.009,113.49L374.009,113.49z"/>
				</g>
			</g>
			<g>
				<g>
					<path style="fill:#3C3C3B;" d="M377.526,115.421c1.531-0.014,3.063-0.027,4.594-0.041c0.643-0.006,0.645-1.006,0-1
						c-1.531,0.014-3.063,0.027-4.594,0.041C376.882,114.427,376.881,115.427,377.526,115.421L377.526,115.421z"/>
				</g>
			</g>
		</g>
		<g>
			<g>
				<g>
					<path style="fill:#3C3C3B;" d="M393.567,113.503c2.76,0.078,5.521,0.156,8.281,0.234c0.644,0.018,0.643-0.982,0-1
						c-2.76-0.078-5.521-0.156-8.281-0.234C392.923,112.485,392.923,113.485,393.567,113.503L393.567,113.503z"/>
				</g>
			</g>
			<g>
				<g>
					<path style="fill:#3C3C3B;" d="M397.009,115.563c1.531,0.043,3.062,0.087,4.593,0.13c0.644,0.018,0.643-0.982,0-1
						c-1.531-0.043-3.062-0.087-4.593-0.13C396.366,114.545,396.366,115.545,397.009,115.563L397.009,115.563z"/>
				</g>
			</g>
		</g>
		<g>
			<g>
				<g>
					<path style="fill:#3C3C3B;" d="M414.176,113.26c2.756-0.179,5.511-0.357,8.267-0.536c0.639-0.041,0.644-1.042,0-1
						c-2.756,0.179-5.511,0.358-8.267,0.536C413.537,112.301,413.532,113.301,414.176,113.26L414.176,113.26z"/>
				</g>
			</g>
			<g>
				<g>
					<path style="fill:#3C3C3B;" d="M417.795,114.991c1.528-0.099,3.057-0.198,4.585-0.298c0.639-0.041,0.644-1.042,0-1
						c-1.528,0.099-3.057,0.198-4.585,0.298C417.156,114.033,417.151,115.033,417.795,114.991L417.795,114.991z"/>
				</g>
			</g>
		</g>
		<g>
			<g>
				<g>
					<path style="fill:#3C3C3B;" d="M434.23,112.535c2.755-0.185,5.51-0.369,8.266-0.554c0.639-0.043,0.644-1.043,0-1
						c-2.755,0.185-5.51,0.369-8.266,0.554C433.591,111.577,433.586,112.578,434.23,112.535L434.23,112.535z"/>
				</g>
			</g>
			<g>
				<g>
					<path style="fill:#3C3C3B;" d="M437.853,114.259c1.528-0.102,3.056-0.205,4.584-0.307c0.639-0.043,0.644-1.043,0-1
						c-1.528,0.102-3.056,0.205-4.584,0.307C437.214,113.301,437.209,114.302,437.853,114.259L437.853,114.259z"/>
				</g>
			</g>
		</g>
		<g>
			<g>
				<g>
					<path style="fill:#3C3C3B;" d="M453.965,111.464c2.759-0.118,5.518-0.236,8.277-0.353c0.641-0.027,0.645-1.027,0-1
						c-2.759,0.118-5.518,0.235-8.277,0.353C453.324,110.491,453.321,111.491,453.965,111.464L453.965,111.464z"/>
				</g>
			</g>
			<g>
				<g>
					<path style="fill:#3C3C3B;" d="M457.545,113.275c1.53-0.065,3.06-0.131,4.591-0.196c0.641-0.027,0.645-1.027,0-1
						c-1.53,0.065-3.06,0.131-4.591,0.196C456.904,112.302,456.901,113.302,457.545,113.275L457.545,113.275z"/>
				</g>
			</g>
		</g>
	</g>
</svg>
