<?xml version="1.0" encoding="utf-8"?>
<svg xmlns="http://www.w3.org/2000/svg" viewBox="31.149 391.598 219.242 51.524" role="img" aria-label="Wedding ornament 10">
<g>
		<g>
			<g>
				<path style="fill:#3C3C3B;" d="M33.799,399.772c0,0.306,0.358,0.382,0.534,0.226c2.716,1.615,5.921,2.236,9.046,1.754
					c0.133-0.02,0.077-0.223-0.056-0.203c-3.074,0.474-6.231-0.151-8.899-1.74c0.001-0.012,0.004-0.023,0.004-0.036
					C34.43,399.367,33.8,399.366,33.799,399.772z"/>
				<path style="fill:#3C3C3B;" d="M33.792,406.667c0-0.306,0.359-0.381,0.535-0.225c2.719-1.609,5.926-2.224,9.05-1.736
					c0.133,0.021,0.076,0.223-0.056,0.203c-3.073-0.48-6.231,0.138-8.902,1.722c0.001,0.012,0.003,0.023,0.003,0.036
					C34.422,407.073,33.792,407.073,33.792,406.667z"/>
				<path style="fill:#3C3C3B;" d="M33.656,399.772c0,0.181,0.095,0.332,0.255,0.404c0.138,0.062,0.298,0.056,0.427-0.01
					c2.724,1.595,5.939,2.208,9.063,1.727c0.118-0.018,0.197-0.109,0.197-0.227c0-0.076-0.035-0.151-0.093-0.201
					c-0.056-0.048-0.129-0.068-0.203-0.057c-3.003,0.463-6.101-0.133-8.733-1.68c-0.022-0.264-0.24-0.402-0.456-0.403
					C33.887,399.325,33.657,399.478,33.656,399.772z"/>
				<path style="fill:#3C3C3B;" d="M33.905,406.263c-0.16,0.072-0.255,0.223-0.256,0.404c0,0.293,0.23,0.447,0.457,0.447
					c0.205,0,0.412-0.124,0.448-0.397c2.637-1.545,5.739-2.137,8.743-1.667c0.075,0.012,0.147-0.009,0.204-0.057
					c0.058-0.05,0.093-0.124,0.093-0.201c0-0.117-0.079-0.208-0.196-0.226c-3.123-0.488-6.34,0.119-9.067,1.708
					C34.203,406.207,34.043,406.201,33.905,406.263z"/>
				<path style="fill:#3C3C3B;" d="M34.044,402.784c-0.234,0.031-0.391,0.208-0.391,0.442c0,0.223,0.142,0.394,0.36,0.437
					c0.183,0.036,0.363-0.032,0.466-0.165c2.8,0.236,5.63,0.234,8.415-0.006c0.132-0.011,0.231-0.121,0.231-0.256
					c0-0.07-0.028-0.135-0.076-0.18c-0.048-0.044-0.111-0.064-0.179-0.058c-2.766,0.239-5.577,0.241-8.358,0.007
					C34.417,402.832,34.217,402.762,34.044,402.784z"/>
				<path style="fill:#3C3C3B;" d="M33.796,403.226c0,0.359,0.494,0.401,0.607,0.123c2.822,0.243,5.657,0.245,8.48,0.002
					c0.134-0.012,0.135-0.222,0-0.21c-2.819,0.243-5.65,0.242-8.469-0.001C34.33,402.824,33.796,402.852,33.796,403.226z"/>
			</g>
			<g>
				<g>
					<path style="fill:none;stroke:#3C3C3B;stroke-linecap:round;stroke-linejoin:round;stroke-miterlimit:10;" d="M67.231,403.093
						c-1.818,0.241-3.288,1.765-3.866,3.506c-0.578,1.741-0.39,3.651,0.087,5.422c1.283-1.032,2.545-2.149,3.36-3.579
						C67.627,407.011,67.231,403.093,67.231,403.093z"/>
					<path style="fill:none;stroke:#3C3C3B;stroke-linecap:round;stroke-linejoin:round;stroke-miterlimit:10;" d="M67.193,402.907
						c-1.824-0.186-3.34-1.664-3.97-3.387c-0.631-1.722-0.501-3.638-0.078-5.422c1.314,0.993,2.609,2.07,3.468,3.476
						C67.47,398.979,67.193,402.907,67.193,402.907z"/>
				</g>
			</g>
			<g>
				<g>
					<path style="fill:none;stroke:#3C3C3B;stroke-linecap:round;stroke-linejoin:round;stroke-miterlimit:10;" d="M98.519,416.829
						c-1.19-1.395-3.268-1.801-5.043-1.341c-1.775,0.46-3.278,1.656-4.506,3.018c1.564,0.516,3.187,0.97,4.831,0.877
						C95.445,419.29,98.519,416.829,98.519,416.829z"/>
					<path style="fill:none;stroke:#3C3C3B;stroke-linecap:round;stroke-linejoin:round;stroke-miterlimit:10;" d="M98.655,416.696
						c-0.835-1.633-0.417-3.708,0.687-5.173c1.103-1.465,2.782-2.397,4.51-3.011c-0.12,1.642-0.321,3.316-1.034,4.799
						C102.103,414.795,98.655,416.696,98.655,416.696z"/>
				</g>
			</g>
			<g>
				<g>
					<path style="fill:none;stroke:#3C3C3B;stroke-linecap:round;stroke-linejoin:round;stroke-miterlimit:10;" d="M105.518,427.479
						c-1.542-0.993-3.649-0.782-5.216,0.17c-1.567,0.953-2.661,2.531-3.444,4.189c1.646,0.043,3.331,0.01,4.878-0.554
						C103.285,430.722,105.518,427.479,105.518,427.479z"/>
					<path style="fill:none;stroke:#3C3C3B;stroke-linecap:round;stroke-linejoin:round;stroke-miterlimit:10;" d="M105.61,427.313
						c-1.27-1.323-1.468-3.431-0.835-5.151c0.634-1.721,1.973-3.097,3.45-4.184c0.359,1.607,0.649,3.267,0.394,4.894
						C108.363,424.498,105.61,427.313,105.61,427.313z"/>
				</g>
			</g>
			<g>
				<g>
					<path style="fill:none;stroke:#3C3C3B;stroke-linecap:round;stroke-linejoin:round;stroke-miterlimit:10;" d="M116.301,432.614
						c-1.83-0.122-3.571,1.082-4.481,2.675c-0.91,1.592-1.102,3.503-0.984,5.333c1.461-0.759,2.919-1.605,4-2.847
						C115.917,436.533,116.301,432.614,116.301,432.614z"/>
					<path style="fill:none;stroke:#3C3C3B;stroke-linecap:round;stroke-linejoin:round;stroke-miterlimit:10;" d="M116.301,432.424
						c-1.752-0.542-2.946-2.29-3.225-4.103c-0.279-1.813,0.226-3.665,0.992-5.331c1.092,1.232,2.15,2.544,2.714,4.091
						S116.301,432.424,116.301,432.424z"/>
				</g>
			</g>
			<g>
				<g>
					<path style="fill:#3C3C3B;" d="M52.977,404.492c8.216-1.347,17.955-1.977,25.872,0.933c2.748,1.01,5.207,2.633,6.552,5.316
						c2.027,4.042,1.929,9.535,0.539,13.771c-1.738,5.294-8.421,9.201-12.099,3.193c-2.215-3.618-2.125-8.594-0.787-12.499
						c1.489-4.348,4.807-7.968,9.345-9.109c4.025-1.013,8.681-0.078,11.572,3.022c2.929,3.141,3.843,7.709,5.869,11.418
						c1.788,3.274,4.1,6.343,7.044,8.664c4.856,3.829,11.171,5.016,16.839,2.237c4.536-2.224,9.114-8.816,5.243-13.646
						c-1.707-2.13-4.516-2.077-6.601-0.541c-2.407,1.773-3.296,4.807-2.092,7.543c3.586,8.144,14.854,6.176,20.669,2.156
						c0.526-0.363,0.026-1.231-0.505-0.863c-4.034,2.789-9.172,4.462-13.992,2.749c-4.555-1.619-8.559-7.911-2.969-11.128
						c2.883-1.659,5.436,0.603,5.749,3.536c0.252,2.358-0.664,4.704-2.204,6.475c-2.385,2.743-6.091,4.175-9.673,4.289
						c-8.859,0.281-15.096-7.98-18.249-15.302c-1.453-3.373-2.642-7.071-5.649-9.419c-2.308-1.802-5.263-2.636-8.17-2.57
						c-6.656,0.151-11.811,5.006-13.505,11.275c-1.376,5.095-0.8,14.159,5.586,15.667c7.596,1.793,10.419-7.796,10.521-13.424
						c0.107-5.898-2.2-10.996-7.748-13.369c-8.23-3.521-18.762-2.754-27.421-1.335C52.077,403.632,52.346,404.595,52.977,404.492
						L52.977,404.492z"/>
				</g>
			</g>
			
				<path style="fill:#FFFFFF;stroke:#3C3C3B;stroke-width:0.7123;stroke-linecap:round;stroke-linejoin:round;stroke-miterlimit:10;" d="
				M43.465,395.113c-0.627,0.136-1.126,0.491-1.336,1.203c-0.244,0.828,0.135,1.723,0.889,2.137
				c-1.294,0.717-1.278,2.526-0.003,3.225c-1.294,0.717-1.278,2.526-0.003,3.225c-1.294,0.717-1.277,2.526-0.003,3.225
				c-0.553,0.372-0.756,0.749-0.818,0.893c-0.167,0.389-0.193,0.833-0.074,1.239c0.288,0.989,1.154,1.289,2.097,1.306
				c2.546,0.048,5.225-0.146,7.381-1.646c4.106-2.857,4.11-10.353,0.013-13.216c-2.202-1.538-4.935-1.708-7.535-1.656
				C43.861,395.05,43.657,395.071,43.465,395.113z"/>
		</g>
		<g>
			<g>
				<path style="fill:#3C3C3B;" d="M247.742,399.772c0,0.306-0.358,0.382-0.534,0.226c-2.716,1.615-5.921,2.236-9.046,1.754
					c-0.133-0.02-0.077-0.223,0.056-0.203c3.074,0.474,6.231-0.151,8.899-1.74c-0.001-0.012-0.004-0.023-0.004-0.036
					C247.111,399.367,247.741,399.366,247.742,399.772z"/>
				<path style="fill:#3C3C3B;" d="M247.749,406.667c0-0.306-0.359-0.381-0.535-0.225c-2.719-1.609-5.926-2.224-9.05-1.736
					c-0.133,0.021-0.076,0.223,0.056,0.203c3.073-0.48,6.231,0.138,8.902,1.722c-0.001,0.012-0.003,0.023-0.003,0.036
					C247.119,407.073,247.749,407.073,247.749,406.667z"/>
				<path style="fill:#3C3C3B;" d="M247.884,399.772c0,0.181-0.095,0.332-0.255,0.404c-0.138,0.062-0.298,0.056-0.427-0.01
					c-2.724,1.595-5.939,2.208-9.063,1.727c-0.118-0.018-0.197-0.109-0.197-0.227c0-0.076,0.035-0.151,0.093-0.201
					c0.056-0.048,0.129-0.068,0.203-0.057c3.003,0.463,6.101-0.133,8.733-1.68c0.022-0.264,0.24-0.402,0.456-0.403
					C247.654,399.325,247.884,399.478,247.884,399.772z"/>
				<path style="fill:#3C3C3B;" d="M247.635,406.263c0.16,0.072,0.255,0.223,0.256,0.404c0,0.293-0.23,0.447-0.457,0.447
					c-0.204,0-0.411-0.124-0.448-0.397c-2.637-1.545-5.739-2.137-8.743-1.667c-0.075,0.012-0.147-0.009-0.204-0.057
					c-0.058-0.05-0.093-0.124-0.093-0.201c0-0.117,0.079-0.208,0.197-0.226c3.123-0.488,6.34,0.119,9.067,1.708
					C247.337,406.207,247.498,406.201,247.635,406.263z"/>
				<path style="fill:#3C3C3B;" d="M247.497,402.784c0.234,0.031,0.391,0.208,0.391,0.442c0,0.223-0.142,0.394-0.36,0.437
					c-0.183,0.036-0.364-0.032-0.466-0.165c-2.8,0.236-5.63,0.234-8.415-0.006c-0.132-0.011-0.231-0.121-0.231-0.256
					c0-0.07,0.028-0.135,0.076-0.18c0.048-0.044,0.111-0.064,0.179-0.058c2.766,0.239,5.577,0.241,8.358,0.007
					C247.123,402.832,247.323,402.762,247.497,402.784z"/>
				<path style="fill:#3C3C3B;" d="M247.745,403.226c0,0.359-0.494,0.401-0.607,0.123c-2.822,0.243-5.657,0.245-8.48,0.002
					c-0.134-0.012-0.135-0.222,0-0.21c2.819,0.243,5.65,0.242,8.469-0.001C247.211,402.824,247.745,402.852,247.745,403.226z"/>
			</g>
			<g>
				<g>
					<path style="fill:none;stroke:#3C3C3B;stroke-linecap:round;stroke-linejoin:round;stroke-miterlimit:10;" d="M214.31,403.093
						c1.818,0.241,3.288,1.765,3.865,3.506c0.578,1.741,0.39,3.651-0.087,5.422c-1.283-1.032-2.545-2.149-3.36-3.579
						C213.914,407.011,214.31,403.093,214.31,403.093z"/>
					<path style="fill:none;stroke:#3C3C3B;stroke-linecap:round;stroke-linejoin:round;stroke-miterlimit:10;" d="M214.348,402.907
						c1.824-0.186,3.34-1.664,3.97-3.387c0.631-1.722,0.501-3.638,0.079-5.422c-1.314,0.993-2.61,2.07-3.468,3.476
						C214.071,398.979,214.348,402.907,214.348,402.907z"/>
				</g>
			</g>
			<g>
				<g>
					<path style="fill:none;stroke:#3C3C3B;stroke-linecap:round;stroke-linejoin:round;stroke-miterlimit:10;" d="M183.022,416.829
						c1.19-1.395,3.268-1.801,5.043-1.341c1.775,0.46,3.277,1.656,4.505,3.018c-1.564,0.516-3.187,0.97-4.831,0.877
						C186.096,419.29,183.022,416.829,183.022,416.829z"/>
					<path style="fill:none;stroke:#3C3C3B;stroke-linecap:round;stroke-linejoin:round;stroke-miterlimit:10;" d="M182.886,416.696
						c0.835-1.633,0.417-3.708-0.687-5.173c-1.103-1.465-2.782-2.397-4.51-3.011c0.12,1.642,0.321,3.316,1.035,4.799
						C179.438,414.795,182.886,416.696,182.886,416.696z"/>
				</g>
			</g>
			<g>
				<g>
					<path style="fill:none;stroke:#3C3C3B;stroke-linecap:round;stroke-linejoin:round;stroke-miterlimit:10;" d="M176.022,427.479
						c1.542-0.993,3.649-0.782,5.216,0.17c1.567,0.953,2.661,2.531,3.444,4.189c-1.646,0.043-3.331,0.01-4.878-0.554
						C178.256,430.722,176.022,427.479,176.022,427.479z"/>
					<path style="fill:none;stroke:#3C3C3B;stroke-linecap:round;stroke-linejoin:round;stroke-miterlimit:10;" d="M175.931,427.313
						c1.27-1.323,1.468-3.431,0.834-5.151c-0.634-1.721-1.973-3.097-3.45-4.184c-0.359,1.607-0.649,3.267-0.394,4.894
						C173.177,424.498,175.931,427.313,175.931,427.313z"/>
				</g>
			</g>
			<g>
				<g>
					<path style="fill:none;stroke:#3C3C3B;stroke-linecap:round;stroke-linejoin:round;stroke-miterlimit:10;" d="M165.24,432.614
						c1.83-0.122,3.571,1.082,4.481,2.675c0.91,1.592,1.102,3.503,0.984,5.333c-1.461-0.759-2.919-1.605-4-2.847
						C165.624,436.533,165.24,432.614,165.24,432.614z"/>
					<path style="fill:none;stroke:#3C3C3B;stroke-linecap:round;stroke-linejoin:round;stroke-miterlimit:10;" d="M165.24,432.424
						c1.752-0.542,2.946-2.29,3.225-4.103c0.279-1.813-0.226-3.665-0.992-5.331c-1.092,1.232-2.15,2.544-2.714,4.091
						C164.194,428.628,165.24,432.424,165.24,432.424z"/>
				</g>
			</g>
			<g>
				<g>
					<path style="fill:#3C3C3B;" d="M228.83,403.528c-7.76-1.272-16.341-1.723-24.011,0.206c-5.12,1.288-9.29,4.054-10.634,9.432
						c-1.475,5.902-0.543,15.523,5.966,18.124c6.569,2.625,10.115-4.667,10.244-10.092c0.153-6.397-3.188-13.149-9.378-15.548
						c-6.216-2.41-13.105-0.097-16.264,5.792c-1.848,3.445-2.945,7.199-5.054,10.527c-2.299,3.629-5.392,6.906-9.34,8.727
						c-4.025,1.857-8.689,1.703-12.591-0.409c-3.799-2.056-7.691-7.748-4.37-11.859c2.297-2.844,6.198-0.532,7.152,2.284
						c0.975,2.877-0.946,5.65-3.343,7.121c-5.141,3.153-11.455,1.467-16.102-1.746c-0.531-0.367-1.031,0.5-0.505,0.863
						c5.597,3.87,14.61,5.644,19.542-0.347c1.617-1.964,2.243-4.566,1.086-6.912c-1.028-2.085-3.377-3.875-5.799-3.559
						c-6.322,0.825-4.207,9.659-1.205,12.737c4.057,4.159,10.702,5.189,15.973,2.983c6.788-2.841,10.946-9.375,13.646-15.915
						c1.816-4.399,3.901-8.552,8.889-9.823c4.313-1.099,8.94,0.098,12.132,3.203c3.132,3.046,4.635,7.574,4.532,11.883
						c-0.106,4.433-2.607,11.025-8.263,9.381c-5.382-1.564-6.545-8.306-6.474-13.116c0.058-3.942,1.27-7.99,4.631-10.324
						c5.027-3.491,12.166-3.67,18.057-3.575c3.74,0.06,7.523,0.324,11.218,0.93C229.194,404.595,229.464,403.632,228.83,403.528
						L228.83,403.528z"/>
				</g>
			</g>
			
				<path style="fill:#FFFFFF;stroke:#3C3C3B;stroke-width:0.7123;stroke-linecap:round;stroke-linejoin:round;stroke-miterlimit:10;" d="
				M238.076,395.113c0.627,0.136,1.126,0.491,1.336,1.203c0.244,0.828-0.135,1.723-0.889,2.137c1.294,0.717,1.277,2.526,0.003,3.225
				c1.294,0.717,1.277,2.526,0.003,3.225c1.294,0.717,1.278,2.526,0.003,3.225c0.553,0.372,0.756,0.749,0.818,0.893
				c0.167,0.389,0.193,0.833,0.075,1.239c-0.288,0.989-1.154,1.289-2.097,1.306c-2.546,0.048-5.225-0.146-7.38-1.646
				c-4.106-2.857-4.11-10.353-0.013-13.216c2.202-1.538,4.935-1.708,7.535-1.656C237.68,395.05,237.884,395.071,238.076,395.113z"/>
		</g>
	</g>
</svg>
