<?xml version="1.0" encoding="utf-8"?>
<svg xmlns="http://www.w3.org/2000/svg" viewBox="34.856 47.79 199.97 38.89" role="img" aria-label="Wedding ornament 05">
<g>
		<g>
			<g>
				<g>
					<path style="fill:none;stroke:#3C3C3B;stroke-linecap:round;stroke-linejoin:round;stroke-miterlimit:10;" d="M56.213,68.085
						c-0.512-2.339,0.23-4.743,0.802-7.067c0.969-3.937,0.335-8.051-3.61-10.059c-5.033-2.561-10.174,2.713-7.687,7.693
						c-4.979-2.487-10.254,2.654-7.693,7.687c2.008,3.945,6.121,4.579,10.059,3.61c2.325-0.572,4.729-1.314,7.067-0.802l1.571,0.509
						L56.213,68.085z"/>
				</g>
				<path style="fill:none;stroke:#3C3C3B;stroke-linecap:round;stroke-linejoin:round;stroke-miterlimit:10;" d="M47.425,53.916
					c0.657-0.878,1.694-1.461,2.786-1.563c1.092-0.103,2.22,0.276,3.029,1.016"/>
			</g>
			<g>
				<g>
					<path style="fill:none;stroke:#3C3C3B;stroke-linecap:round;stroke-linejoin:round;stroke-miterlimit:10;" d="M213.47,68.085
						c0.512-2.339-0.23-4.743-0.802-7.067c-0.969-3.937-0.335-8.051,3.61-10.059c5.033-2.561,10.174,2.713,7.687,7.693
						c4.98-2.487,10.254,2.654,7.693,7.687c-2.008,3.945-6.121,4.579-10.059,3.61c-2.325-0.572-4.729-1.314-7.067-0.802
						l-1.571,0.509L213.47,68.085z"/>
				</g>
				<path style="fill:none;stroke:#3C3C3B;stroke-linecap:round;stroke-linejoin:round;stroke-miterlimit:10;" d="M222.258,53.916
					c-0.656-0.878-1.694-1.461-2.786-1.563c-1.091-0.103-2.22,0.276-3.029,1.016"/>
			</g>
			<path style="fill:none;stroke:#3C3C3B;stroke-linecap:round;stroke-linejoin:round;stroke-miterlimit:10;" d="M213.546,69.557
				c-10.551,5.356-22.915,7.056-34.52,4.747c-14.308-2.848-27.938-11.578-42.357-9.361c-2.894,0.445-5.848,1.412-7.872,3.528
				l-1.757,2.524c-1.687,3.839-0.117,8.812,3.469,10.987c3.585,2.175,8.721,1.269,11.346-2.001c2.625-3.27,2.4-8.48-0.498-11.511
				c-2.024-2.117-4.977-3.083-7.872-3.528c-14.419-2.217-28.049,6.513-42.357,9.361c-11.605,2.31-23.969,0.61-34.52-4.747"/>
		</g>
		<g>
			<g>
				<path style="fill:none;stroke:#3C3C3B;stroke-linecap:round;stroke-linejoin:round;stroke-miterlimit:10;" d="M71.062,74.332
					c-1.733-0.601-2.868-2.388-3.085-4.209c-0.218-1.821,0.349-3.656,1.17-5.295c1.05,1.268,2.064,2.615,2.576,4.18
					C72.235,70.573,71.062,74.332,71.062,74.332z"/>
				<path style="fill:none;stroke:#3C3C3B;stroke-linecap:round;stroke-linejoin:round;stroke-miterlimit:10;" d="M70.988,74.507
					c-1.825-0.183-3.605,0.962-4.568,2.523c-0.963,1.561-1.219,3.464-1.162,5.297c1.486-0.71,2.971-1.506,4.093-2.711
					S70.988,74.507,70.988,74.507z"/>
			</g>
			<g>
				<path style="fill:none;stroke:#3C3C3B;stroke-linecap:round;stroke-linejoin:round;stroke-miterlimit:10;" d="M85.669,75.052
					c-1.825-0.18-3.346-1.653-3.982-3.373c-0.636-1.72-0.513-3.636-0.097-5.422c1.317,0.988,2.617,2.061,3.48,3.464
					C85.932,71.123,85.669,75.052,85.669,75.052z"/>
				<path style="fill:none;stroke:#3C3C3B;stroke-linecap:round;stroke-linejoin:round;stroke-miterlimit:10;" d="M85.637,75.239
					c-1.817,0.248-3.282,1.777-3.853,3.519c-0.572,1.743-0.377,3.653,0.105,5.422c1.279-1.037,2.538-2.158,3.348-3.591
					C86.047,79.155,85.637,75.239,85.637,75.239z"/>
			</g>
			<g>
				<path style="fill:none;stroke:#3C3C3B;stroke-linecap:round;stroke-linejoin:round;stroke-miterlimit:10;" d="M100.467,71.614
					c-1.787,0.413-3.699-0.496-4.852-1.922c-1.153-1.426-1.65-3.281-1.826-5.106c1.564,0.515,3.139,1.116,4.405,2.169
					C99.46,67.807,100.467,71.614,100.467,71.614z"/>
				<path style="fill:none;stroke:#3C3C3B;stroke-linecap:round;stroke-linejoin:round;stroke-miterlimit:10;" d="M100.497,71.801
					c-1.642,0.816-2.541,2.733-2.525,4.567c0.016,1.834,0.811,3.582,1.834,5.103c0.88-1.391,1.714-2.856,2.023-4.473
					C102.138,75.381,100.497,71.801,100.497,71.801z"/>
			</g>
			<g>
				<path style="fill:none;stroke:#3C3C3B;stroke-linecap:round;stroke-linejoin:round;stroke-miterlimit:10;" d="M111.579,67.683
					c-1.787,0.414-3.699-0.496-4.852-1.922c-1.153-1.426-1.649-3.281-1.826-5.106c1.564,0.515,3.139,1.116,4.405,2.169
					C110.572,63.877,111.579,67.683,111.579,67.683z"/>
				<path style="fill:none;stroke:#3C3C3B;stroke-linecap:round;stroke-linejoin:round;stroke-miterlimit:10;" d="M111.609,67.871
					c-1.642,0.816-2.541,2.733-2.525,4.567c0.015,1.834,0.811,3.582,1.834,5.103c0.88-1.392,1.714-2.856,2.023-4.473
					C113.25,71.45,111.609,67.871,111.609,67.871z"/>
			</g>
		</g>
		<g>
			<g>
				<path style="fill:none;stroke:#3C3C3B;stroke-linecap:round;stroke-linejoin:round;stroke-miterlimit:10;" d="M198.47,74.332
					c1.733-0.601,2.868-2.388,3.085-4.209c0.218-1.821-0.349-3.656-1.17-5.295c-1.05,1.268-2.064,2.615-2.576,4.18
					C197.297,70.573,198.47,74.332,198.47,74.332z"/>
				<path style="fill:none;stroke:#3C3C3B;stroke-linecap:round;stroke-linejoin:round;stroke-miterlimit:10;" d="M198.545,74.507
					c1.825-0.183,3.605,0.962,4.568,2.523c0.963,1.561,1.219,3.464,1.163,5.297c-1.486-0.71-2.971-1.506-4.093-2.711
					S198.545,74.507,198.545,74.507z"/>
			</g>
			<g>
				<path style="fill:none;stroke:#3C3C3B;stroke-linecap:round;stroke-linejoin:round;stroke-miterlimit:10;" d="M183.863,75.052
					c1.825-0.18,3.346-1.653,3.982-3.373c0.637-1.72,0.513-3.636,0.097-5.422c-1.317,0.988-2.617,2.061-3.48,3.464
					C183.6,71.123,183.863,75.052,183.863,75.052z"/>
				<path style="fill:none;stroke:#3C3C3B;stroke-linecap:round;stroke-linejoin:round;stroke-miterlimit:10;" d="M183.895,75.239
					c1.817,0.248,3.281,1.777,3.853,3.519c0.572,1.743,0.377,3.653-0.105,5.422c-1.279-1.037-2.538-2.158-3.348-3.591
					C183.485,79.155,183.895,75.239,183.895,75.239z"/>
			</g>
			<g>
				<path style="fill:none;stroke:#3C3C3B;stroke-linecap:round;stroke-linejoin:round;stroke-miterlimit:10;" d="M169.065,71.614
					c1.787,0.413,3.699-0.496,4.852-1.922c1.153-1.426,1.65-3.281,1.826-5.106c-1.564,0.515-3.139,1.116-4.405,2.169
					C170.073,67.807,169.065,71.614,169.065,71.614z"/>
				<path style="fill:none;stroke:#3C3C3B;stroke-linecap:round;stroke-linejoin:round;stroke-miterlimit:10;" d="M169.036,71.801
					c1.642,0.816,2.541,2.733,2.525,4.567c-0.016,1.834-0.811,3.582-1.834,5.103c-0.881-1.391-1.715-2.856-2.023-4.473
					C167.395,75.381,169.036,71.801,169.036,71.801z"/>
			</g>
			<g>
				<path style="fill:none;stroke:#3C3C3B;stroke-linecap:round;stroke-linejoin:round;stroke-miterlimit:10;" d="M157.953,67.683
					c1.787,0.414,3.699-0.496,4.852-1.922c1.153-1.426,1.65-3.281,1.826-5.106c-1.564,0.515-3.139,1.116-4.405,2.169
					C158.96,63.877,157.953,67.683,157.953,67.683z"/>
				<path style="fill:none;stroke:#3C3C3B;stroke-linecap:round;stroke-linejoin:round;stroke-miterlimit:10;" d="M157.923,67.871
					c1.642,0.816,2.541,2.733,2.525,4.567s-0.811,3.582-1.834,5.103c-0.88-1.392-1.714-2.856-2.023-4.473
					C156.282,71.45,157.923,67.871,157.923,67.871z"/>
			</g>
		</g>
	</g>
</svg>
