<?xml version="1.0" encoding="utf-8"?>
<svg xmlns="http://www.w3.org/2000/svg" viewBox="267.249 53.124 214.921 39.205" role="img" aria-label="Wedding ornament 08">
<g>
		<g>
			<g>
				<g>
					<path style="fill:#FFFFFF;stroke:#3C3C3B;stroke-linecap:round;stroke-linejoin:round;stroke-miterlimit:10;" d="
						M301.701,86.69l-4.525-4.021c-0.958-0.851-2.38-0.918-3.413-0.161l-4.882,3.578l0.99-21.037l12.82,0.604L301.701,86.69z"/>
					<path style="fill:#FFFFFF;stroke:#3C3C3B;stroke-linecap:round;stroke-linejoin:round;stroke-miterlimit:10;" d="
						M321.582,87.972l-4.381-3.893c-1.041-0.925-2.588-0.998-3.711-0.175l-4.727,3.464l0.99-21.037l12.82,0.603L321.582,87.972z"/>
					<path style="fill:#FFFFFF;stroke:#3C3C3B;stroke-linecap:round;stroke-linejoin:round;stroke-miterlimit:10;" d="
						M341.464,89.253l-4.159-3.696c-1.171-1.04-2.909-1.122-4.172-0.196l-4.488,3.289l0.99-21.037l12.82,0.604L341.464,89.253z"/>
					<path style="fill:#FFFFFF;stroke:#3C3C3B;stroke-linecap:round;stroke-linejoin:round;stroke-miterlimit:10;" d="
						M361.341,89.829l-4.128-3.668c-1.189-1.057-2.954-1.14-4.237-0.199l-4.454,3.264l0.99-21.037l12.82,0.603L361.341,89.829z"/>
					<path style="fill:#FFFFFF;stroke:#3C3C3B;stroke-linecap:round;stroke-linejoin:round;stroke-miterlimit:10;" d="
						M450.213,87.778l4.516-3.911c1.003-0.869,2.477-0.919,3.537-0.121l4.773,3.592l-0.723-21.048l-12.826,0.44L450.213,87.778z"/>
					<path style="fill:#FFFFFF;stroke:#3C3C3B;stroke-linecap:round;stroke-linejoin:round;stroke-miterlimit:10;" d="
						M430.317,88.806l4.19-3.629c1.193-1.033,2.947-1.094,4.208-0.144l4.429,3.333l-0.723-21.048l-12.826,0.44L430.317,88.806z"/>
					<path style="fill:#FFFFFF;stroke:#3C3C3B;stroke-linecap:round;stroke-linejoin:round;stroke-miterlimit:10;" d="
						M410.434,89.129l4.588-3.973c0.961-0.832,2.373-0.881,3.389-0.116l4.85,3.65l-0.723-21.048l-12.826,0.44L410.434,89.129z"/>
					<path style="fill:#FFFFFF;stroke:#3C3C3B;stroke-linecap:round;stroke-linejoin:round;stroke-miterlimit:10;" d="
						M382.791,89.368l-4.104-3.279c-1.365-1.091-3.307-1.08-4.661,0.025l-4.069,3.323l-0.112-21.06l12.834-0.068L382.791,89.368z"/>
					<path style="fill:#FFFFFF;stroke:#3C3C3B;stroke-linecap:round;stroke-linejoin:round;stroke-miterlimit:10;" d="
						M402.111,89.486l-4.124-3.294c-1.354-1.082-3.28-1.072-4.622,0.025l-4.088,3.338l-0.112-21.06l12.834-0.069L402.111,89.486z"/>
				</g>
			</g>
			<path style="fill:#FFFFFF;stroke:#3C3C3B;stroke-linecap:round;stroke-linejoin:round;stroke-miterlimit:10;" d="M269.749,63.314
				c0,0,50.714,5.481,113.62,5.363c41.185-0.077,76.793-2.38,96.301-3.942"/>
		</g>
		<g>
			<g>
				<g>
					<path style="fill:#3C3C3B;" d="M278.421,63.582c-0.861-0.919-1.607-1.908-2.147-3.049c-0.173-0.44-0.347-0.881-0.52-1.321
						c-0.566-1.068,0.005-1.599,1.714-1.593c0.891,0.417,1.563,2.425,1.505,3.39c-0.138,2.3-1.69,2.404-3.047,3.208
						c-1.361,0.806-3.918,2.652-3.648,4.553c0.25,1.763,2.2,1.519,3.442,0.921c2.153-1.037,3.306-3.325,3.113-5.652
						c-0.053-0.637-1.053-0.642-1,0c0.116,1.399-0.22,2.683-1.196,3.739c-1.248,1.35-4.594,1.667-2.408-0.918
						c1.321-1.562,3.029-1.712,4.477-2.893c1.966-1.604,1.387-4.63,0.009-6.431c-0.795-1.039-3.336-3.114-4.24-0.995
						c-1.034,2.422,1.742,6.15,3.239,7.749C278.154,64.76,278.86,64.052,278.421,63.582L278.421,63.582z"/>
				</g>
			</g>
			<g>
				<g>
					<path style="fill:#3C3C3B;" d="M470.75,66.223c1.461-1.561,4.316-5.367,3.239-7.749c-0.943-2.084-3.424-0.073-4.241,0.995
						c-1.335,1.745-2.015,4.9,0.009,6.431c1.469,1.11,3.187,1.367,4.477,2.893c2.186,2.585-1.16,2.268-2.408,0.918
						c-0.976-1.056-1.312-2.34-1.196-3.739c0.053-0.641-0.947-0.638-1,0c-0.193,2.327,0.959,4.614,3.113,5.652
						c1.241,0.598,3.191,0.847,3.442-0.921c0.273-1.917-2.262-3.726-3.648-4.553c-1.335-0.797-1.316-0.508-2.247-1.96
						c-0.842-0.698-1.039-1.527-0.589-2.488c0.256-0.822,0.687-1.539,1.294-2.15c1.591-0.058,2.197,0.349,1.819,1.22
						c-0.151,0.584-0.359,1.148-0.625,1.694c-0.539,1.142-1.286,2.13-2.147,3.05C469.604,65.985,470.309,66.694,470.75,66.223
						L470.75,66.223z"/>
				</g>
			</g>
		</g>
	</g>
</svg>
