<?xml version="1.0" encoding="utf-8"?>
<svg xmlns="http://www.w3.org/2000/svg" viewBox="287.45 324.072 157.546 69.333" role="img" aria-label="Wedding ornament 07">
<g>
		<g>
			<g>
				<g>
					<g>
						<path style="fill:#FFFFFF;stroke:#3C3C3B;stroke-linecap:round;stroke-linejoin:round;stroke-miterlimit:10;" d="
							M325.301,365.341c0,0-9.905,20.484-35.351,20.327L325.301,365.341z"/>
						<path style="fill:#FFFFFF;stroke:#3C3C3B;stroke-linecap:round;stroke-linejoin:round;stroke-miterlimit:10;" d="
							M325.301,365.341c0,0-18.912-3.914-35.351,20.327L325.301,365.341z"/>
					</g>
					<g>
						<path style="fill:#FFFFFF;stroke:#3C3C3B;stroke-linecap:round;stroke-linejoin:round;stroke-miterlimit:10;" d="
							M325.295,365.332c0,0-12.382,11.066-29.505,3.915L325.295,365.332z"/>
						<path style="fill:#FFFFFF;stroke:#3C3C3B;stroke-linecap:round;stroke-linejoin:round;stroke-miterlimit:10;" d="
							M325.295,365.332c0,0-11.67-7.874-29.505,3.915L325.295,365.332z"/>
					</g>
				</g>
				<g>
					<g>
						<path style="fill:#FFFFFF;stroke:#3C3C3B;stroke-linecap:round;stroke-linejoin:round;stroke-miterlimit:10;" d="
							M322.536,365.735c0,0-0.232,17.158-17.67,25.17L322.536,365.735z"/>
						<path style="fill:#FFFFFF;stroke:#3C3C3B;stroke-linecap:round;stroke-linejoin:round;stroke-miterlimit:10;" d="
							M322.536,365.735c0,0-14.172,3.36-17.67,25.17L322.536,365.735z"/>
					</g>
					<g>
						<path style="fill:#FFFFFF;stroke:#3C3C3B;stroke-linecap:round;stroke-linejoin:round;stroke-miterlimit:10;" d="
							M322.529,365.731c0,0-4.93,11.513-18.912,12.09L322.529,365.731z"/>
						<path style="fill:#FFFFFF;stroke:#3C3C3B;stroke-linecap:round;stroke-linejoin:round;stroke-miterlimit:10;" d="
							M322.529,365.731c0,0-10.487-1.657-18.912,12.09L322.529,365.731z"/>
					</g>
				</g>
			</g>
			<g>
				<g>
					<g>
						<path style="fill:#FFFFFF;stroke:#3C3C3B;stroke-linecap:round;stroke-linejoin:round;stroke-miterlimit:10;" d="
							M407.145,365.341c0,0,9.905,20.484,35.351,20.327L407.145,365.341z"/>
						<path style="fill:#FFFFFF;stroke:#3C3C3B;stroke-linecap:round;stroke-linejoin:round;stroke-miterlimit:10;" d="
							M407.145,365.341c0,0,18.912-3.914,35.351,20.327L407.145,365.341z"/>
					</g>
					<g>
						<path style="fill:#FFFFFF;stroke:#3C3C3B;stroke-linecap:round;stroke-linejoin:round;stroke-miterlimit:10;" d="
							M407.151,365.332c0,0,12.382,11.066,29.505,3.915L407.151,365.332z"/>
						<path style="fill:#FFFFFF;stroke:#3C3C3B;stroke-linecap:round;stroke-linejoin:round;stroke-miterlimit:10;" d="
							M407.151,365.332c0,0,11.67-7.874,29.505,3.915L407.151,365.332z"/>
					</g>
				</g>
				<g>
					<g>
						<path style="fill:#FFFFFF;stroke:#3C3C3B;stroke-linecap:round;stroke-linejoin:round;stroke-miterlimit:10;" d="
							M409.909,365.735c0,0,0.232,17.158,17.67,25.17L409.909,365.735z"/>
						<path style="fill:#FFFFFF;stroke:#3C3C3B;stroke-linecap:round;stroke-linejoin:round;stroke-miterlimit:10;" d="
							M409.909,365.735c0,0,14.172,3.36,17.67,25.17L409.909,365.735z"/>
					</g>
					<g>
						<path style="fill:#FFFFFF;stroke:#3C3C3B;stroke-linecap:round;stroke-linejoin:round;stroke-miterlimit:10;" d="
							M409.916,365.731c0,0,4.93,11.513,18.912,12.09L409.916,365.731z"/>
						<path style="fill:#FFFFFF;stroke:#3C3C3B;stroke-linecap:round;stroke-linejoin:round;stroke-miterlimit:10;" d="
							M409.916,365.731c0,0,10.487-1.657,18.912,12.09L409.916,365.731z"/>
					</g>
				</g>
			</g>
		</g>
		<g>
			<g>
				<g>
					<path style="fill:#FFFFFF;stroke:#3C3C3B;stroke-linecap:round;stroke-linejoin:round;stroke-miterlimit:10;" d="
						M377.146,354.768c0.748-0.233,1.478-0.548,2.169-0.967c5.366-3.254,6.339-11.46,6.339-11.46s-7.567-2.867-12.925,0.229
						c-0.131-6.186-6.506-11.17-6.506-11.17s-6.375,4.984-6.506,11.17c-5.358-3.096-12.925-0.229-12.925-0.229
						s0.973,8.206,6.339,11.46c0.691,0.419,1.422,0.734,2.169,0.967c-0.424,0.303-0.831,0.638-1.208,1.015
						c-4.437,4.437-3.43,12.639-3.43,12.639s8.202,1.008,12.639-3.43c1.54-1.54,2.423-3.534,2.921-5.48
						c0.498,1.947,1.381,3.94,2.921,5.48c4.437,4.437,12.639,3.43,12.639,3.43s1.008-8.202-3.429-12.639
						C377.977,355.405,377.571,355.07,377.146,354.768z"/>
				</g>
				
					<ellipse style="fill:#FFFFFF;stroke:#3C3C3B;stroke-linecap:round;stroke-linejoin:round;stroke-miterlimit:10;" cx="366.316" cy="351.329" rx="4.764" ry="4.458"/>
			</g>
			<g>
				<g>
					<path style="fill:none;stroke:#3C3C3B;stroke-linecap:round;stroke-linejoin:round;stroke-miterlimit:10;" d="M377.716,330.902
						c-6.076,5.161-10.165,12.604-11.263,20.5"/>
					<path style="fill:#FFFFFF;stroke:#3C3C3B;stroke-linecap:round;stroke-linejoin:round;stroke-miterlimit:10;" d="
						M376.457,330.902c0-0.695,0.563-1.258,1.258-1.258c0.695,0,1.258,0.563,1.258,1.258c0,0.695-0.563,1.258-1.258,1.258
						C377.021,332.161,376.457,331.597,376.457,330.902z"/>
				</g>
				<g>
					<path style="fill:none;stroke:#3C3C3B;stroke-linecap:round;stroke-linejoin:round;stroke-miterlimit:10;" d="M371.384,327.831
						c-4.306,6.709-6.186,15.699-4.932,23.572"/>
					<path style="fill:#FFFFFF;stroke:#3C3C3B;stroke-linecap:round;stroke-linejoin:round;stroke-miterlimit:10;" d="
						M370.181,328.198c-0.203-0.665,0.172-1.368,0.836-1.571c0.665-0.203,1.368,0.172,1.571,0.836
						c0.203,0.665-0.172,1.368-0.836,1.571C371.087,329.237,370.384,328.863,370.181,328.198z"/>
				</g>
				<g>
					<path style="fill:none;stroke:#3C3C3B;stroke-linecap:round;stroke-linejoin:round;stroke-miterlimit:10;" d="M355.19,330.902
						c6.076,5.161,10.165,12.604,11.263,20.5"/>
					
						<circle style="fill:#FFFFFF;stroke:#3C3C3B;stroke-linecap:round;stroke-linejoin:round;stroke-miterlimit:10;" cx="355.19" cy="330.902" r="1.258"/>
				</g>
			</g>
		</g>
		<g>
			<g>
				<g>
					<g>
						<path style="fill:#FFFFFF;stroke:#3C3C3B;stroke-linecap:round;stroke-linejoin:round;stroke-miterlimit:10;" d="
							M336.658,360.657c0.473-0.411,0.907-0.877,1.278-1.406c2.885-4.109,0.96-10.433,0.96-10.433s-6.465,0.332-9.395,4.322
							c-2.085-4.49-8.357-6.091-8.357-6.091s-3.068,5.701-1.175,10.275c-4.92-0.546-9.542,3.987-9.542,3.987
							s3.351,5.699,8.328,6.358c0.641,0.085,1.277,0.081,1.9,0.011c-0.214,0.358-0.404,0.734-0.559,1.132
							c-1.824,4.677,1.551,10.362,1.551,10.362s6.333-1.898,8.157-6.576c0.633-1.623,0.639-3.368,0.378-4.954
							c0.991,1.266,2.279,2.443,3.902,3.076c4.677,1.824,10.362-1.551,10.362-1.551s-1.898-6.333-6.576-8.157
							C337.471,360.857,337.066,360.742,336.658,360.657z"/>
					</g>
					<path style="fill:#FFFFFF;stroke:#3C3C3B;stroke-linecap:round;stroke-linejoin:round;stroke-miterlimit:10;" d="
						M331.108,360.088c0.792,1.804-0.129,3.952-2.057,4.797c-1.927,0.846-4.132,0.069-4.923-1.734
						c-0.792-1.804,0.129-3.952,2.057-4.797C328.113,357.508,330.317,358.284,331.108,360.088z"/>
				</g>
				<g>
					<g>
						<path style="fill:none;stroke:#3C3C3B;stroke-linecap:round;stroke-linejoin:round;stroke-miterlimit:10;" d="M329.403,342.99
							c-2.792,5.734-3.395,12.501-1.66,18.639"/>
						<path style="fill:#FFFFFF;stroke:#3C3C3B;stroke-linecap:round;stroke-linejoin:round;stroke-miterlimit:10;" d="
							M328.481,343.395c-0.223-0.509,0.008-1.103,0.517-1.326c0.509-0.223,1.103,0.008,1.326,0.517
							c0.223,0.509-0.008,1.103-0.517,1.326C329.298,344.135,328.705,343.904,328.481,343.395z"/>
					</g>
					<g>
						<path style="fill:none;stroke:#3C3C3B;stroke-linecap:round;stroke-linejoin:round;stroke-miterlimit:10;" d="
							M323.777,342.776c-0.998,6.299,0.515,13.489,3.965,18.853"/>
						<path style="fill:#FFFFFF;stroke:#3C3C3B;stroke-linecap:round;stroke-linejoin:round;stroke-miterlimit:10;" d="
							M323.014,343.431c-0.362-0.422-0.314-1.057,0.108-1.419c0.422-0.362,1.057-0.314,1.419,0.108
							c0.362,0.422,0.314,1.057-0.108,1.419C324.011,343.901,323.376,343.853,323.014,343.431z"/>
					</g>
					<g>
						<path style="fill:none;stroke:#3C3C3B;stroke-linecap:round;stroke-linejoin:round;stroke-miterlimit:10;" d="
							M312.901,350.232c6.11,1.827,11.499,5.966,14.841,11.397"/>
						<path style="fill:#FFFFFF;stroke:#3C3C3B;stroke-linecap:round;stroke-linejoin:round;stroke-miterlimit:10;" d="
							M313.823,349.827c-0.223-0.509-0.817-0.741-1.326-0.517c-0.509,0.223-0.741,0.817-0.517,1.326
							c0.223,0.509,0.817,0.741,1.326,0.517C313.815,350.93,314.046,350.336,313.823,349.827z"/>
					</g>
				</g>
			</g>
			<g>
				<g>
					<g>
						<path style="fill:#FFFFFF;stroke:#3C3C3B;stroke-linecap:round;stroke-linejoin:round;stroke-miterlimit:10;" d="
							M411.736,366.736c0.622,0.075,1.258,0.085,1.9,0.005c4.982-0.615,8.383-6.284,8.383-6.284s-4.582-4.573-9.506-4.071
							c1.933-4.557-1.085-10.284-1.085-10.284s-6.286,1.546-8.41,6.017c-2.894-4.016-9.357-4.405-9.357-4.405
							s-1.981,6.307,0.868,10.441c0.367,0.532,0.797,1.002,1.266,1.417c-0.409,0.082-0.815,0.193-1.214,0.344
							c-4.693,1.783-6.647,8.099-6.647,8.099s5.655,3.425,10.348,1.642c1.629-0.619,2.927-1.784,3.929-3.041
							c-0.275,1.584-0.284,3.328,0.335,4.957c1.783,4.693,8.099,6.647,8.099,6.647s3.425-5.655,1.642-10.348
							C412.134,367.474,411.947,367.096,411.736,366.736z"/>
					</g>
					<path style="fill:#FFFFFF;stroke:#3C3C3B;stroke-linecap:round;stroke-linejoin:round;stroke-miterlimit:10;" d="
						M408.437,362.238c-0.807,1.797-3.018,2.554-4.938,1.691c-1.92-0.863-2.822-3.019-2.014-4.815
						c0.807-1.797,3.018-2.554,4.938-1.691C408.343,358.285,409.245,360.441,408.437,362.238z"/>
				</g>
				<g>
					<g>
						<path style="fill:none;stroke:#3C3C3B;stroke-linecap:round;stroke-linejoin:round;stroke-miterlimit:10;" d="
							M419.978,349.508c-6.126,1.773-11.551,5.864-14.941,11.266"/>
						<path style="fill:#FFFFFF;stroke:#3C3C3B;stroke-linecap:round;stroke-linejoin:round;stroke-miterlimit:10;" d="
							M419.06,349.095c0.228-0.507,0.824-0.733,1.331-0.506c0.507,0.228,0.733,0.824,0.506,1.331
							c-0.228,0.507-0.824,0.733-1.331,0.506C419.058,350.198,418.832,349.602,419.06,349.095z"/>
					</g>
					<g>
						<path style="fill:none;stroke:#3C3C3B;stroke-linecap:round;stroke-linejoin:round;stroke-miterlimit:10;" d="
							M416.365,345.191c-5.342,3.483-9.661,9.427-11.328,15.583"/>
						<path style="fill:#FFFFFF;stroke:#3C3C3B;stroke-linecap:round;stroke-linejoin:round;stroke-miterlimit:10;" d="
							M415.366,345.064c0.07-0.552,0.574-0.942,1.125-0.872c0.551,0.07,0.942,0.574,0.872,1.125
							c-0.07,0.551-0.574,0.942-1.125,0.872C415.687,346.119,415.296,345.615,415.366,345.064z"/>
					</g>
					<g>
						<path style="fill:none;stroke:#3C3C3B;stroke-linecap:round;stroke-linejoin:round;stroke-miterlimit:10;" d="
							M403.541,342.121c2.741,5.758,3.285,12.531,1.496,18.652"/>
						<path style="fill:#FFFFFF;stroke:#3C3C3B;stroke-linecap:round;stroke-linejoin:round;stroke-miterlimit:10;" d="
							M404.459,342.534c0.228-0.507,0.001-1.103-0.506-1.331c-0.507-0.228-1.103-0.001-1.331,0.505
							c-0.228,0.507-0.001,1.103,0.506,1.331C403.635,343.267,404.231,343.041,404.459,342.534z"/>
					</g>
				</g>
			</g>
		</g>
	</g>
</svg>
