<?xml version="1.0" encoding="utf-8"?>
<svg xmlns="http://www.w3.org/2000/svg" viewBox="31.149 334.174 233.659 33.754" role="img" aria-label="Wedding ornament 11">
<g>
		<g>
			<g>
				
					<path style="fill:none;stroke:#3C3C3B;stroke-width:0.9172;stroke-linecap:round;stroke-linejoin:round;stroke-miterlimit:10;" d="
					M45.819,350.336c-0.331-1.509,0.148-3.061,0.517-4.561c0.625-2.541,0.216-5.196-2.33-6.491
					c-3.248-1.653-6.566,1.751-4.961,4.965c-3.214-1.605-6.617,1.713-4.965,4.961c1.296,2.546,3.95,2.955,6.491,2.33
					c1.5-0.369,3.052-0.848,4.561-0.517l1.014,0.328L45.819,350.336z"/>
			</g>
			
				<path style="fill:none;stroke:#3C3C3B;stroke-width:0.9172;stroke-linecap:round;stroke-linejoin:round;stroke-miterlimit:10;" d="
				M40.147,341.192c0.424-0.567,1.093-0.943,1.798-1.009c0.704-0.066,1.432,0.178,1.954,0.656"/>
		</g>
		<g>
			<g>
				
					<path style="fill:none;stroke:#3C3C3B;stroke-width:0.9172;stroke-linecap:round;stroke-linejoin:round;stroke-miterlimit:10;" d="
					M64.828,352.865c0.834-1.301,2.269-2.059,3.591-2.859c2.239-1.355,3.827-3.521,2.943-6.238
					c-1.128-3.465-5.881-3.404-7.018,0.003c-1.137-3.407-5.89-3.468-7.018-0.003c-0.884,2.716,0.704,4.883,2.943,6.238
					c1.322,0.8,2.758,1.558,3.591,2.859l0.485,0.949L64.828,352.865z"/>
			</g>
			
				<path style="fill:none;stroke:#3C3C3B;stroke-width:0.9172;stroke-linecap:round;stroke-linejoin:round;stroke-miterlimit:10;" d="
				M67.283,342.389c0.7-0.101,1.44,0.107,1.985,0.558c0.545,0.451,0.887,1.139,0.918,1.846"/>
		</g>
		<g>
			<g>
				
					<path style="fill:none;stroke:#3C3C3B;stroke-width:0.9172;stroke-linecap:round;stroke-linejoin:round;stroke-miterlimit:10;" d="
					M91.335,351.838c0.605-1.422,1.894-2.409,3.064-3.418c1.982-1.709,3.186-4.11,1.862-6.641c-1.69-3.229-6.366-2.377-6.92,1.172
					c-1.689-3.17-6.386-2.438-6.92,1.167c-0.419,2.826,1.508,4.698,3.941,5.66c1.437,0.568,2.979,1.077,4.017,2.221l0.636,0.855
					L91.335,351.838z"/>
			</g>
			
				<path style="fill:none;stroke:#3C3C3B;stroke-width:0.9172;stroke-linecap:round;stroke-linejoin:round;stroke-miterlimit:10;" d="
				M92.01,341.099c0.674-0.216,1.437-0.135,2.05,0.219c0.613,0.354,1.064,0.975,1.213,1.667"/>
		</g>
		<g>
			<g>
				
					<path style="fill:none;stroke:#3C3C3B;stroke-width:0.9172;stroke-linecap:round;stroke-linejoin:round;stroke-miterlimit:10;" d="
					M117.186,348.347c0.833-1.301,2.269-2.059,3.591-2.859c2.239-1.355,3.827-3.521,2.943-6.238
					c-1.128-3.465-5.881-3.404-7.018,0.003c-1.138-3.407-5.89-3.468-7.018-0.003c-0.884,2.716,0.704,4.883,2.943,6.238
					c1.322,0.8,2.758,1.558,3.591,2.859l0.485,0.949L117.186,348.347z"/>
			</g>
			
				<path style="fill:none;stroke:#3C3C3B;stroke-width:0.9172;stroke-linecap:round;stroke-linejoin:round;stroke-miterlimit:10;" d="
				M119.642,337.871c0.7-0.101,1.44,0.107,1.985,0.558c0.545,0.451,0.887,1.139,0.918,1.846"/>
		</g>
		<g>
			<g>
				
					<path style="fill:none;stroke:#3C3C3B;stroke-width:0.9172;stroke-linecap:round;stroke-linejoin:round;stroke-miterlimit:10;" d="
					M250.138,350.336c0.331-1.509-0.148-3.061-0.518-4.561c-0.625-2.541-0.216-5.196,2.33-6.491
					c3.248-1.653,6.566,1.751,4.961,4.965c3.214-1.605,6.617,1.713,4.965,4.961c-1.296,2.546-3.95,2.955-6.491,2.33
					c-1.5-0.369-3.052-0.848-4.561-0.517l-1.014,0.328L250.138,350.336z"/>
			</g>
			
				<path style="fill:none;stroke:#3C3C3B;stroke-width:0.9172;stroke-linecap:round;stroke-linejoin:round;stroke-miterlimit:10;" d="
				M255.809,341.192c-0.424-0.567-1.093-0.943-1.798-1.009c-0.704-0.066-1.433,0.178-1.955,0.656"/>
		</g>
		<g>
			<g>
				
					<path style="fill:none;stroke:#3C3C3B;stroke-width:0.9172;stroke-linecap:round;stroke-linejoin:round;stroke-miterlimit:10;" d="
					M231.129,352.865c-0.833-1.301-2.269-2.059-3.591-2.859c-2.239-1.355-3.827-3.521-2.943-6.238
					c1.128-3.465,5.881-3.404,7.018,0.003c1.137-3.407,5.89-3.468,7.018-0.003c0.884,2.716-0.704,4.883-2.943,6.238
					c-1.322,0.8-2.757,1.558-3.591,2.859l-0.485,0.949L231.129,352.865z"/>
			</g>
			
				<path style="fill:none;stroke:#3C3C3B;stroke-width:0.9172;stroke-linecap:round;stroke-linejoin:round;stroke-miterlimit:10;" d="
				M228.674,342.389c-0.7-0.101-1.44,0.107-1.985,0.558c-0.545,0.451-0.887,1.139-0.918,1.846"/>
		</g>
		<g>
			<g>
				
					<path style="fill:none;stroke:#3C3C3B;stroke-width:0.9172;stroke-linecap:round;stroke-linejoin:round;stroke-miterlimit:10;" d="
					M204.622,351.838c-0.605-1.422-1.894-2.409-3.064-3.418c-1.982-1.709-3.186-4.11-1.862-6.641c1.69-3.229,6.366-2.377,6.92,1.172
					c1.689-3.17,6.386-2.438,6.921,1.167c0.419,2.826-1.508,4.698-3.941,5.66c-1.437,0.568-2.979,1.077-4.017,2.221l-0.636,0.855
					L204.622,351.838z"/>
			</g>
			
				<path style="fill:none;stroke:#3C3C3B;stroke-width:0.9172;stroke-linecap:round;stroke-linejoin:round;stroke-miterlimit:10;" d="
				M203.947,341.099c-0.674-0.216-1.437-0.135-2.05,0.219c-0.613,0.354-1.065,0.975-1.213,1.667"/>
		</g>
		<g>
			<g>
				
					<path style="fill:none;stroke:#3C3C3B;stroke-width:0.9172;stroke-linecap:round;stroke-linejoin:round;stroke-miterlimit:10;" d="
					M178.77,348.347c-0.833-1.301-2.269-2.059-3.591-2.859c-2.239-1.355-3.827-3.521-2.943-6.238
					c1.128-3.465,5.881-3.404,7.018,0.003c1.137-3.407,5.89-3.468,7.018-0.003c0.884,2.716-0.704,4.883-2.943,6.238
					c-1.322,0.8-2.758,1.558-3.591,2.859l-0.484,0.949L178.77,348.347z"/>
			</g>
			
				<path style="fill:none;stroke:#3C3C3B;stroke-width:0.9172;stroke-linecap:round;stroke-linejoin:round;stroke-miterlimit:10;" d="
				M176.315,337.871c-0.7-0.101-1.44,0.107-1.985,0.558c-0.545,0.451-0.887,1.139-0.918,1.846"/>
		</g>
		<g>
			<g>
				<path style="fill:#3C3C3B;" d="M249.653,350.892c-12.932,3.585-26.526,4.517-39.809,2.521
					c-11.548-1.735-23.296-6.181-35.081-3.794c-3.709,0.751-8.023,2.307-9.764,5.976c-1.43,3.015-0.48,7.25,3.167,8.037
					c2.772,0.598,4.936-1.496,5.223-4.153c0.39-3.611-2.545-6.083-5.788-6.893c-4.826-1.205-10.248,0.557-13.973,3.692
					c-2.7,2.272-4.233,5.46-5.964,8.464c0.264,0,0.528,0,0.792,0c-1.326-2.301-2.532-4.858-4.3-6.857
					c-2.972-3.36-7.4-5.426-11.869-5.638c-3.634-0.172-7.987,1.098-9.374,4.835c-1.043,2.81,0.513,6.557,3.843,6.644
					c3.042,0.08,5.138-3.371,4.924-6.128c-0.288-3.72-4.007-6.056-7.189-7.152c-11.193-3.853-23.422,0.263-34.525,2.339
					c-14.463,2.704-29.321,2.036-43.497-1.893c-0.57-0.158-0.813,0.727-0.244,0.884c8.66,2.401,17.602,3.643,26.593,3.59
					c9.067-0.053,17.746-1.774,26.587-3.593c8.452-1.739,19.323-3.895,27.307,0.651c1.786,1.017,3.549,2.613,3.986,4.713
					c0.485,2.33-1.265,5.756-3.941,5.672c-3.939-0.124-3.801-5.302-1.675-7.416c1.579-1.57,3.94-2.163,6.099-2.235
					c5.078-0.171,10.328,2.4,13.256,6.563c1.213,1.724,2.178,3.661,3.229,5.485c0.171,0.297,0.62,0.297,0.792,0
					c0.788-1.368,1.556-2.75,2.366-4.106c2.384-3.989,6.243-6.792,10.837-7.676c3.969-0.764,10.98,0.154,10.848,5.54
					c-0.049,2.015-1.382,3.922-3.549,3.854c-3.795-0.119-4.391-4.766-2.848-7.364c2.235-3.765,7.486-4.894,11.483-5.358
					c4.84-0.561,9.74-0.04,14.517,0.791c9.014,1.568,17.782,3.902,26.964,4.363c10.393,0.522,20.801-0.695,30.822-3.473
					C250.465,351.619,250.224,350.733,249.653,350.892L249.653,350.892z"/>
			</g>
		</g>
	</g>
</svg>
