<?xml version="1.0" encoding="utf-8"?>
<svg xmlns="http://www.w3.org/2000/svg" viewBox="34.735 99.018 221.996 32.35" role="img" aria-label="Wedding ornament 02">
<g>
		<g>
			<g>
				<g>
					<g>
						
							<path style="fill:#FFFFFF;stroke:#3C3C3B;stroke-width:1.2433;stroke-linecap:round;stroke-linejoin:round;stroke-miterlimit:10;" d="
							M138.597,108.916c1.041,2.282,1.283,5.701-0.049,8.206c-0.402,0.762-0.93,1.517-1.678,2.074
							c-0.762,0.522-1.79,0.776-2.615,0.539c-1.536-0.45-1.669-2.269-1.316-3.71c0.26-1.062,0.683-2.079,1.222-3.065
							c0.524-1.022,1.174-1.986,1.937-2.852L138.597,108.916z"/>
					</g>
					<g>
						
							<path style="fill:#FFFFFF;stroke:#3C3C3B;stroke-width:1.2433;stroke-linecap:round;stroke-linejoin:round;stroke-miterlimit:10;" d="
							M138.597,108.916c-1.238-2.188-3.803-4.498-6.252-5.201c-0.75-0.212-1.541-0.338-2.305-0.174
							c-0.781,0.129-1.551,0.553-1.886,1.257c-0.627,1.302,0.428,2.758,1.646,3.58c0.887,0.599,1.898,1.085,2.968,1.391
							c1.054,0.27,2.18,0.386,3.33,0.339L138.597,108.916z"/>
					</g>
				</g>
				<g>
					<g>
						
							<path style="fill:#FFFFFF;stroke:#3C3C3B;stroke-width:1.2433;stroke-linecap:round;stroke-linejoin:round;stroke-miterlimit:10;" d="
							M129.307,113.014c0.801,2.357,0.737,5.887-0.842,8.211c-0.482,0.694-1.088,1.365-1.895,1.814
							c-0.807,0.449-1.841,0.642-2.633,0.339c-1.473-0.565-1.433-2.403-0.949-3.826c0.718-2.089,2.029-4.029,3.744-5.523
							L129.307,113.014z"/>
					</g>
					<g>
						
							<path style="fill:#FFFFFF;stroke:#3C3C3B;stroke-width:1.2433;stroke-linecap:round;stroke-linejoin:round;stroke-miterlimit:10;" d="
							M129.307,113.014c-1.019-2.318-3.302-4.77-5.686-5.745c-0.735-0.308-1.522-0.537-2.312-0.48
							c-0.79,0.057-1.587,0.446-1.986,1.127c-0.743,1.268,0.163,2.806,1.288,3.719c1.64,1.34,3.795,2.182,6.121,2.394
							L129.307,113.014z"/>
					</g>
				</g>
				<g>
					<g>
						
							<path style="fill:#FFFFFF;stroke:#3C3C3B;stroke-width:1.2433;stroke-linecap:round;stroke-linejoin:round;stroke-miterlimit:10;" d="
							M119.681,116.244c0.572,2.441,0.139,5.831-1.648,8.009c-0.541,0.663-1.203,1.293-2.043,1.686
							c-0.835,0.416-1.887,0.474-2.651,0.066c-1.418-0.746-1.203-2.553-0.581-3.892c0.931-1.914,2.393-3.85,4.234-5.21
							L119.681,116.244z"/>
					</g>
					<g>
						
							<path style="fill:#FFFFFF;stroke:#3C3C3B;stroke-width:1.2433;stroke-linecap:round;stroke-linejoin:round;stroke-miterlimit:10;" d="
							M119.681,116.244c-0.784-2.389-2.851-5.166-5.132-6.347c-0.699-0.359-1.456-0.641-2.244-0.636
							c-0.783,0.028-1.623,0.304-2.092,0.915c-0.871,1.149-0.11,2.784,0.93,3.831c1.527,1.587,3.563,2.5,5.849,2.896
							L119.681,116.244z"/>
					</g>
				</g>
				<g>
					<g>
						
							<path style="fill:#FFFFFF;stroke:#3C3C3B;stroke-width:1.2433;stroke-linecap:round;stroke-linejoin:round;stroke-miterlimit:10;" d="
							M109.767,118.445c0.34,2.487-0.405,5.857-2.377,7.916c-0.599,0.615-1.322,1.132-2.196,1.421
							c-0.875,0.282-1.924,0.268-2.644-0.184c-1.338-0.842-0.958-2.635-0.217-3.934c1.091-1.933,2.757-3.488,4.708-4.737
							L109.767,118.445z"/>
					</g>
					<g>
						
							<path style="fill:#FFFFFF;stroke:#3C3C3B;stroke-width:1.2433;stroke-linecap:round;stroke-linejoin:round;stroke-miterlimit:10;" d="
							M109.767,118.445c-0.555-2.449-2.344-5.373-4.498-6.703c-0.662-0.417-1.397-0.817-2.187-0.909
							c-0.791-0.099-1.651,0.125-2.173,0.714c-0.972,1.096-0.367,2.78,0.57,3.896c1.36,1.608,3.334,2.942,5.561,3.484
							L109.767,118.445z"/>
					</g>
				</g>
				<g>
					<g>
						
							<path style="fill:#FFFFFF;stroke:#3C3C3B;stroke-width:1.2433;stroke-linecap:round;stroke-linejoin:round;stroke-miterlimit:10;" d="
							M99.703,119.795c0.109,2.537-0.946,5.798-3.103,7.576c-0.653,0.545-1.42,1.035-2.316,1.259
							c-0.896,0.213-1.938,0.163-2.613-0.383c-1.255-1.004-0.711-2.736,0.146-3.931c1.265-1.807,3.061-3.359,5.123-4.353
							C97.861,119.901,98.788,119.92,99.703,119.795z"/>
					</g>
					<g>
						
							<path style="fill:#FFFFFF;stroke:#3C3C3B;stroke-width:1.2433;stroke-linecap:round;stroke-linejoin:round;stroke-miterlimit:10;" d="
							M99.703,119.795c-0.323-2.461-1.835-5.564-3.864-7.177c-0.622-0.488-1.316-0.912-2.093-1.06
							c-0.778-0.158-1.654,0.046-2.229,0.554c-1.069,0.959-0.621,2.71,0.208,3.938c1.207,1.743,3.043,3.097,5.215,3.912
							C97.861,119.901,98.788,119.92,99.703,119.795z"/>
					</g>
				</g>
				<g>
					<g>
						
							<path style="fill:#FFFFFF;stroke:#3C3C3B;stroke-width:1.2433;stroke-linecap:round;stroke-linejoin:round;stroke-miterlimit:10;" d="
							M89.555,120.139c-0.124,2.506-1.476,5.671-3.79,7.313c-0.702,0.506-1.51,0.947-2.421,1.037
							c-0.911,0.109-1.939-0.105-2.564-0.687c-1.16-1.083-0.458-2.772,0.509-3.906c1.427-1.682,3.348-2.891,5.497-3.81
							L89.555,120.139z"/>
					</g>
					<g>
						
							<path style="fill:#FFFFFF;stroke:#3C3C3B;stroke-width:1.2433;stroke-linecap:round;stroke-linejoin:round;stroke-miterlimit:10;" d="
							M89.555,120.139c-0.094-2.511-1.316-5.724-3.19-7.447c-0.575-0.52-1.228-0.983-1.985-1.251
							c-0.758-0.249-1.645-0.196-2.265,0.282c-1.156,0.889-0.87,2.66-0.155,3.935c1.041,1.847,2.734,3.536,4.828,4.428
							L89.555,120.139z"/>
					</g>
				</g>
				<g>
					<g>
						
							<path style="fill:#FFFFFF;stroke:#3C3C3B;stroke-width:1.2433;stroke-linecap:round;stroke-linejoin:round;stroke-miterlimit:10;" d="
							M79.415,119.591c-0.353,2.472-2.003,5.605-4.446,6.909c-0.742,0.41-1.585,0.744-2.507,0.791
							c-0.922,0.047-1.931-0.235-2.502-0.856c-1.06-1.157-0.201-2.786,0.871-3.846c1.58-1.556,3.626-2.718,5.834-3.303
							C77.575,119.447,78.495,119.52,79.415,119.591z"/>
					</g>
					<g>
						
							<path style="fill:#FFFFFF;stroke:#3C3C3B;stroke-width:1.2433;stroke-linecap:round;stroke-linejoin:round;stroke-miterlimit:10;" d="
							M79.415,119.591c0.14-2.521-0.793-5.727-2.482-7.733c-0.52-0.599-1.123-1.15-1.857-1.446
							c-0.735-0.296-1.626-0.298-2.291,0.137c-1.237,0.807-1.117,2.584-0.52,3.899c0.866,1.923,2.416,3.624,4.4,4.837
							C77.575,119.447,78.495,119.52,79.415,119.591z"/>
					</g>
				</g>
				<g>
					<g>
						
							<path style="fill:#FFFFFF;stroke:#3C3C3B;stroke-width:1.2433;stroke-linecap:round;stroke-linejoin:round;stroke-miterlimit:10;" d="
							M69.373,118.098c-0.585,2.439-2.497,5.287-5.077,6.452c-0.782,0.355-1.66,0.632-2.587,0.61
							c-0.916-0.071-1.887-0.484-2.391-1.179c-0.938-1.293,0.07-2.815,1.231-3.74c0.854-0.677,1.816-1.239,2.841-1.67
							c1.038-0.484,2.144-0.849,3.278-1.064L69.373,118.098z"/>
					</g>
					<g>
						
							<path style="fill:#FFFFFF;stroke:#3C3C3B;stroke-width:1.2433;stroke-linecap:round;stroke-linejoin:round;stroke-miterlimit:10;" d="
							M69.373,118.098c0.372-2.486-0.231-5.882-1.744-7.939c-0.465-0.629-1.017-1.21-1.724-1.555
							c-0.693-0.394-1.568-0.515-2.264-0.167c-1.295,0.647-1.351,2.444-0.891,3.838c0.334,1.021,0.84,2.007,1.494,2.923
							c0.668,0.863,1.487,1.642,2.423,2.311L69.373,118.098z"/>
					</g>
				</g>
				<g>
					<g>
						
							<path style="fill:#FFFFFF;stroke:#3C3C3B;stroke-width:1.2433;stroke-linecap:round;stroke-linejoin:round;stroke-miterlimit:10;" d="
							M59.52,115.643c-0.808,2.349-3.021,5.121-5.686,5.973c-0.807,0.255-1.699,0.415-2.614,0.277
							c-0.915-0.138-1.853-0.617-2.295-1.341c-0.821-1.346,0.338-2.776,1.593-3.606c1.849-1.214,4.075-1.949,6.346-2.084
							C57.743,115.142,58.635,115.381,59.52,115.643z"/>
					</g>
					<g>
						
							<path style="fill:#FFFFFF;stroke:#3C3C3B;stroke-width:1.2433;stroke-linecap:round;stroke-linejoin:round;stroke-miterlimit:10;" d="
							M59.52,115.643c0.616-2.462,0.301-5.78-0.982-8.03c-0.393-0.692-0.874-1.354-1.533-1.789
							c-0.659-0.436-1.526-0.615-2.258-0.319c-1.363,0.55-1.59,2.319-1.26,3.728c0.475,2.061,1.665,4.042,3.377,5.63
							C57.743,115.142,58.635,115.381,59.52,115.643z"/>
					</g>
				</g>
				<g>
					<g>
						
							<path style="fill:#FFFFFF;stroke:#3C3C3B;stroke-width:1.2433;stroke-linecap:round;stroke-linejoin:round;stroke-miterlimit:10;" d="
							M49.933,112.298c-1.044,2.28-3.466,4.691-6.226,5.311c-0.837,0.19-1.751,0.28-2.66,0.074c-0.92-0.18-1.78-0.814-2.139-1.598
							c-0.663-1.466,0.628-2.752,1.946-3.42c1.918-0.927,4.256-1.539,6.55-1.494L49.933,112.298z"/>
					</g>
					<g>
						
							<path style="fill:#FFFFFF;stroke:#3C3C3B;stroke-width:1.2433;stroke-linecap:round;stroke-linejoin:round;stroke-miterlimit:10;" d="
							M49.933,112.298c0.844-2.368,0.916-5.829-0.15-8.154c-0.329-0.71-0.75-1.395-1.371-1.871
							c-0.635-0.451-1.445-0.774-2.192-0.571c-1.387,0.37-1.803,2.123-1.633,3.588c0.216,2.19,1.252,4.177,2.817,5.881
							L49.933,112.298z"/>
					</g>
				</g>
			</g>
			<path style="fill:#3C3C3B;" d="M145.613,104.459c-0.098,0-0.194,0.026-0.284,0.078l-5.154,2.928
				c-14.936,7.918-32.088,12.104-49.601,12.104c-9.992,0-19.866-1.355-29.346-4.027c-8.288-2.345-16.02-5.577-22.989-9.608
				c-0.099-0.053-0.202-0.08-0.305-0.08c-0.265,0-0.495,0.18-0.56,0.438c-0.064,0.255,0.056,0.507,0.301,0.637
				c15.684,9.021,33.949,13.789,52.819,13.789c11.357,0,22.518-1.721,33.167-5.113c2.494-0.714,4.937-1.685,7.3-2.623l1.38-0.546
				c0.99-0.352,1.942-0.816,2.863-1.265c0.451-0.22,0.902-0.439,1.366-0.651c0.486-0.242,0.977-0.472,1.469-0.701
				c0.891-0.416,1.811-0.845,2.68-1.346l5.195-2.951c0.224-0.127,0.327-0.367,0.262-0.612
				C146.106,104.647,145.869,104.459,145.613,104.459z"/>
		</g>
		<g>
			<g>
				<g>
					<g>
						
							<path style="fill:#FFFFFF;stroke:#3C3C3B;stroke-width:1.2433;stroke-linecap:round;stroke-linejoin:round;stroke-miterlimit:10;" d="
							M152.869,108.916c1.238-2.188,3.803-4.498,6.252-5.2c0.75-0.212,1.541-0.338,2.305-0.174c0.78,0.129,1.551,0.553,1.886,1.257
							c0.627,1.301-0.429,2.758-1.646,3.58c-0.887,0.599-1.898,1.085-2.968,1.391c-1.054,0.27-2.18,0.386-3.33,0.339
							L152.869,108.916z"/>
					</g>
					<g>
						
							<path style="fill:#FFFFFF;stroke:#3C3C3B;stroke-width:1.2433;stroke-linecap:round;stroke-linejoin:round;stroke-miterlimit:10;" d="
							M152.869,108.916c-1.041,2.282-1.283,5.701,0.048,8.206c0.402,0.762,0.93,1.517,1.679,2.074
							c0.762,0.522,1.79,0.776,2.615,0.538c1.536-0.45,1.669-2.269,1.316-3.71c-0.26-1.062-0.683-2.079-1.222-3.065
							c-0.524-1.022-1.174-1.986-1.938-2.852L152.869,108.916z"/>
					</g>
				</g>
				<g>
					<g>
						
							<path style="fill:#FFFFFF;stroke:#3C3C3B;stroke-width:1.2433;stroke-linecap:round;stroke-linejoin:round;stroke-miterlimit:10;" d="
							M162.159,113.014c1.019-2.318,3.302-4.77,5.686-5.744c0.735-0.308,1.522-0.537,2.312-0.48c0.79,0.057,1.587,0.446,1.986,1.127
							c0.743,1.268-0.163,2.806-1.288,3.719c-1.64,1.34-3.795,2.182-6.121,2.394L162.159,113.014z"/>
					</g>
					<g>
						
							<path style="fill:#FFFFFF;stroke:#3C3C3B;stroke-width:1.2433;stroke-linecap:round;stroke-linejoin:round;stroke-miterlimit:10;" d="
							M162.159,113.014c-0.801,2.357-0.737,5.887,0.842,8.211c0.482,0.694,1.088,1.365,1.895,1.814
							c0.807,0.449,1.841,0.642,2.633,0.338c1.473-0.565,1.433-2.403,0.949-3.826c-0.718-2.089-2.029-4.029-3.744-5.523
							L162.159,113.014z"/>
					</g>
				</g>
				<g>
					<g>
						
							<path style="fill:#FFFFFF;stroke:#3C3C3B;stroke-width:1.2433;stroke-linecap:round;stroke-linejoin:round;stroke-miterlimit:10;" d="
							M171.785,116.244c0.784-2.389,2.851-5.166,5.132-6.347c0.699-0.359,1.456-0.641,2.244-0.636
							c0.783,0.028,1.623,0.304,2.092,0.915c0.871,1.149,0.11,2.784-0.93,3.83c-1.527,1.587-3.563,2.5-5.849,2.896L171.785,116.244z
							"/>
					</g>
					<g>
						
							<path style="fill:#FFFFFF;stroke:#3C3C3B;stroke-width:1.2433;stroke-linecap:round;stroke-linejoin:round;stroke-miterlimit:10;" d="
							M171.785,116.244c-0.572,2.441-0.139,5.831,1.648,8.009c0.541,0.663,1.203,1.293,2.043,1.686
							c0.835,0.416,1.887,0.474,2.651,0.066c1.418-0.745,1.203-2.552,0.581-3.892c-0.931-1.914-2.394-3.85-4.234-5.21
							L171.785,116.244z"/>
					</g>
				</g>
				<g>
					<g>
						
							<path style="fill:#FFFFFF;stroke:#3C3C3B;stroke-width:1.2433;stroke-linecap:round;stroke-linejoin:round;stroke-miterlimit:10;" d="
							M181.698,118.445c0.555-2.449,2.345-5.373,4.498-6.704c0.662-0.417,1.398-0.817,2.187-0.909
							c0.79-0.099,1.651,0.125,2.173,0.714c0.972,1.096,0.367,2.781-0.57,3.896c-1.36,1.608-3.333,2.942-5.561,3.484
							L181.698,118.445z"/>
					</g>
					<g>
						
							<path style="fill:#FFFFFF;stroke:#3C3C3B;stroke-width:1.2433;stroke-linecap:round;stroke-linejoin:round;stroke-miterlimit:10;" d="
							M181.698,118.445c-0.34,2.487,0.406,5.857,2.377,7.916c0.599,0.615,1.322,1.132,2.196,1.421
							c0.875,0.282,1.924,0.268,2.644-0.184c1.338-0.842,0.958-2.635,0.217-3.934c-1.092-1.933-2.757-3.488-4.708-4.738
							L181.698,118.445z"/>
					</g>
				</g>
				<g>
					<g>
						
							<path style="fill:#FFFFFF;stroke:#3C3C3B;stroke-width:1.2433;stroke-linecap:round;stroke-linejoin:round;stroke-miterlimit:10;" d="
							M191.763,119.795c0.322-2.461,1.835-5.563,3.864-7.177c0.622-0.488,1.316-0.912,2.093-1.06
							c0.778-0.158,1.654,0.046,2.229,0.554c1.069,0.959,0.622,2.71-0.208,3.938c-1.207,1.744-3.043,3.097-5.215,3.912
							C193.605,119.901,192.678,119.92,191.763,119.795z"/>
					</g>
					<g>
						
							<path style="fill:#FFFFFF;stroke:#3C3C3B;stroke-width:1.2433;stroke-linecap:round;stroke-linejoin:round;stroke-miterlimit:10;" d="
							M191.763,119.795c-0.11,2.537,0.946,5.798,3.103,7.576c0.654,0.545,1.42,1.035,2.316,1.259
							c0.896,0.213,1.938,0.163,2.613-0.383c1.255-1.004,0.711-2.736-0.146-3.931c-1.265-1.807-3.061-3.359-5.123-4.353
							C193.605,119.901,192.678,119.92,191.763,119.795z"/>
					</g>
				</g>
				<g>
					<g>
						
							<path style="fill:#FFFFFF;stroke:#3C3C3B;stroke-width:1.2433;stroke-linecap:round;stroke-linejoin:round;stroke-miterlimit:10;" d="
							M201.911,120.139c0.094-2.511,1.316-5.724,3.19-7.447c0.575-0.52,1.228-0.983,1.985-1.251
							c0.758-0.249,1.645-0.196,2.265,0.282c1.156,0.889,0.87,2.66,0.155,3.936c-1.041,1.847-2.734,3.536-4.828,4.428
							L201.911,120.139z"/>
					</g>
					<g>
						
							<path style="fill:#FFFFFF;stroke:#3C3C3B;stroke-width:1.2433;stroke-linecap:round;stroke-linejoin:round;stroke-miterlimit:10;" d="
							M201.911,120.139c0.124,2.506,1.476,5.671,3.789,7.313c0.702,0.506,1.51,0.947,2.421,1.037
							c0.911,0.109,1.939-0.105,2.564-0.687c1.16-1.083,0.458-2.772-0.509-3.906c-1.427-1.682-3.348-2.891-5.497-3.81
							L201.911,120.139z"/>
					</g>
				</g>
				<g>
					<g>
						
							<path style="fill:#FFFFFF;stroke:#3C3C3B;stroke-width:1.2433;stroke-linecap:round;stroke-linejoin:round;stroke-miterlimit:10;" d="
							M212.05,119.591c-0.139-2.521,0.793-5.727,2.483-7.733c0.52-0.599,1.122-1.15,1.857-1.446
							c0.735-0.296,1.626-0.298,2.291,0.137c1.237,0.807,1.116,2.584,0.52,3.899c-0.867,1.923-2.416,3.624-4.4,4.837
							C213.891,119.447,212.971,119.52,212.05,119.591z"/>
					</g>
					<g>
						
							<path style="fill:#FFFFFF;stroke:#3C3C3B;stroke-width:1.2433;stroke-linecap:round;stroke-linejoin:round;stroke-miterlimit:10;" d="
							M212.05,119.591c0.354,2.472,2.003,5.605,4.446,6.909c0.742,0.41,1.586,0.744,2.508,0.792
							c0.922,0.047,1.931-0.235,2.502-0.856c1.06-1.157,0.201-2.786-0.871-3.846c-1.58-1.556-3.626-2.718-5.834-3.303
							C213.891,119.447,212.971,119.52,212.05,119.591z"/>
					</g>
				</g>
				<g>
					<g>
						
							<path style="fill:#FFFFFF;stroke:#3C3C3B;stroke-width:1.2433;stroke-linecap:round;stroke-linejoin:round;stroke-miterlimit:10;" d="
							M222.093,118.098c-0.372-2.486,0.231-5.882,1.744-7.939c0.465-0.629,1.017-1.21,1.724-1.555
							c0.693-0.394,1.568-0.515,2.264-0.167c1.295,0.647,1.351,2.444,0.891,3.838c-0.334,1.021-0.84,2.007-1.494,2.923
							c-0.668,0.863-1.487,1.642-2.423,2.311L222.093,118.098z"/>
					</g>
					<g>
						
							<path style="fill:#FFFFFF;stroke:#3C3C3B;stroke-width:1.2433;stroke-linecap:round;stroke-linejoin:round;stroke-miterlimit:10;" d="
							M222.093,118.098c0.585,2.439,2.497,5.287,5.077,6.452c0.782,0.355,1.659,0.632,2.587,0.61
							c0.916-0.071,1.887-0.484,2.391-1.179c0.938-1.293-0.07-2.815-1.231-3.74c-0.854-0.677-1.816-1.239-2.841-1.67
							c-1.038-0.483-2.144-0.848-3.278-1.064L222.093,118.098z"/>
					</g>
				</g>
				<g>
					<g>
						
							<path style="fill:#FFFFFF;stroke:#3C3C3B;stroke-width:1.2433;stroke-linecap:round;stroke-linejoin:round;stroke-miterlimit:10;" d="
							M231.946,115.643c-0.616-2.462-0.301-5.78,0.982-8.03c0.393-0.692,0.874-1.353,1.533-1.789
							c0.659-0.436,1.526-0.615,2.258-0.319c1.363,0.55,1.59,2.319,1.26,3.728c-0.476,2.061-1.665,4.042-3.377,5.63
							C233.723,115.142,232.83,115.381,231.946,115.643z"/>
					</g>
					<g>
						
							<path style="fill:#FFFFFF;stroke:#3C3C3B;stroke-width:1.2433;stroke-linecap:round;stroke-linejoin:round;stroke-miterlimit:10;" d="
							M231.946,115.643c0.808,2.349,3.022,5.121,5.686,5.973c0.807,0.255,1.699,0.415,2.614,0.278
							c0.915-0.138,1.853-0.617,2.295-1.341c0.821-1.346-0.338-2.776-1.593-3.606c-1.849-1.214-4.075-1.949-6.346-2.084
							C233.723,115.142,232.83,115.381,231.946,115.643z"/>
					</g>
				</g>
				<g>
					<g>
						
							<path style="fill:#FFFFFF;stroke:#3C3C3B;stroke-width:1.2433;stroke-linecap:round;stroke-linejoin:round;stroke-miterlimit:10;" d="
							M241.532,112.298c-0.844-2.368-0.916-5.829,0.15-8.154c0.329-0.71,0.749-1.395,1.371-1.871
							c0.635-0.451,1.445-0.774,2.192-0.571c1.386,0.37,1.803,2.123,1.633,3.588c-0.216,2.19-1.252,4.177-2.817,5.881
							L241.532,112.298z"/>
					</g>
					<g>
						
							<path style="fill:#FFFFFF;stroke:#3C3C3B;stroke-width:1.2433;stroke-linecap:round;stroke-linejoin:round;stroke-miterlimit:10;" d="
							M241.532,112.298c1.044,2.28,3.466,4.692,6.226,5.311c0.837,0.19,1.752,0.28,2.661,0.074c0.92-0.18,1.78-0.814,2.139-1.598
							c0.663-1.466-0.628-2.752-1.947-3.42c-1.918-0.926-4.256-1.539-6.55-1.494L241.532,112.298z"/>
					</g>
				</g>
			</g>
			<path style="fill:#3C3C3B;" d="M253.533,105.852c-0.103,0-0.206,0.027-0.312,0.084c-15.505,8.921-33.574,13.636-52.25,13.636
				c-11.24,0.001-22.284-1.702-32.832-5.063c-2.45-0.701-4.863-1.659-7.195-2.586l-1.4-0.554c-0.957-0.34-1.889-0.795-2.79-1.234
				c-0.453-0.221-0.907-0.442-1.357-0.647c-0.486-0.242-0.978-0.472-1.47-0.701c-0.875-0.408-1.781-0.83-2.629-1.319l-5.16-2.932
				c-0.09-0.052-0.186-0.078-0.284-0.078c-0.257,0-0.494,0.189-0.562,0.45c-0.064,0.245,0.039,0.484,0.263,0.611l5.2,2.955
				c15.103,8.006,32.439,12.238,50.134,12.238c0.001,0,0.001,0,0.001,0c10.096,0,20.075-1.37,29.661-4.071
				c8.378-2.37,16.197-5.639,23.233-9.71c0.251-0.134,0.373-0.385,0.308-0.641C254.028,106.033,253.798,105.852,253.533,105.852z"/>
		</g>
	</g>
</svg>
