<?xml version="1.0" encoding="utf-8"?>
<svg xmlns="http://www.w3.org/2000/svg" viewBox="18.23 161.932 144.966 128.03" role="img" aria-label="Wedding ornament 04">
<g>
		<g>
			<g>
				<g>
					<g>
						<g>
							<path style="fill:#FFFFFF;stroke:#3C3C3B;stroke-linecap:round;stroke-linejoin:round;stroke-miterlimit:10;" d="
								M49.76,271.815c-0.418,1.11-1.257,2.252-2.507,3.151c-1.255,0.92-2.859,1.428-4.736,1.476
								c-1.096-0.046-2.365-0.199-3.618-0.757c-1.221-0.601-2.502-1.532-2.959-2.577c-0.894-1.881,0.819-2.628,2.451-2.804
								c1.19-0.097,2.555-0.194,3.875-0.092c0.666,0.043,1.381,0.045,2.069,0.117c0.691,0.07,1.383,0.164,2.106,0.22l1.632,0.706
								L49.76,271.815z"/>
						</g>
						<g>
							<path style="fill:#FFFFFF;stroke:#3C3C3B;stroke-linecap:round;stroke-linejoin:round;stroke-miterlimit:10;" d="
								M49.76,271.815c0.285-1.154,0.272-2.579,0.067-3.961c-0.218-1.361-0.565-2.846-1.159-3.949
								c-0.334-0.756-0.753-1.434-1.34-1.991c-0.559-0.607-1.409-0.938-2.164-0.954c-1.455,0.037-2.166,1.57-2.093,3.086
								c0.026,1.127,0.381,2.19,0.912,3.357c0.271,0.575,0.642,1.083,1.045,1.626c0.404,0.541,0.867,1.072,1.413,1.518l1.632,0.706
								L49.76,271.815z"/>
						</g>
					</g>
					<g>
						<g>
							<path style="fill:#FFFFFF;stroke:#3C3C3B;stroke-linecap:round;stroke-linejoin:round;stroke-miterlimit:10;" d="
								M38.534,265.365c-1.656,1.679-5.076,2.765-8.489,1.248c-0.983-0.491-2.076-1.145-2.995-2.172
								c-0.875-1.062-1.669-2.443-1.66-3.608c-0.048-2.114,1.832-2.059,3.395-1.532c1.125,0.416,2.415,0.885,3.578,1.524
								c0.591,0.314,1.242,0.606,1.841,0.953c0.602,0.346,1.196,0.714,1.831,1.062l1.198,1.314L38.534,265.365z"/>
						</g>
						<g>
							<path style="fill:#FFFFFF;stroke:#3C3C3B;stroke-linecap:round;stroke-linejoin:round;stroke-miterlimit:10;" d="
								M38.534,265.365c0.741-0.929,1.323-2.229,1.702-3.579c0.36-1.339,0.646-2.835,0.547-4.099
								c0.005-0.825-0.104-1.62-0.408-2.361c-0.252-0.771-0.888-1.411-1.554-1.719c-1.322-0.539-2.618,0.537-3.186,1.937
								c-0.452,1.029-0.56,2.141-0.558,3.421c0.011,0.635,0.144,1.25,0.288,1.911c0.148,0.659,0.354,1.332,0.668,1.964l1.198,1.314
								L38.534,265.365z"/>
						</g>
					</g>
					<g>
						<g>
							<path style="fill:#FFFFFF;stroke:#3C3C3B;stroke-linecap:round;stroke-linejoin:round;stroke-miterlimit:10;" d="
								M30.973,254.859c-1.117,0.398-2.532,0.497-4.029,0.118c-1.506-0.367-2.946-1.296-4.184-2.75
								c-0.663-0.905-1.366-2.047-1.714-3.405c-0.315-1.347-0.347-2.953,0.177-3.967c0.908-1.884,2.562-0.988,3.722,0.191
								c0.817,0.879,1.72,1.896,2.479,2.994c0.375,0.551,0.836,1.113,1.212,1.695c0.386,0.582,0.741,1.18,1.166,1.77l0.504,1.706
								L30.973,254.859z"/>
						</g>
						<g>
							<path style="fill:#FFFFFF;stroke:#3C3C3B;stroke-linecap:round;stroke-linejoin:round;stroke-miterlimit:10;" d="
								M30.973,254.859c1.065-0.528,2.143-1.458,3.066-2.502c0.907-1.046,1.823-2.236,2.306-3.36
								c0.386-0.711,0.648-1.401,0.721-2.176c0.107-0.795-0.125-1.646-0.594-2.241c-0.946-1.101-2.584-0.725-3.716,0.265
								c-0.865,0.714-1.5,1.646-2.066,2.785c-0.288,0.57-0.438,1.168-0.608,1.822c-0.161,0.652-0.29,1.348-0.278,2.052l0.504,1.706
								L30.973,254.859z"/>
						</g>
					</g>
					<g>
						<g>
							<path style="fill:#FFFFFF;stroke:#3C3C3B;stroke-linecap:round;stroke-linejoin:round;stroke-miterlimit:10;" d="
								M28.915,242.101c-1.172-0.149-2.506-0.703-3.66-1.695c-1.099-0.972-2.152-2.433-2.557-4.168
								c-0.135-0.531-0.246-1.104-0.306-1.712c-0.038-0.598-0.012-1.224,0.084-1.88c0.164-1.328,0.835-2.676,1.61-3.406
								c1.532-1.297,2.729,0.059,3.389,1.565c0.962,2.231,1.517,4.943,1.863,7.767C29.175,239.745,28.955,240.914,28.915,242.101z"
								/>
						</g>
						<g>
							<path style="fill:#FFFFFF;stroke:#3C3C3B;stroke-linecap:round;stroke-linejoin:round;stroke-miterlimit:10;" d="
								M28.915,242.101c1.193,0.01,2.547-0.335,3.857-0.868c1.368-0.538,2.546-1.26,3.594-2.141c0.307-0.27,0.603-0.558,0.861-0.872
								c0.283-0.313,0.545-0.653,0.741-1.033c0.361-0.763,0.632-1.704,0.361-2.497c-0.398-1.464-2.126-1.662-3.542-1.135
								c-2.062,0.747-4.104,2.482-5.451,5.017C29.175,239.745,28.955,240.914,28.915,242.101z"/>
						</g>
					</g>
					<g>
						<g>
							<path style="fill:#FFFFFF;stroke:#3C3C3B;stroke-linecap:round;stroke-linejoin:round;stroke-miterlimit:10;" d="
								M32.215,229.546c-1.051-0.555-2.075-1.522-2.832-2.819c-0.774-1.305-1.222-2.91-1.156-4.647
								c0.033-1.062,0.257-2.186,0.764-3.342c0.554-1.109,1.438-2.241,2.396-2.66c1.76-0.798,2.615,0.804,2.852,2.396
								c0.36,2.369,0.133,5.098-0.412,7.902C33.227,227.4,32.743,228.485,32.215,229.546z"/>
						</g>
						<g>
							<path style="fill:#FFFFFF;stroke:#3C3C3B;stroke-linecap:round;stroke-linejoin:round;stroke-miterlimit:10;" d="
								M32.215,229.546c1.107,0.427,2.529,0.59,3.959,0.508c1.413-0.091,2.894-0.397,4.152-1.003c0.76-0.374,1.578-0.815,2.19-1.497
								c0.675-0.657,1.13-1.601,1.164-2.448c0.034-1.589-1.586-2.173-3.126-2.032c-2.216,0.208-4.675,1.316-6.728,3.302
								C33.227,227.4,32.743,228.485,32.215,229.546z"/>
						</g>
					</g>
					<g>
						<g>
							<path style="fill:#FFFFFF;stroke:#3C3C3B;stroke-linecap:round;stroke-linejoin:round;stroke-miterlimit:10;" d="
								M39.132,218.517c-1.766-1.578-3.048-4.848-2.177-8.149c0.271-0.975,0.69-2.079,1.409-3.015
								c0.716-0.96,1.776-1.79,2.743-2.006c1.8-0.395,2.396,1.294,2.354,2.888c-0.064,2.35-0.828,4.989-2.021,7.577
								C40.644,216.69,39.87,217.589,39.132,218.517z"/>
						</g>
						<g>
							<path style="fill:#FFFFFF;stroke:#3C3C3B;stroke-linecap:round;stroke-linejoin:round;stroke-miterlimit:10;" d="
								M39.132,218.517c1.948,1.366,5.263,2.022,8.043,1.367c0.877-0.197,1.712-0.492,2.543-1.052
								c0.807-0.562,1.546-1.422,1.756-2.297c0.397-1.627-1.135-2.453-2.69-2.579c-2.263-0.186-4.874,0.412-7.343,1.856
								C40.644,216.69,39.87,217.589,39.132,218.517z"/>
						</g>
					</g>
					<g>
						<g>
							<path style="fill:#FFFFFF;stroke:#3C3C3B;stroke-linecap:round;stroke-linejoin:round;stroke-miterlimit:10;" d="
								M48.231,209.181c-1.483-1.859-2.204-5.248-1.153-8.248c0.319-0.914,0.759-1.853,1.467-2.682
								c0.705-0.827,1.703-1.521,2.623-1.652c1.699-0.244,2.321,1.398,2.255,2.966c-0.092,2.296-1.002,4.855-2.511,7.278
								L48.231,209.181z"/>
						</g>
						<g>
							<path style="fill:#FFFFFF;stroke:#3C3C3B;stroke-linecap:round;stroke-linejoin:round;stroke-miterlimit:10;" d="
								M48.231,209.181c1.689,1.669,4.883,2.862,7.922,2.364c0.927-0.153,1.918-0.43,2.85-0.995
								c0.936-0.567,1.814-1.477,2.112-2.391c0.558-1.712-1.024-2.516-2.601-2.669c-2.314-0.219-4.979,0.229-7.604,1.352
								L48.231,209.181z"/>
						</g>
					</g>
					<g>
						<g>
							<path style="fill:#FFFFFF;stroke:#3C3C3B;stroke-linecap:round;stroke-linejoin:round;stroke-miterlimit:10;" d="
								M58.117,200.658c-1.469-1.874-2.203-5.213-1.487-8.087c0.215-0.879,0.535-1.783,1.089-2.591
								c0.55-0.815,1.392-1.514,2.243-1.718c1.583-0.377,2.452,1.12,2.606,2.665c0.219,2.233-0.389,4.866-1.812,7.345
								C59.888,199.081,59.007,199.875,58.117,200.658z"/>
						</g>
						<g>
							<path style="fill:#FFFFFF;stroke:#3C3C3B;stroke-linecap:round;stroke-linejoin:round;stroke-miterlimit:10;" d="
								M58.117,200.658c1.671,1.679,4.921,2.87,8.118,2.049c0.971-0.254,2.006-0.651,2.965-1.375
								c0.951-0.727,1.821-1.808,2.039-2.801c0.409-1.848-1.31-2.396-2.91-2.326c-2.377,0.1-4.993,0.852-7.573,2.067
								C59.888,199.081,59.007,199.875,58.117,200.658z"/>
						</g>
					</g>
					<g>
						<g>
							<path style="fill:#FFFFFF;stroke:#3C3C3B;stroke-linecap:round;stroke-linejoin:round;stroke-miterlimit:10;" d="
								M67.328,191.427c-1.709-1.652-2.96-4.8-2.779-7.699c0.062-0.887,0.213-1.818,0.615-2.71c0.424-0.878,1.1-1.744,1.927-2.074
								c1.488-0.65,2.608,0.686,3.018,2.18c0.592,2.166,0.448,4.858-0.538,7.543C68.835,189.597,68.103,190.53,67.328,191.427z"/>
						</g>
						<g>
							<path style="fill:#FFFFFF;stroke:#3C3C3B;stroke-linecap:round;stroke-linejoin:round;stroke-miterlimit:10;" d="
								M67.328,191.427c1.887,1.437,5.324,2.097,8.379,0.696c0.93-0.42,1.891-1.002,2.709-1.883
								c0.839-0.866,1.466-2.099,1.537-3.099c0.077-1.894-1.699-2.137-3.267-1.798c-2.325,0.498-4.778,1.693-7.115,3.325
								C68.835,189.597,68.103,190.53,67.328,191.427z"/>
						</g>
					</g>
					<g>
						<g>
							<path style="fill:#FFFFFF;stroke:#3C3C3B;stroke-linecap:round;stroke-linejoin:round;stroke-miterlimit:10;" d="
								M74.888,180.807c-1.971-1.341-3.738-4.232-4.044-7.118c-0.104-0.892-0.092-1.826,0.145-2.777
								c0.262-0.941,0.797-1.899,1.543-2.37c1.364-0.887,2.7,0.24,3.344,1.637c0.967,2.04,1.26,4.709,0.747,7.524
								C76.072,178.752,75.49,179.785,74.888,180.807z"/>
						</g>
						<g>
							<path style="fill:#FFFFFF;stroke:#3C3C3B;stroke-linecap:round;stroke-linejoin:round;stroke-miterlimit:10;" d="
								M74.888,180.807c2.098,1.092,5.595,1.16,8.375-0.734c0.83-0.578,1.7-1.305,2.348-2.316c0.673-0.999,1.1-2.314,0.986-3.318
								c-0.236-1.877-2.023-1.813-3.525-1.218c-2.19,0.893-4.427,2.477-6.449,4.482C76.072,178.752,75.49,179.785,74.888,180.807z"
								/>
						</g>
					</g>
				</g>
				<path style="fill:#3C3C3B;" d="M82.337,164.719c-0.092-0.127-0.232-0.199-0.386-0.199c-0.202,0-0.461,0.134-0.585,0.512
					c-2.868,8.997-7.348,17.301-13.319,24.685c-4.365,5.534-9.826,10.187-15.108,14.688c-1.8,1.534-3.661,3.12-5.454,4.719
					c-8.15,7.165-13.819,14.85-16.851,22.842c-0.809,2.095-1.429,4.365-1.896,6.942c-0.388,2.226-0.515,4.581-0.387,7.201
					c0.14,2.281,0.607,4.666,1.393,7.096c0.701,1.877,1.698,4.309,3.192,6.465c4.408,6.801,11.439,11.666,19.291,13.346
					c1.734,0.378,3.599,0.569,5.694,0.586h0.018c0.294,0,0.512-0.217,0.516-0.517c0.005-0.312-0.22-0.555-0.531-0.566
					c-2.022-0.016-3.812-0.2-5.474-0.561c-4.257-0.923-8.265-2.779-11.593-5.37c-3.565-2.741-6.443-6.098-8.321-9.71l-0.736-1.423
					l-0.615-1.512c-0.311-0.679-0.521-1.413-0.725-2.124c-0.089-0.311-0.178-0.621-0.27-0.912c-0.249-1.05-0.451-2.114-0.597-3.152
					l-0.049-0.502c-0.087-0.888-0.178-1.807-0.158-2.719c-0.085-3.913,0.725-8.155,2.409-12.607
					c2.949-7.424,8.047-14.441,15.154-20.858c2.223-2.046,4.573-4.045,6.846-5.977c4.295-3.652,8.736-7.428,12.572-11.742
					c7.197-8,12.74-17.68,16.029-27.989C82.477,165.113,82.456,164.885,82.337,164.719z"/>
			</g>
			<g>
				<g>
					<g>
						<g>
							<path style="fill:#FFFFFF;stroke:#3C3C3B;stroke-linecap:round;stroke-linejoin:round;stroke-miterlimit:10;" d="
								M131.666,271.815c-0.285-1.154-0.272-2.579-0.067-3.961c0.218-1.361,0.565-2.846,1.159-3.949
								c0.334-0.756,0.754-1.434,1.34-1.991c0.559-0.607,1.409-0.938,2.164-0.954c1.455,0.037,2.166,1.57,2.093,3.086
								c-0.026,1.127-0.381,2.19-0.912,3.357c-0.271,0.575-0.642,1.083-1.045,1.626c-0.405,0.541-0.867,1.072-1.413,1.518
								l-1.632,0.706L131.666,271.815z"/>
						</g>
						<g>
							<path style="fill:#FFFFFF;stroke:#3C3C3B;stroke-linecap:round;stroke-linejoin:round;stroke-miterlimit:10;" d="
								M131.666,271.815c0.418,1.11,1.257,2.252,2.507,3.151c1.255,0.92,2.859,1.428,4.736,1.476
								c1.096-0.045,2.365-0.199,3.618-0.757c1.221-0.601,2.502-1.532,2.959-2.577c0.894-1.881-0.819-2.628-2.451-2.804
								c-1.19-0.097-2.555-0.194-3.875-0.092c-0.666,0.043-1.38,0.045-2.069,0.117c-0.691,0.07-1.383,0.164-2.106,0.22l-1.632,0.706
								L131.666,271.815z"/>
						</g>
					</g>
					<g>
						<g>
							<path style="fill:#FFFFFF;stroke:#3C3C3B;stroke-linecap:round;stroke-linejoin:round;stroke-miterlimit:10;" d="
								M142.892,265.365c-0.741-0.929-1.323-2.229-1.702-3.579c-0.36-1.339-0.646-2.835-0.547-4.099
								c-0.005-0.825,0.104-1.62,0.408-2.361c0.251-0.771,0.888-1.411,1.554-1.719c1.322-0.539,2.618,0.537,3.186,1.937
								c0.452,1.029,0.56,2.141,0.558,3.421c-0.011,0.635-0.144,1.25-0.288,1.911c-0.148,0.659-0.354,1.332-0.668,1.964
								l-1.198,1.314L142.892,265.365z"/>
						</g>
						<g>
							<path style="fill:#FFFFFF;stroke:#3C3C3B;stroke-linecap:round;stroke-linejoin:round;stroke-miterlimit:10;" d="
								M142.892,265.365c1.657,1.679,5.076,2.765,8.489,1.248c0.983-0.491,2.076-1.145,2.996-2.172
								c0.875-1.062,1.669-2.443,1.66-3.608c0.048-2.114-1.832-2.059-3.395-1.532c-1.125,0.416-2.415,0.885-3.578,1.524
								c-0.591,0.314-1.242,0.606-1.841,0.953c-0.602,0.346-1.196,0.714-1.831,1.062l-1.198,1.314L142.892,265.365z"/>
						</g>
					</g>
					<g>
						<g>
							<path style="fill:#FFFFFF;stroke:#3C3C3B;stroke-linecap:round;stroke-linejoin:round;stroke-miterlimit:10;" d="
								M150.453,254.859c-1.065-0.528-2.143-1.458-3.066-2.502c-0.907-1.046-1.823-2.236-2.307-3.36
								c-0.386-0.711-0.648-1.401-0.721-2.176c-0.107-0.795,0.125-1.646,0.594-2.241c0.946-1.101,2.584-0.725,3.716,0.265
								c0.865,0.714,1.5,1.646,2.066,2.785c0.288,0.57,0.438,1.168,0.609,1.822c0.161,0.652,0.29,1.348,0.278,2.052l-0.504,1.706
								L150.453,254.859z"/>
						</g>
						<g>
							<path style="fill:#FFFFFF;stroke:#3C3C3B;stroke-linecap:round;stroke-linejoin:round;stroke-miterlimit:10;" d="
								M150.453,254.859c1.117,0.398,2.532,0.497,4.029,0.118c1.506-0.367,2.946-1.296,4.184-2.75
								c0.663-0.905,1.366-2.047,1.714-3.405c0.315-1.347,0.347-2.953-0.178-3.967c-0.908-1.884-2.562-0.988-3.722,0.191
								c-0.817,0.879-1.72,1.896-2.479,2.994c-0.375,0.551-0.836,1.113-1.212,1.695c-0.386,0.582-0.741,1.18-1.167,1.77
								l-0.504,1.706L150.453,254.859z"/>
						</g>
					</g>
					<g>
						<g>
							<path style="fill:#FFFFFF;stroke:#3C3C3B;stroke-linecap:round;stroke-linejoin:round;stroke-miterlimit:10;" d="
								M152.511,242.101c-1.194,0.01-2.547-0.335-3.857-0.868c-1.368-0.538-2.546-1.26-3.594-2.141
								c-0.307-0.27-0.603-0.558-0.861-0.872c-0.283-0.313-0.545-0.653-0.741-1.033c-0.361-0.763-0.632-1.704-0.361-2.497
								c0.398-1.464,2.126-1.662,3.542-1.135c2.062,0.747,4.104,2.482,5.451,5.017C152.251,239.745,152.471,240.914,152.511,242.101
								z"/>
						</g>
						<g>
							<path style="fill:#FFFFFF;stroke:#3C3C3B;stroke-linecap:round;stroke-linejoin:round;stroke-miterlimit:10;" d="
								M152.511,242.101c1.172-0.149,2.506-0.703,3.661-1.695c1.099-0.972,2.152-2.433,2.557-4.168
								c0.135-0.532,0.246-1.104,0.306-1.712c0.038-0.598,0.012-1.224-0.084-1.88c-0.164-1.328-0.835-2.676-1.61-3.406
								c-1.532-1.297-2.729,0.059-3.389,1.565c-0.962,2.231-1.517,4.943-1.863,7.767
								C152.251,239.745,152.471,240.914,152.511,242.101z"/>
						</g>
					</g>
					<g>
						<g>
							<path style="fill:#FFFFFF;stroke:#3C3C3B;stroke-linecap:round;stroke-linejoin:round;stroke-miterlimit:10;" d="
								M149.211,229.546c-1.107,0.427-2.529,0.59-3.959,0.508c-1.413-0.091-2.894-0.397-4.152-1.003
								c-0.76-0.374-1.578-0.815-2.19-1.497c-0.675-0.657-1.13-1.601-1.164-2.447c-0.034-1.589,1.587-2.174,3.126-2.032
								c2.216,0.208,4.675,1.316,6.728,3.302C148.199,227.4,148.683,228.485,149.211,229.546z"/>
						</g>
						<g>
							<path style="fill:#FFFFFF;stroke:#3C3C3B;stroke-linecap:round;stroke-linejoin:round;stroke-miterlimit:10;" d="
								M149.211,229.546c1.051-0.555,2.075-1.522,2.832-2.819c0.774-1.305,1.222-2.91,1.156-4.647
								c-0.033-1.062-0.257-2.186-0.764-3.342c-0.554-1.109-1.438-2.241-2.396-2.659c-1.76-0.798-2.615,0.804-2.852,2.396
								c-0.36,2.369-0.133,5.098,0.412,7.902C148.199,227.4,148.683,228.485,149.211,229.546z"/>
						</g>
					</g>
					<g>
						<g>
							<path style="fill:#FFFFFF;stroke:#3C3C3B;stroke-linecap:round;stroke-linejoin:round;stroke-miterlimit:10;" d="
								M142.294,218.517c-1.949,1.366-5.263,2.022-8.043,1.367c-0.877-0.197-1.712-0.492-2.543-1.052
								c-0.807-0.562-1.546-1.422-1.756-2.297c-0.398-1.627,1.135-2.453,2.69-2.579c2.263-0.186,4.874,0.412,7.343,1.856
								C140.782,216.69,141.556,217.589,142.294,218.517z"/>
						</g>
						<g>
							<path style="fill:#FFFFFF;stroke:#3C3C3B;stroke-linecap:round;stroke-linejoin:round;stroke-miterlimit:10;" d="
								M142.294,218.517c1.766-1.578,3.048-4.848,2.177-8.149c-0.27-0.975-0.69-2.079-1.409-3.015
								c-0.716-0.96-1.776-1.79-2.743-2.006c-1.801-0.395-2.396,1.294-2.354,2.888c0.064,2.35,0.828,4.989,2.021,7.577
								C140.782,216.69,141.556,217.589,142.294,218.517z"/>
						</g>
					</g>
					<g>
						<g>
							<path style="fill:#FFFFFF;stroke:#3C3C3B;stroke-linecap:round;stroke-linejoin:round;stroke-miterlimit:10;" d="
								M133.195,209.181c-1.689,1.669-4.883,2.862-7.922,2.364c-0.927-0.153-1.918-0.43-2.85-0.995
								c-0.936-0.567-1.814-1.477-2.112-2.391c-0.558-1.712,1.024-2.516,2.601-2.669c2.314-0.219,4.979,0.229,7.604,1.352
								L133.195,209.181z"/>
						</g>
						<g>
							<path style="fill:#FFFFFF;stroke:#3C3C3B;stroke-linecap:round;stroke-linejoin:round;stroke-miterlimit:10;" d="
								M133.195,209.181c1.483-1.859,2.204-5.248,1.153-8.248c-0.319-0.914-0.759-1.852-1.467-2.682
								c-0.705-0.827-1.703-1.521-2.623-1.652c-1.699-0.244-2.322,1.398-2.255,2.966c0.092,2.296,1.002,4.855,2.511,7.278
								L133.195,209.181z"/>
						</g>
					</g>
					<g>
						<g>
							<path style="fill:#FFFFFF;stroke:#3C3C3B;stroke-linecap:round;stroke-linejoin:round;stroke-miterlimit:10;" d="
								M123.309,200.658c-1.671,1.679-4.921,2.87-8.118,2.049c-0.971-0.254-2.006-0.651-2.964-1.375
								c-0.951-0.727-1.821-1.808-2.039-2.801c-0.409-1.848,1.31-2.396,2.91-2.326c2.377,0.1,4.993,0.852,7.574,2.067
								C121.538,199.081,122.419,199.875,123.309,200.658z"/>
						</g>
						<g>
							<path style="fill:#FFFFFF;stroke:#3C3C3B;stroke-linecap:round;stroke-linejoin:round;stroke-miterlimit:10;" d="
								M123.309,200.658c1.469-1.874,2.203-5.213,1.487-8.087c-0.215-0.879-0.535-1.783-1.089-2.591
								c-0.55-0.815-1.392-1.514-2.243-1.718c-1.583-0.377-2.452,1.12-2.606,2.665c-0.219,2.233,0.389,4.866,1.813,7.345
								C121.538,199.081,122.419,199.875,123.309,200.658z"/>
						</g>
					</g>
					<g>
						<g>
							<path style="fill:#FFFFFF;stroke:#3C3C3B;stroke-linecap:round;stroke-linejoin:round;stroke-miterlimit:10;" d="
								M114.098,191.427c-1.887,1.437-5.323,2.097-8.379,0.696c-0.93-0.42-1.892-1.002-2.709-1.883
								c-0.839-0.866-1.467-2.099-1.537-3.099c-0.077-1.894,1.699-2.137,3.267-1.798c2.325,0.498,4.778,1.693,7.115,3.325
								C112.591,189.597,113.323,190.53,114.098,191.427z"/>
						</g>
						<g>
							<path style="fill:#FFFFFF;stroke:#3C3C3B;stroke-linecap:round;stroke-linejoin:round;stroke-miterlimit:10;" d="
								M114.098,191.427c1.709-1.652,2.96-4.8,2.779-7.699c-0.062-0.886-0.213-1.818-0.615-2.71c-0.424-0.878-1.1-1.744-1.927-2.074
								c-1.488-0.65-2.608,0.686-3.018,2.18c-0.592,2.166-0.448,4.858,0.538,7.543C112.591,189.597,113.323,190.53,114.098,191.427z
								"/>
						</g>
					</g>
					<g>
						<g>
							<path style="fill:#FFFFFF;stroke:#3C3C3B;stroke-linecap:round;stroke-linejoin:round;stroke-miterlimit:10;" d="
								M106.538,180.807c-2.098,1.091-5.595,1.159-8.375-0.734c-0.83-0.578-1.7-1.305-2.348-2.316
								c-0.673-0.999-1.1-2.314-0.987-3.318c0.236-1.877,2.023-1.813,3.525-1.218c2.19,0.893,4.427,2.477,6.449,4.482
								C105.355,178.752,105.936,179.785,106.538,180.807z"/>
						</g>
						<g>
							<path style="fill:#FFFFFF;stroke:#3C3C3B;stroke-linecap:round;stroke-linejoin:round;stroke-miterlimit:10;" d="
								M106.538,180.807c1.971-1.341,3.738-4.232,4.044-7.118c0.103-0.892,0.092-1.826-0.145-2.777
								c-0.262-0.941-0.797-1.899-1.543-2.37c-1.364-0.887-2.7,0.24-3.345,1.637c-0.967,2.04-1.26,4.709-0.747,7.524
								C105.355,178.752,105.936,179.785,106.538,180.807z"/>
						</g>
					</g>
				</g>
				<path style="fill:#3C3C3B;" d="M150.637,231.532c-3.01-7.58-8.202-14.732-15.427-21.258c-2.245-2.066-4.605-4.073-6.886-6.014
					c-4.27-3.63-8.684-7.383-12.46-11.633c-7.095-7.887-12.56-17.429-15.804-27.597c-0.123-0.376-0.383-0.51-0.585-0.51
					c-0.153,0-0.294,0.072-0.386,0.199c-0.119,0.165-0.14,0.393-0.059,0.64c2.908,9.126,7.453,17.549,13.505,25.034
					c4.436,5.622,9.936,10.307,15.256,14.839c1.795,1.529,3.651,3.111,5.431,4.699c4.148,3.712,7.221,6.963,9.672,10.231
					c2.984,3.91,5.301,8.01,6.889,12.188c0.784,2.03,1.385,4.235,1.839,6.738c0.375,2.15,0.498,4.424,0.374,6.952
					c-0.134,2.189-0.584,4.481-1.333,6.802c-0.681,1.819-1.645,4.17-3.079,6.237c-4.251,6.565-11.033,11.259-18.609,12.879
					c-1.661,0.362-3.451,0.545-5.479,0.561c-0.304,0.01-0.53,0.254-0.524,0.567c0.005,0.298,0.221,0.515,0.515,0.515h0.014
					c2.1-0.017,3.965-0.209,5.7-0.586c4.415-0.956,8.574-2.882,12.025-5.569c3.689-2.836,6.669-6.316,8.622-10.066l0.77-1.493
					l0.621-1.527c0.333-0.73,0.555-1.504,0.77-2.252c0.088-0.309,0.177-0.619,0.278-0.941c0.258-1.088,0.467-2.191,0.623-3.292
					l0.049-0.515c0.091-0.92,0.184-1.871,0.164-2.809C153.209,240.496,152.373,236.117,150.637,231.532z"/>
			</g>
		</g>
		<g>
			<g>
				
					<path style="fill:#FFFFFF;stroke:#3C3C3B;stroke-width:0.9018;stroke-linecap:round;stroke-linejoin:round;stroke-miterlimit:10;" d="
					M91.719,285.405c1.73-2.701,4.71-4.275,7.455-5.935c4.648-2.812,7.944-7.31,6.109-12.949
					c-2.341-7.194-12.208-7.067-14.569,0.006c-2.361-7.073-12.228-7.199-14.569-0.006c-1.835,5.639,1.461,10.137,6.109,12.949
					c2.744,1.66,5.725,3.235,7.455,5.935l1.006,1.97L91.719,285.405z"/>
			</g>
			
				<path style="fill:none;stroke:#3C3C3B;stroke-width:0.9018;stroke-linecap:round;stroke-linejoin:round;stroke-miterlimit:10;" d="
				M96.816,263.658c1.454-0.21,2.989,0.221,4.12,1.158c1.132,0.937,1.842,2.364,1.907,3.832"/>
		</g>
		<g>
			<g>
				<g>
					<g>
						<g>
							
								<path style="fill:#FFFFFF;stroke:#3C3C3B;stroke-width:1.1753;stroke-linecap:round;stroke-linejoin:round;stroke-miterlimit:10;" d="
								M103.417,208.863c-11.216,0-20.307,9.092-20.307,20.307c0,11.215,9.092,20.307,20.307,20.307
								c11.215,0,20.307-9.092,20.307-20.307C123.724,217.955,114.632,208.863,103.417,208.863z M103.417,245.221
								c-8.864,0-16.05-7.186-16.05-16.05c0-8.864,7.186-16.05,16.05-16.05s16.05,7.186,16.05,16.05
								C119.467,238.035,112.281,245.221,103.417,245.221z"/>
						</g>
					</g>
				</g>
			</g>
			<g>
				<g>
					<g>
						<g>
							<g>
								
									<path style="fill:#FFFFFF;stroke:#3C3C3B;stroke-width:1.1753;stroke-linecap:round;stroke-linejoin:round;stroke-miterlimit:10;" d="
									M78.009,208.863c-11.215,0-20.307,9.092-20.307,20.307c0,11.215,9.092,20.307,20.307,20.307
									c11.215,0,20.307-9.092,20.307-20.307C98.317,217.955,89.225,208.863,78.009,208.863z M78.009,245.221
									c-8.864,0-16.05-7.186-16.05-16.05c0-8.864,7.186-16.05,16.05-16.05s16.05,7.186,16.05,16.05
									C94.059,238.035,86.873,245.221,78.009,245.221z"/>
							</g>
						</g>
					</g>
				</g>
			</g>
		</g>
	</g>
</svg>
